<svg width="178" height="246" viewBox="0 0 178 246" fill="none" xmlns="http://www.w3.org/2000/svg">
<path opacity="0.25" d="M92.6943 2.64941C108.023 2.64945 121.577 5.34675 133.409 10.6768L133.417 10.6807C145.34 16.0036 154.454 23.5647 160.867 33.3418L160.876 33.3564L160.885 33.3701C167.408 43.0501 170.677 53.9313 170.677 66.0918C170.677 75.3387 169.495 83.8357 167.155 91.5996L167.146 91.6309C164.91 99.4009 161.389 107.099 156.558 114.725C151.717 122.255 145.224 130.272 137.049 138.774L137.043 138.781L137.037 138.787C128.972 147.289 111.593 163.521 84.8115 187.547L83.9316 188.337V193.82H175.304V242.387H5.29297V203.164L63.5146 144.291L63.5303 144.275L63.5449 144.259C80.3865 126.647 91.4785 114.563 96.7354 108.076L96.749 108.059C101.991 101.478 105.735 95.7026 107.852 90.7637L107.851 90.7627C110.084 85.8084 111.205 80.6064 111.205 75.1797C111.205 68.2708 108.932 62.5472 104.206 58.332C99.4966 54.1317 93.0583 52.2071 85.2588 52.207C77.1301 52.207 68.979 54.5663 60.8369 59.1514C53.458 63.2625 45.2253 69.1931 36.1465 76.8945L3.70215 38.9199C15.2322 28.7555 24.885 21.5397 32.6855 17.1836L32.6963 17.1768L32.708 17.1709C40.9736 12.4477 49.9484 8.84462 59.6426 6.36719L59.6416 6.36621C69.4141 3.89683 80.4254 2.64941 92.6943 2.64941Z" stroke="white" stroke-width="5.29808"/>
</svg>
