<svg width="171" height="246" viewBox="0 0 171 246" fill="none" xmlns="http://www.w3.org/2000/svg">
<path opacity="0.25" d="M84.4502 2.64941C108.81 2.64941 127.555 7.48368 140.974 16.8457C154.28 26.1295 160.871 38.7932 160.871 55.1045C160.871 69.2943 156.561 81.3901 147.976 91.5312C139.379 101.578 126.845 109.011 110.146 113.69L108.212 114.232V119.557L110.531 119.848C130.111 122.309 144.409 128.124 153.794 136.996C163.109 145.802 167.882 157.903 167.882 173.628C167.882 194.971 159.469 211.607 142.568 223.813L142.562 223.818C125.677 236.089 101.953 242.387 71.082 242.387C58.3826 242.387 46.6296 241.472 35.8174 239.652H35.8164C25.638 237.922 14.5853 234.818 2.64941 230.327V182.943C12.0143 187.412 21.5203 190.82 31.167 193.158L31.1826 193.162L31.1973 193.165C42.2196 195.7 52.4212 196.982 61.7891 196.982C76.0431 196.982 86.9262 195.03 93.9814 190.726L93.9922 190.719C101.39 186.157 105.032 178.995 105.032 169.716C105.032 162.751 103.226 156.997 99.2314 152.873C95.3529 148.762 89.3489 145.939 81.624 144.147C73.8405 142.235 63.8346 141.308 51.6807 141.308H39.6572V98.1855H52.0068C68.5041 98.1855 81.2777 96.0896 90.0176 91.6182C94.4259 89.3628 97.8832 86.4636 100.231 82.8594C102.588 79.2416 103.728 75.0653 103.729 70.4297C103.729 63.3139 100.894 57.7382 95.1416 54.1592C89.7897 50.7619 82.7753 49.1953 74.3418 49.1953C59.2327 49.1954 43.75 54.0418 27.9248 63.5361L3.91992 24.8936C15.6435 17.0881 27.5632 11.4987 39.6807 8.09375L39.6797 8.09277C52.6595 4.47597 67.5735 2.64942 84.4502 2.64941Z" stroke="white" stroke-width="5.29808"/>
</svg>
