<svg width="168" height="246" viewBox="0 0 168 246" fill="none" xmlns="http://www.w3.org/2000/svg">
<path opacity="0.25" d="M148.473 2.64941V51.748H66.3682L66.1445 54.1514L63.168 86.0625L62.8408 89.5762L66.3066 88.9092C74.9041 87.2558 80.8356 86.4137 84.2393 86.3105L84.2793 86.3096L84.3193 86.3066C87.9126 86.0889 91.2208 85.9814 94.2451 85.9814C107.702 85.9815 119.745 89.1267 130.441 95.375L130.454 95.3828L130.468 95.3896C141.256 101.524 149.609 110.239 155.554 121.597L155.563 121.614C161.613 132.97 164.677 146.143 164.677 161.208C164.677 187.651 156.713 207.573 141.1 221.393L141.093 221.398C125.572 235.229 101.746 242.387 69.1123 242.387C41.9303 242.387 19.8212 238.306 2.64941 230.301V182.472C11.4525 186.221 21.1696 189.359 31.792 191.893L31.7979 191.894C44.0446 194.788 54.6762 196.264 63.6562 196.264C76.104 196.264 86.0847 193.667 93.2275 188.099L93.2393 188.09L93.25 188.081C100.516 182.293 104.003 173.845 104.003 163.192C104.003 153.214 100.393 145.186 93.0674 139.447C85.7808 133.739 75.0507 131.112 61.3418 131.112C51.0613 131.112 40.0497 132.991 28.3242 136.697L6.90137 126.06L15.6943 2.64941H148.473Z" stroke="white" stroke-width="5.29808"/>
</svg>
