<svg width="145" height="217" viewBox="0 0 145 217" fill="none" xmlns="http://www.w3.org/2000/svg">
<g clip-path="url(#clip0_62_642)">
<path d="M8.16012 38.0862C30.2668 27.0663 53.7962 18.5342 77.114 10.4656C78.2088 10.088 77.414 8.461 76.3255 8.83747C53.0076 16.9061 29.4782 25.4381 7.37159 36.4581C6.33188 36.9758 7.11468 38.6082 8.16012 38.0862Z" fill="#666666"/>
<path d="M16.8078 95.6719C12.9633 78.4516 9.11479 61.2092 6.41249 43.7625C6.30714 43.0831 4.99199 37.3492 6.38303 38.9906C6.72475 39.3948 6.86054 40.3462 7.02219 40.9238C7.27727 41.85 7.45582 42.8033 7.6547 43.7431C8.40924 47.2617 9.09813 50.7955 9.79016 54.3288C12.4884 68.1353 15.0637 81.9643 17.6074 95.7992C17.8176 96.9426 19.5942 96.6192 19.3834 95.4726C17.1289 83.2108 14.8391 70.9522 12.4806 58.7094C11.3313 52.7426 10.4032 46.6306 8.83355 40.754C8.42188 39.2068 7.7479 36.0555 5.83341 35.7708C2.56002 35.2787 4.17301 41.0362 4.37127 42.3451C7.08148 60.3846 11.0584 78.201 15.0318 95.9984C15.2856 97.1306 17.0628 96.8103 16.8078 95.6719Z" fill="#666666"/>
<path d="M90.3062 66.0575C87.3664 50.3525 85.302 34.5127 82.9513 18.7125C82.4312 15.2097 82.4299 10.9812 81.2371 7.651C80.9433 6.83316 80.7005 6.04511 79.8588 5.63496C77.7082 4.58053 76.4166 6.92094 76.2321 8.73777C76.0114 10.9074 76.7522 13.3933 77.0848 15.5396C77.6014 18.8635 78.0922 22.1889 78.5866 25.5169C79.8215 33.8648 81.0305 42.2143 82.2364 50.5643C82.9898 55.7974 83.7439 61.0336 84.491 66.2679C84.6539 67.42 86.4331 67.0929 86.267 65.9413C84.285 52.075 82.2935 38.2105 80.2389 24.3576C79.7467 21.0422 79.2577 17.7263 78.7366 14.413C78.5748 13.3913 78.3666 12.3651 78.2369 11.3407C78.2553 11.4941 77.3458 6.7958 79.4617 7.9807C80.131 8.35725 80.3962 13.8793 80.5293 14.7626C83.1659 31.9764 85.3239 49.2652 88.5307 66.3872C88.7441 67.53 90.5207 67.2066 90.3067 66.0606L90.3062 66.0575Z" fill="#666666"/>
<path d="M14.355 69.4016C36.743 59.6459 59.2847 50.2473 81.9707 41.2075C83.0493 40.7773 82.2608 39.1492 81.1822 39.5793C58.4962 48.6192 35.9545 58.0178 13.5665 67.7735C12.5006 68.2372 13.2891 69.8654 14.355 69.4016Z" fill="#666666"/>
<path d="M15.6222 81.757C24.6956 83.2334 33.7716 84.706 42.845 86.1823C43.6853 86.3184 50.5554 87.1451 50.4295 88.0924C50.2751 89.2571 48.7703 88.8416 48.1042 88.8367C46.3277 88.8237 44.3378 88.2001 42.592 87.9105C34.2074 86.5263 25.7649 85.3421 17.4151 83.7393C16.2722 83.5184 16.1282 85.3245 17.2573 85.5414C22.078 86.4674 26.9467 87.1755 31.7883 87.967C37.2186 88.856 42.87 90.3444 48.3605 90.7096C51.4043 90.9108 54.3016 87.2466 50.5005 85.676C48.2773 84.759 45.3688 84.7615 43.0022 84.377C40.165 83.9158 37.3309 83.454 34.4942 82.9959C28.2549 81.9814 22.0156 80.9668 15.7769 79.9554C14.6272 79.7685 14.4794 81.572 15.6191 81.7576L15.6222 81.757Z" fill="#666666"/>
<path d="M86.803 51.402C94.6374 54.0858 102.645 56.189 110.533 58.703C111.358 58.9661 116.995 60.3036 117.017 61.2954C117.043 62.3421 115.173 61.6215 114.847 61.6063C113.351 61.5253 111.67 60.8027 110.228 60.4114C105.713 59.181 101.221 57.8615 96.751 56.4826C94.6696 55.8399 89.6278 55.2191 88.1807 53.6272C87.3999 52.7682 86.0242 53.942 86.8125 54.8061C87.5642 55.6312 89.1359 55.9136 90.1353 56.2589C92.7081 57.1443 95.3157 57.9351 97.917 58.727C103.46 60.4083 109.111 62.3704 114.812 63.4381C117.548 63.9506 121.011 62.7456 118.067 59.7669C116.765 58.4519 114.376 58.0519 112.717 57.5079C110.097 56.6508 107.453 55.8537 104.81 55.0693C98.991 53.3408 93.1594 51.6701 87.4166 49.7022C86.317 49.3264 85.7002 51.0268 86.803 51.402Z" fill="#666666"/>
<path d="M41.6148 89.37C42.1858 93.5754 42.7594 97.777 43.3304 101.982C43.487 103.136 45.2625 102.806 45.1064 101.656C44.5354 97.4505 43.9618 93.2489 43.3908 89.0435C43.2342 87.8902 41.4588 88.2199 41.6148 89.37Z" fill="#666666"/>
<path d="M45.4436 89.8162C45.8164 93.8654 46.1865 97.9183 46.5592 101.967C46.6648 103.127 48.4428 102.793 48.3352 101.641C47.9625 97.5918 47.5924 93.5389 47.2197 89.4897C47.1141 88.3303 45.3361 88.6637 45.4436 89.8162Z" fill="#666666"/>
<path d="M110.231 62.6808C111.102 66.5665 111.569 70.4742 111.604 74.4581C112.199 74.4304 112.797 74.4021 113.392 74.3743C113.336 74.1233 113.277 73.8761 113.221 73.6252C112.964 72.4936 111.187 72.8138 111.445 73.9517C111.501 74.2027 111.56 74.4499 111.616 74.7008C111.832 75.6441 113.414 75.6829 113.404 74.617C113.369 70.473 112.917 66.3993 112.007 62.3574C111.754 61.2252 109.976 61.5455 110.231 62.6839L110.231 62.6808Z" fill="#666666"/>
<path d="M114.437 63.3497C114.643 67.4328 114.85 71.519 115.053 75.6026C115.112 76.7607 116.887 76.4247 116.829 75.2761C116.623 71.193 116.416 67.1068 116.213 63.0231C116.153 61.8651 114.379 62.2011 114.437 63.3497Z" fill="#666666"/>
<path d="M15.5052 97.1554C25.7029 100.561 36.1449 102.883 46.8233 104.113C47.9794 104.246 48.1341 102.445 46.9811 102.311C36.4592 101.097 26.1676 98.8131 16.1189 95.4556C15.0141 95.0873 14.4005 96.7871 15.5052 97.1554Z" fill="#666666"/>
<path d="M85.8899 66.4073C95.6605 69.7245 105.432 73.0449 115.202 76.3621C116.305 76.7373 116.918 75.0343 115.816 74.6622C106.045 71.345 96.2741 68.0247 86.5035 64.7075C85.4007 64.3323 84.7877 66.0352 85.8899 66.4073Z" fill="#666666"/>
<path d="M18.1712 97.1812C24.5592 94.5699 30.9434 91.9561 37.3313 89.3448C38.4082 88.9051 37.6165 87.2776 36.5428 87.7166C30.1548 90.3279 23.7706 92.9418 17.3827 95.5531C16.3058 95.9927 17.0975 97.6203 18.1712 97.1812Z" fill="#666666"/>
<path d="M44.8123 86.1346C59.6705 80.637 74.1122 74.1514 88.0918 66.696C89.1137 66.1522 88.334 64.5191 87.3033 65.0678C73.3236 72.5232 58.8819 79.0088 44.0238 84.5065C42.9368 84.9088 43.7285 86.5364 44.8123 86.1346Z" fill="#666666"/>
<path d="M46.7999 104.499C70.728 97.3731 93.8926 88.2583 116.565 77.8299C117.62 77.3452 116.834 75.7134 115.776 76.2018C93.2517 86.5638 70.2468 95.6427 46.4729 102.721C45.3688 103.048 45.6869 104.831 46.7999 104.499Z" fill="#666666"/>
<path d="M42.6137 103.921C63.1911 121.973 82.2312 141.686 102.809 159.739C103.683 160.505 104.7 159.009 103.833 158.251C83.2556 140.198 64.2155 120.485 43.6381 102.433C42.7634 101.666 41.7471 103.163 42.6137 103.921Z" fill="#666666"/>
<path d="M90.3044 140.933C99.1768 119.676 108.393 98.5492 116.969 77.174C117.403 76.0918 115.702 75.4804 115.271 76.5589C106.695 97.9372 97.4793 119.064 88.6064 140.317C88.1552 141.393 89.859 142.004 90.3044 140.933Z" fill="#666666"/>
<path d="M78.5048 169.539C81.7611 161.531 85.0562 153.539 88.3758 145.556C88.8232 144.477 87.1232 143.869 86.6777 144.94C83.3582 152.924 80.0593 160.914 76.8067 168.924C76.3661 170.004 78.0699 170.615 78.5048 169.539Z" fill="#666666"/>
<path d="M69.0985 178.492C66.0289 185.973 62.9518 193.448 59.9735 200.964C58.9952 203.43 55.2662 210.712 59.5457 212.224C63.354 213.568 64.7103 205.07 65.4736 202.925C68.3673 194.771 71.5676 186.724 74.7803 178.692C75.214 177.61 73.5134 176.998 73.0823 178.077C70.7344 183.949 68.4052 189.833 66.1805 195.754C65.2931 198.112 64.4202 200.477 63.5854 202.854C63.3414 203.549 62.2041 208.378 61.7017 208.484C61.1218 207.653 60.5425 206.826 59.9594 205.996C60.1129 205.589 60.2689 205.178 60.4255 204.77C60.5351 204.019 61.0528 203.163 61.3258 202.466C62.1329 200.417 62.9538 198.372 63.7784 196.33C66.0968 190.581 68.4495 184.842 70.8029 179.106C71.2466 178.026 69.5434 177.418 69.1048 178.491L69.0985 178.492Z" fill="#666666"/>
<path d="M83.9072 142.554C79.932 152.186 75.9536 161.819 71.9891 171.456C71.5448 172.534 73.2454 173.145 73.6871 172.071C77.6517 162.434 81.63 152.801 85.6052 143.169C86.0495 142.091 84.3489 141.48 83.9072 142.554Z" fill="#666666"/>
<path d="M109.755 79.1582C102.268 98.9255 93.883 118.378 85.819 137.912C85.3747 138.99 87.0753 139.601 87.5171 138.527C95.5773 118.991 103.966 99.5407 111.453 79.7734C111.865 78.682 110.164 78.0706 109.755 79.1582Z" fill="#666666"/>
<path d="M64.1559 136.444C50.899 123.654 37.6281 110.878 24.3375 98.1174C23.506 97.32 22.126 98.4881 22.9693 99.2963C36.2594 112.053 49.5303 124.83 62.7877 137.623C63.6166 138.424 64.996 137.252 64.1559 136.444Z" fill="#666666"/>
<path d="M81.3403 153.053C76.8209 148.675 72.2959 144.302 67.7682 139.933C66.9394 139.132 65.56 140.303 66.4001 141.112C70.9277 145.481 75.4496 149.855 79.9721 154.232C80.801 155.033 82.1772 153.862 81.3403 153.053Z" fill="#666666"/>
<path d="M92.2078 163.595C89.6024 161.06 86.9944 158.529 84.3832 155.999C83.5538 155.194 82.1775 156.365 83.015 157.178C85.6262 159.708 88.2342 162.239 90.8396 164.774C91.6659 165.579 93.0453 164.408 92.2078 163.595Z" fill="#666666"/>
<path d="M92.7392 171.416C97.4393 176.067 101.865 181 106.564 185.642C107.882 186.944 111.095 189.534 112.316 186.704C113.381 184.232 110.143 181.291 108.601 179.716C104.792 175.829 100.871 172.043 96.9753 168.24C96.149 167.435 94.7728 168.606 95.6071 169.419C99.948 173.66 104.638 177.757 108.625 182.344C109.145 182.94 110.19 183.888 110.148 184.418C109.973 186.664 108.358 184.868 107.583 184.076C106.291 182.757 105.069 181.362 103.79 180.029C100.617 176.711 97.371 173.461 94.1068 170.234C93.2856 169.421 91.9094 170.592 92.7386 171.413L92.7392 171.416Z" fill="#666666"/>
<path d="M81.7778 160.77C83.6508 162.568 85.5176 164.367 87.383 166.176C88.2124 166.98 89.5887 165.81 88.7511 164.997C86.8895 163.191 85.019 161.389 83.1459 159.591C82.3145 158.794 80.9351 159.965 81.7778 160.77Z" fill="#666666"/>
<path d="M64.8119 144.677C69.1055 148.714 73.4567 152.691 77.7255 156.752C78.5595 157.546 79.9389 156.375 79.0936 155.573C74.8249 151.512 70.4769 147.534 66.18 143.498C65.3403 142.709 63.9609 143.88 64.8119 144.677Z" fill="#666666"/>
<path d="M15.6513 97.5606C30.1129 112.574 45.5928 126.617 60.7754 140.887C61.6152 141.676 62.9946 140.505 62.1436 139.708C46.961 125.438 31.4779 111.396 17.0195 96.3817C16.2169 95.5463 14.8413 96.7201 15.6513 97.5606Z" fill="#666666"/>
<path d="M48.2628 103.463C66.9932 122.077 87.0441 139.306 105.775 157.92C106.593 158.736 107.972 157.561 107.143 156.741C88.4122 138.127 68.3614 120.898 49.6309 102.284C48.8124 101.468 47.4335 102.642 48.2628 103.463Z" fill="#666666"/>
<path d="M70.5498 122.355C74.6918 112.424 78.8408 102.495 83.0041 92.5732C83.4553 91.4975 81.7547 90.8861 81.306 91.958C77.1427 101.88 72.9938 111.809 68.8517 121.739C68.4037 122.815 70.1043 123.426 70.5498 122.355Z" fill="#666666"/>
<path d="M70.7227 129.54C64.2796 144.834 57.5777 160.016 50.7546 175.142C49.0379 178.949 47.3137 182.75 45.5864 186.552C44.8506 188.173 44.0148 189.799 43.3534 191.452C43.0022 192.327 42.8017 194.199 42.1465 194.838C39.6487 197.27 42.2583 191.154 42.4822 190.58C50.8691 169.061 59.9454 147.796 68.8288 126.475C69.2763 125.397 67.5762 124.789 67.1307 125.86C58.6766 146.145 50.1466 166.408 42.0206 186.828C41.3008 188.642 37.1855 195.597 39.6244 197.581C41.4656 199.081 43.1558 196.958 43.8477 195.453C46.5773 189.511 49.0181 183.364 51.718 177.385C58.7941 161.719 65.7453 145.995 72.4208 130.155C72.8751 129.079 71.1719 128.471 70.7227 129.54Z" fill="#666666"/>
<path d="M86.8289 89.2173C82.3138 101.199 77.5705 113.092 72.6583 124.918C72.2108 125.996 73.9108 126.604 74.3563 125.533C79.2685 113.707 84.0119 101.814 88.527 89.8325C88.9394 88.7411 87.2382 88.1265 86.8289 89.2173Z" fill="#666666"/>
<path d="M108.108 165.807C115.805 173.294 123.83 180.436 132.212 187.146C133.409 188.105 136.966 192.212 139.013 190.686C140.6 189.506 139.148 187.693 138.272 186.708C134.427 182.377 129.493 178.618 125.279 174.628C121.142 170.713 117.075 166.686 112.737 162.994C111.852 162.239 110.835 163.732 111.713 164.482C119.045 170.732 125.806 177.689 132.865 184.241C134.029 185.32 135.489 186.345 136.511 187.561C138.591 190.036 135.263 187.265 134.554 186.703C133.015 185.484 131.487 184.249 129.97 183.003C122.877 177.173 116.057 171.027 109.476 164.625C108.65 163.821 107.27 164.992 108.108 165.804L108.108 165.807Z" fill="#666666"/>
<path d="M108.056 156.266C99.2203 159.592 90.5118 163.293 81.8357 167.011C79.2329 168.126 76.6356 169.253 74.046 170.405C72.3066 171.179 69.9826 171.753 68.5939 173.122C67.3675 174.327 66.9953 176.241 68.1697 177.609C69.9703 179.704 73.4889 178.603 75.6193 177.81C79.4044 176.402 83.1056 174.715 86.8525 173.207C94.8059 170.011 102.77 166.662 110.904 163.952C113.049 163.237 115.294 162.586 114.999 159.81C114.642 156.433 111.092 155.411 108.284 156.192C107.173 156.5 107.491 158.284 108.611 157.97C111.918 157.049 114.848 160.001 111.075 162.004C110.267 162.433 109.196 162.64 108.33 162.952C105.005 164.145 101.707 165.421 98.4106 166.7C91.2539 169.475 84.1476 172.365 77.0405 175.269C75.29 175.983 72.6788 177.602 70.7423 176.949C66.5844 175.549 71.9421 173.33 73.1559 172.783C77.731 170.724 82.3433 168.743 86.9672 166.789C94.2151 163.729 101.478 160.663 108.841 157.892C109.927 157.483 109.135 155.856 108.053 156.264L108.056 156.266Z" fill="#666666"/>
<path d="M76.1641 128.518C82.1636 126.33 88.1658 124.139 94.1653 121.952C95.2567 121.556 94.4618 119.929 93.3768 120.324C87.3772 122.511 81.3751 124.702 75.3755 126.889C74.2842 127.286 75.0791 128.913 76.1641 128.518Z" fill="#666666"/>
<path d="M79.3863 131.819C83.2083 130.293 87.0267 128.765 90.8488 127.239C91.9274 126.809 91.1389 125.181 90.0602 125.611C86.2381 127.137 82.4198 128.665 78.5977 130.19C77.5191 130.621 78.3076 132.249 79.3863 131.819Z" fill="#666666"/>
<path d="M48.0494 182.776C53.9706 184.721 59.8924 186.669 65.8135 188.614C66.9172 188.976 67.534 187.276 66.4272 186.914C60.506 184.969 54.5842 183.021 48.6631 181.076C47.5594 180.714 46.9426 182.415 48.0494 182.776Z" fill="#666666"/>
<path d="M50.4138 179.62C55.9589 181.346 61.5041 183.073 67.0487 184.797C68.1588 185.141 68.7756 183.441 67.6623 183.097C62.1172 181.37 56.572 179.643 51.0274 177.92C49.9172 177.575 49.3004 179.276 50.4138 179.62Z" fill="#666666"/>
<path d="M104.039 176.862C109.863 177.319 115.686 177.773 121.513 178.23C122.674 178.32 122.829 176.519 121.671 176.428C115.847 175.971 110.024 175.516 104.197 175.06C103.036 174.969 102.881 176.771 104.039 176.862Z" fill="#666666"/>
<path d="M99.4014 173.188C105.296 173.606 111.192 174.027 117.087 174.446C118.247 174.53 118.405 172.727 117.244 172.644C111.35 172.225 105.454 171.804 99.5593 171.386C98.3992 171.302 98.2413 173.104 99.4014 173.188Z" fill="#666666"/>
<path d="M55.2409 130.046C59.1753 129.238 62.927 127.95 66.5236 126.156C67.5633 125.638 66.7805 124.006 65.7351 124.528C62.2818 126.25 58.6912 127.492 54.9139 128.268C53.7761 128.5 54.1005 130.282 55.2409 130.046Z" fill="#666666"/>
<path d="M53.1715 126.614C56.9307 125.616 60.5513 124.183 64.3106 123.185C65.4268 122.888 65.1093 121.108 63.9836 121.407C60.2244 122.405 56.6038 123.838 52.8445 124.836C51.7283 125.133 52.0458 126.913 53.1715 126.614Z" fill="#666666"/>
<path d="M21.3513 44.7895C23.031 47.3445 24.7081 49.9032 26.3877 52.4581C26.7585 53.0202 27.6403 52.4597 27.2684 51.8913C25.5887 49.3363 23.9116 46.7776 22.232 44.2227C21.8612 43.6606 20.9794 44.2212 21.3513 44.7895Z" fill="#666666"/>
<path d="M25.0063 49.5741C24.7537 47.0833 24.9661 44.1054 27.1647 42.4766C29.9914 40.3797 33.2781 42.2212 33.3786 45.6412C33.4149 46.8852 33.0843 48.1378 32.4877 49.2206C32.1879 49.7721 31.8198 50.2708 31.387 50.7194C30.4546 52.0337 29.6924 51.684 29.0973 49.6709C29.1669 48.8614 31.2902 47.6742 31.9982 47.2501C33.0972 46.5942 34.2677 46.1667 35.4989 45.8391C36.1489 45.6674 35.8377 44.6666 35.1877 44.8383C33.0671 45.4013 25.5414 48.7246 27.6439 52.0182C29.9381 55.6096 33.861 49.3469 34.2558 47.3967C34.9559 43.9503 33.055 39.9437 29.0508 40.5853C24.73 41.2785 23.5814 45.8686 23.962 49.6061C24.0292 50.2729 25.0772 50.2435 25.0094 49.5735L25.0063 49.5741Z" fill="#666666"/>
<path d="M34.4929 43.1343C35.035 44.4159 35.5735 45.6949 36.1157 46.9764C36.3755 47.5915 37.3761 47.2868 37.1151 46.6653C36.5729 45.3838 36.0345 44.1047 35.4923 42.8232C35.2324 42.2081 34.2318 42.5128 34.4929 43.1343Z" fill="#666666"/>
<path d="M35.2636 40.3738L35.1994 40.1668C34.9998 39.5243 33.9998 39.8323 34.2 40.4779L34.2642 40.6849C34.4638 41.3274 35.4638 41.0195 35.2636 40.3738Z" fill="#666666"/>
<path d="M38.0855 41.5493C38.452 42.922 38.8186 44.2946 39.1857 45.6705C39.3338 46.2277 40.2997 46.0893 40.2075 45.4989C40.0416 44.4192 39.9852 43.3324 40.1277 42.2449C40.1542 42.0343 40.1876 41.8257 40.2311 41.6185C40.8675 41.1423 41.14 41.2587 41.0512 41.9641C40.968 42.4692 40.4958 42.8989 40.1632 43.2539C39.8959 43.5382 40.0487 44.0325 40.4331 44.1186C41.8846 44.4395 43.3061 44.3839 44.7264 43.9497C45.3717 43.7526 45.0605 42.7519 44.4152 42.9489C43.168 43.3317 41.9405 43.3778 40.669 43.0956L40.9388 43.9603C41.5656 43.2899 42.2781 42.4471 42.1027 41.4573C41.9824 40.7675 41.3755 40.0921 40.6488 40.0592C38.4251 39.9554 38.9761 44.3179 39.1633 45.5309C39.5051 45.4746 39.8464 45.4151 40.1851 45.3594C39.8186 43.9867 39.452 42.614 39.0849 41.2382C38.9099 40.5879 37.9105 40.899 38.0855 41.5493Z" fill="#666666"/>
<path d="M44.7724 41.1134C46.2168 41.2005 47.867 40.048 47.3531 38.4412C46.9077 37.0472 45.1702 36.6254 44.2835 37.8692C43.3037 39.2446 44.1537 41.7039 45.281 42.7799C46.3332 43.7848 48.1538 43.6297 48.6495 42.1573C48.8644 41.517 47.8437 41.2867 47.6308 41.9201C47.2945 42.9289 46.0721 42.1871 45.7218 41.6833C45.3543 41.1566 45.1032 40.4648 44.9713 39.8359C44.8611 39.3076 44.8373 38.0254 45.7708 38.1542C46.0986 38.1984 46.3767 38.6469 46.4006 38.9364C46.4676 39.8155 45.4025 40.1061 44.7394 40.0647C44.0668 40.0251 44.1061 41.0726 44.7724 41.1134Z" fill="#666666"/>
<path d="M51.3858 35.437C49.5733 35.6005 48.2383 37.7758 49.3005 39.4026C50.2226 40.8168 52.471 40.8606 53.5111 39.5819C53.9337 39.0601 53.1638 38.3494 52.7386 38.875C52.1615 39.5852 50.9608 39.6884 50.3083 38.9953C49.4727 38.104 50.3188 36.5867 51.422 36.4851C52.0923 36.4239 52.0599 35.3784 51.389 35.4365L51.3858 35.437Z" fill="#666666"/>
<path d="M52.8168 31.1211C53.204 33.4402 54.0189 35.5664 55.3182 37.5251C55.689 38.0871 56.5734 37.5229 56.1989 36.9582C55.0115 35.1651 54.2185 33.2112 53.8604 31.086C53.7496 30.4304 52.7043 30.456 52.813 31.1185L52.8168 31.1211Z" fill="#666666"/>
<path d="M53.6739 35.5707C54.5186 35.0921 55.3601 34.6141 56.2054 34.1386C56.7899 33.8059 56.2265 32.9233 55.6388 33.2567C54.7941 33.7352 53.9526 34.2132 53.1073 34.6887C52.5228 35.0215 53.0862 35.904 53.6739 35.5707Z" fill="#666666"/>
<path d="M58.076 32.0375C57.6863 33.288 57.2912 34.8464 58.221 35.9653C58.8714 36.7535 60.1466 37.1623 61.0029 36.4628C62.0413 35.6188 61.7484 33.795 61.3139 32.7091C60.8558 31.5656 59.7479 30.7897 58.5133 31.1701C57.868 31.3671 58.1792 32.3679 58.8245 32.1709C60.621 31.6185 61.3161 35.6476 59.9803 35.7789C59.1511 35.8628 58.7118 34.928 58.6906 34.2625C58.6676 33.5876 58.895 32.909 59.0947 32.2747C59.2959 31.6303 58.2746 31.3969 58.076 32.0375Z" fill="#666666"/>
<path d="M58.0087 31.4961C57.2982 32.492 57.8827 33.8442 59.0899 34.0598C60.6044 34.3332 61.5914 32.9435 62.233 31.8035C62.5653 31.2167 61.6373 30.7277 61.3049 31.3145C60.9829 31.8864 60.6361 32.5543 60.0291 32.8716C59.7761 33.003 59.4197 33.1045 59.1389 32.9961C58.8693 32.8954 58.5729 32.4895 58.7805 32.1999C59.1669 31.6586 58.3996 30.9442 58.0081 31.4929L58.0087 31.4961Z" fill="#666666"/>
<path d="M62.5207 30.1568C62.5516 32.205 63.1307 34.0774 64.2597 35.7834C64.5308 36.1939 65.2746 36.018 65.2224 35.4855C65.1193 34.4106 64.5778 33.5762 64.338 32.5558C64.1498 32.1528 64.1386 31.7369 64.308 31.3106C64.1956 30.2733 64.6707 30.1435 65.7327 30.9181C65.9708 31.6809 64.8773 32.5089 64.4002 32.9297C64.103 33.1933 64.3082 33.7237 64.6701 33.7944C67.3302 34.3208 69.899 33.535 71.817 31.6215C72.2936 31.1453 71.5212 30.4383 71.0446 30.9145C69.3968 32.5596 67.1872 33.2238 64.9066 32.7745L65.1764 33.6392C66.0853 32.8354 67.0146 31.8416 66.724 30.5268C66.5463 29.7203 65.9089 29.1093 65.0592 29.1349C61.5068 29.2362 64.0302 33.9675 64.1793 35.5238L65.1421 35.226C64.1121 33.6684 63.596 31.9967 63.5693 30.1305C63.5594 29.4564 62.5121 29.4889 62.5219 30.1631L62.5207 30.1568Z" fill="#666666"/>
</g>
<defs>
<clipPath id="clip0_62_642">
<rect width="109.665" height="200.307" fill="white" transform="translate(0 19.8309) rotate(-10.4182)"/>
</clipPath>
</defs>
</svg>
