<svg width="51" height="66" viewBox="0 0 51 66" fill="none" xmlns="http://www.w3.org/2000/svg">
<g clip-path="url(#clip0_62_698)">
<path d="M43.6609 13.7557C45.8816 11.6607 47.9834 9.48059 49.9925 7.17433C50.4361 6.66672 50.1636 5.73658 49.4156 5.76299C47.5254 5.83341 43.4753 6.88091 41.8779 5.97718C40.5211 5.21136 39.6717 1.75784 39.0541 0.402247C38.7903 -0.17872 37.9322 -0.0936287 37.6452 0.402247C36.5551 2.28892 35.9927 4.84166 34.7229 6.54935C33.2298 8.55926 28.4897 8.8028 26.182 9.46299C25.5152 9.65371 25.3703 10.6191 25.9878 10.9741C27.1243 11.6284 30.5568 12.8608 31.1946 13.9699C31.9687 15.3167 31.2758 16.4052 30.8554 17.7843C30.3713 19.3717 29.9016 20.962 29.4638 22.5641C29.2754 23.2507 30.0495 23.8698 30.6641 23.4972C32.7978 22.1944 34.8968 20.2285 37.1262 19.1692C39.7383 17.9252 42.4258 20.4339 44.7451 21.766C45.3829 22.1328 46.1019 21.5283 45.9454 20.8329C45.3452 18.1775 44.6553 15.5573 43.8725 12.9488C43.5681 11.9336 41.991 12.3678 42.2983 13.3889C43.081 15.9945 43.771 18.6176 44.3711 21.273C44.7712 20.962 45.1713 20.651 45.5714 20.34C43.3188 19.0431 41.069 17.7491 38.8164 16.4522C38.5845 16.3202 38.2192 16.2761 37.9931 16.4522C35.3694 18.4797 32.6703 20.3458 29.8436 22.0682C30.2437 22.3792 30.6438 22.6903 31.0439 23.0013C31.8498 20.0524 32.7572 17.13 33.6995 14.2222C33.8096 13.8819 33.627 13.4623 33.3255 13.2892C31.1569 12.0421 28.9884 10.7922 26.8169 9.54514C26.7532 10.0498 26.6865 10.5516 26.6227 11.0562C28.5071 10.5164 30.3974 10.0087 32.3079 9.57742C33.1022 9.39843 34.804 9.34562 35.4592 8.8292C35.9028 8.48004 36.2188 7.1978 36.3029 6.98947C37.1117 5.0001 37.9873 3.08995 39.0599 1.23555H37.651C38.5816 3.28067 39.4455 5.34927 40.2602 7.44721C40.379 7.75823 40.6719 8.09566 41.0487 8.05458C43.8377 7.73476 46.6209 7.51763 49.4243 7.41493C49.233 6.94546 49.0387 6.47599 48.8474 6.00359C46.8412 8.30692 44.7393 10.4899 42.5157 12.5849C41.7445 13.3126 42.9013 14.4775 43.6696 13.7528L43.6609 13.7557Z" fill="#666666"/>
<path d="M39.315 56.7049C37.5842 53.4831 35.7781 50.3054 33.8618 47.1893C32.821 45.4992 30.8148 43.5686 31.3685 41.4149C31.7222 40.0446 33.3805 38.3399 34.1575 37.128C35.1664 35.5553 38.9816 31.3888 38.5989 29.2204C38.5206 28.7803 37.9901 28.5338 37.5958 28.6424C35.4592 29.2322 33.3196 29.8219 31.1859 30.4293C29.4319 30.9281 26.5705 32.4216 24.7962 32.3248C23.0509 32.228 22.4102 30.6523 21.4245 29.4053C19.8706 27.4365 18.2703 25.5087 16.641 23.6044C16.2554 23.1526 15.3856 23.3726 15.2755 23.9683C14.6696 27.2575 14.8029 35.1533 11.8893 36.9901C8.29439 39.2524 4.05877 40.6608 0.388481 42.9025C-0.240628 43.2869 -0.0666811 44.1789 0.582722 44.4136C3.76886 45.5521 11.8835 46.89 12.4633 50.4257C13.2171 55.0559 12.4633 60.4254 12.7503 65.1553C12.8141 66.2145 14.3362 66.2233 14.3825 65.1553C14.4405 63.8173 17.1309 61.4817 17.9427 60.4313C19.3748 58.5857 20.6157 56.4261 22.2015 54.7302C23.3698 53.4802 23.5467 53.0166 25.4427 53.2954C26.7067 53.4831 28.0316 54.2196 29.2493 54.6539C32.2933 55.7425 35.3403 56.831 38.3844 57.9167C39.3759 58.2717 39.805 56.6755 38.8193 56.3234C33.7429 54.5101 28.6694 52.6968 23.5931 50.8835C23.2307 50.7544 22.8741 50.9774 22.6711 51.262C20.2156 54.7214 17.7252 58.1602 15.0522 61.4524C14.0491 62.6877 12.8199 63.5268 12.7503 65.1524H14.3825C14.0318 59.4659 13.9709 53.7912 14.168 48.0989C14.1825 47.7175 13.9013 47.4211 13.5679 47.3008C9.38446 45.8073 5.20103 44.3109 1.01469 42.8174C1.07847 43.3221 1.14515 43.8238 1.20893 44.3285C5.43006 41.7464 9.82223 39.5927 14.3941 37.7207C14.7681 37.5682 14.9479 37.3246 14.9943 36.9226C15.4697 32.7238 16.0785 28.5602 16.8468 24.4054C16.3916 24.5258 15.9365 24.649 15.4813 24.7693C18.0441 27.768 20.5084 30.8342 22.8915 33.9797C23.1089 34.2672 23.4394 34.4785 23.8134 34.3582C28.5187 32.8735 33.2674 31.5414 38.022 30.2298C37.6886 30.0361 37.3523 29.8454 37.0189 29.6518C36.8826 28.8713 36.6362 30.0801 36.326 30.5261C35.7346 31.3741 35.2446 32.3189 34.6967 33.1992C32.8703 36.1304 30.98 39.0206 29.0753 41.9019C28.9217 42.1337 28.9246 42.5035 29.0753 42.7353C32.2295 47.5414 35.1751 52.465 37.9002 57.5323C38.4018 58.4654 39.8137 57.635 39.3092 56.699L39.315 56.7049Z" fill="#666666"/>
</g>
<defs>
<clipPath id="clip0_62_698">
<rect width="50.2041" height="65.9544" fill="white"/>
</clipPath>
</defs>
</svg>
