<svg width="197" height="75" viewBox="0 0 197 75" fill="none" xmlns="http://www.w3.org/2000/svg">
<g clip-path="url(#clip0_62_866)">
<path d="M156.148 47.1316C156.675 34.7956 166.141 27.9067 177.92 28.9158C178.958 29.0041 178.895 27.3665 177.866 27.278C165.125 26.1869 155.09 34.0321 154.526 47.1876C154.48 48.2404 156.104 48.1843 156.148 47.1345L156.148 47.1316Z" fill="#666666"/>
<path d="M23.0795 31.9114C23.0795 31.9114 15.3977 41.9569 25.6779 43.5364C35.9582 45.1158 35.9464 26.8886 27.5098 22.6103C19.0733 18.3319 6.85757 25.3633 3.05468 43.6048C-0.74533 61.8463 3.26143 71.8321 13.2175 72.4087C23.1737 72.9853 25.0713 71.0535 27.9276 68.2806C22.1642 69.4596 14.3046 69.7637 11.4325 61.4939C8.56337 53.224 12.8693 38.5422 17.1339 34.1302C21.3986 29.7183 23.0795 31.9114 23.0795 31.9114Z" fill="#666666"/>
<path d="M48.3854 8.54569C48.3854 8.54569 49.2779 35.6992 75.7838 36.6363C102.29 37.5764 118.412 24.6189 140.168 23.0732C161.924 21.5275 169.655 23.0303 180.421 31.5075C180.421 31.5075 188.895 32.7034 193.283 40.8624C193.283 40.8624 194.226 32.5783 180.695 24.5557C167.164 16.5303 148.43 14.0134 124.756 20.829C101.082 27.6445 81.3342 32.389 73.2596 22.4346C65.188 12.4859 66.6342 4.16776 66.6342 4.16776L48.3825 8.54579L48.3854 8.54569Z" fill="#666666"/>
<path d="M52.6168 8.04232C53.4332 19.845 61.4888 30.1001 72.8145 33.311C83.3484 36.2975 94.5248 33.5433 104.655 30.2905C120.999 25.046 138.175 20.1673 155.495 21.0443C166.145 21.5836 177.032 24.8672 183.611 33.8834C184.073 34.5177 185.107 33.8694 184.642 33.2294C173.751 18.3057 152.928 18.4783 136.55 20.9806C128.229 22.2521 120.039 24.2911 111.978 26.7102C104.368 28.9923 96.9101 31.7965 88.9946 32.8596C80.9528 33.9414 72.3582 33.291 65.4619 28.5837C58.6718 23.9485 54.4014 16.2138 53.8353 8.0024C53.7807 7.21497 52.565 7.25189 52.6197 8.04222L52.6168 8.04232Z" fill="white"/>
<path d="M61.7182 6.03793C62.7724 22.5477 79.0499 33.4333 94.5126 27.8944C95.2479 27.6315 94.8922 26.4549 94.1511 26.7209C79.4581 31.9842 63.9394 21.729 62.9339 6.00101C62.8822 5.2135 61.6665 5.25041 61.7183 6.04084L61.7182 6.03793Z" fill="white"/>
<path d="M54.5941 11.9791C56.9857 11.0416 59.3772 10.1013 61.7717 9.16371C62.4977 8.87783 62.1419 7.7013 61.4103 7.99028C59.0187 8.92774 56.6272 9.86811 54.2327 10.8057C53.5067 11.0915 53.8625 12.2681 54.5941 11.9791Z" fill="white"/>
<path d="M58.5475 21.8304C60.9153 20.6957 63.2831 19.561 65.6509 18.4262C66.3579 18.0886 65.7039 17.0499 65.0026 17.3845C62.6348 18.5192 60.2669 19.6539 57.8991 20.7887C57.1921 21.1263 57.8461 22.165 58.5475 21.8304Z" fill="white"/>
<path d="M66.4767 29.4611C68.1308 28.1052 69.7876 26.7462 71.4417 25.3903C72.0427 24.8988 71.3999 23.8511 70.7933 24.3485C69.1393 25.7045 67.4824 27.0635 65.8283 28.4194C65.2273 28.9109 65.8672 29.9587 66.4767 29.4611Z" fill="white"/>
<path d="M76.8597 33.5594C77.5891 31.8813 78.3156 30.2034 79.045 28.5254C79.3588 27.8045 78.2897 27.2134 77.9733 27.9402C77.2439 29.6182 76.5174 31.2962 75.788 32.9742C75.4742 33.6951 76.5432 34.2862 76.8597 33.5594Z" fill="white"/>
<path d="M87.7788 32.634C88.0444 31.5886 88.3101 30.5431 88.5757 29.4977C88.7698 28.7312 87.5867 28.4438 87.3926 29.2103C87.127 30.2557 86.8613 31.3012 86.5957 32.3466C86.4016 33.1131 87.5847 33.4005 87.7788 32.634Z" fill="white"/>
<path d="M98.7034 30.7337C98.3593 29.5626 98.0124 28.3916 97.6683 27.2176C97.4445 26.459 96.2827 26.8232 96.5065 27.5818C96.8506 28.7529 97.1975 29.9239 97.5416 31.0979C97.7655 31.8565 98.9272 31.4923 98.7034 30.7337Z" fill="white"/>
<path d="M105.279 26.6274L106.397 28.3556C106.825 29.0172 107.857 28.366 107.428 27.7015C107.055 27.1255 106.684 26.5493 106.31 25.9733C105.882 25.3117 104.851 25.9629 105.279 26.6274Z" fill="white"/>
<path d="M112.971 24.3805C113.175 24.8806 113.382 25.3776 113.586 25.8777C113.883 26.6018 115.048 26.2462 114.747 25.5134C114.544 25.0134 114.337 24.5163 114.133 24.0163C113.835 23.2922 112.671 23.6478 112.971 24.3805Z" fill="white"/>
<path d="M121.781 22.3611C122.072 22.8554 122.359 23.3469 122.649 23.8412C123.049 24.5212 124.08 23.87 123.68 23.1871C123.39 22.6928 123.103 22.2013 122.812 21.707C122.412 21.027 121.381 21.6782 121.781 22.3611Z" fill="white"/>
<path d="M131.926 19.1817L132.594 21.4459C132.818 22.2045 133.98 21.8402 133.756 21.0817C133.532 20.326 133.311 19.5731 133.087 18.8174C132.864 18.0589 131.702 18.4231 131.926 19.1817Z" fill="white"/>
<path d="M143.481 17.4246C143.529 18.1045 143.578 18.7873 143.626 19.4672C143.68 20.2546 144.899 20.2176 144.841 19.4273C144.793 18.7475 144.745 18.0647 144.697 17.3848C144.642 16.5974 143.423 16.6344 143.481 17.4246Z" fill="white"/>
<path d="M153.305 16.7972C153.12 17.6682 152.933 18.5392 152.748 19.4102C152.583 20.1845 153.766 20.4719 153.931 19.6976C154.116 18.8266 154.303 17.9556 154.488 17.0846C154.653 16.3103 153.47 16.0229 153.305 16.7972Z" fill="white"/>
<path d="M161.87 17.5916C161.573 18.2099 161.279 18.8311 160.982 19.4495C160.642 20.1625 161.711 20.7478 162.054 20.0347C162.351 19.4163 162.645 18.7951 162.942 18.1767C163.282 17.4638 162.213 16.8785 161.87 17.5916Z" fill="white"/>
<path d="M169.355 18.8726C168.819 19.6823 168.283 20.489 167.747 21.2987C167.31 21.9566 168.385 22.5359 168.819 21.8839C169.355 21.0742 169.891 20.2674 170.426 19.4578C170.863 18.7998 169.789 18.2206 169.355 18.8726Z" fill="white"/>
<path d="M175.925 25.1529C176.895 24.562 177.867 23.971 178.837 23.38C179.507 22.9708 178.862 21.929 178.189 22.3383C177.219 22.9292 176.246 23.5203 175.277 24.1112C174.607 24.5205 175.252 25.5623 175.925 25.1529Z" fill="white"/>
<path d="M182.217 29.2813C183.242 28.0829 184.55 27.3411 186.092 27.0576C186.86 26.9159 186.493 25.7427 185.73 25.8841C184.005 26.2028 182.474 27.1004 181.33 28.4425C180.819 29.0417 181.706 29.8834 182.22 29.2842L182.217 29.2813Z" fill="white"/>
<path d="M186.696 35.125C187.374 34.4126 188.244 34.0492 189.219 34.0463C190.003 34.044 189.963 32.8163 189.179 32.8187C187.89 32.8231 186.696 33.3485 185.806 34.2834C185.263 34.8545 186.153 35.6961 186.696 35.125Z" fill="white"/>
<path d="M22.2683 71.4947C26.8544 70.7329 31.043 69.0172 34.8111 66.2611C35.6531 65.6453 34.7943 64.2522 33.9467 64.8741C30.4292 67.4473 26.5082 69.1425 22.2147 69.8569C21.1994 70.027 21.2387 71.6653 22.2683 71.4947Z" fill="#666666"/>
<path d="M41.4304 50.6325C41.0324 48.607 35.6846 48.4735 34.8167 50.59C33.9488 52.7065 32.4605 66.9553 34.6293 69.6043C37.411 73.002 41.7834 70.1212 43.9002 67.6609C43.9002 67.6609 39.9062 68.715 40.413 65.0843C40.9198 61.4536 41.8256 52.6611 41.4304 50.6325Z" fill="#666666"/>
<path d="M42.1771 69.3683C44.4847 68.3317 46.3277 66.5822 47.3905 64.2555C47.8264 63.3006 46.4022 62.5173 45.9635 63.4752C45.0862 65.391 43.6143 66.9391 41.6932 67.8029C40.7526 68.2268 41.2222 69.7986 42.1771 69.3683Z" fill="#666666"/>
<path d="M48.0442 50.6751C46.9249 51.2767 45.7235 68.3001 46.8072 69.249C47.8908 70.1978 51.9558 70.1666 52.6443 69.0898C53.33 68.0131 52.9387 58.8 53.5534 56.7005C54.1681 54.604 52.4536 48.3057 48.0441 50.6721L48.0442 50.6751Z" fill="#666666"/>
<path d="M39.2845 38.2034C34.892 40.8256 37.403 47.5812 42.552 44.9022C47.704 42.226 43.6768 35.5782 39.2845 38.2034Z" fill="#666666"/>
<path d="M53.7489 58.0896C54.7015 56.6226 55.7128 55.0111 57.2397 54.0874C58.843 53.1175 61.1022 53.1571 62.104 54.9531C62.6187 55.874 63.9915 54.999 63.4769 54.0811C62.3893 52.1306 60.0797 51.4345 57.9843 51.9924C55.3513 52.6931 53.7272 55.1402 52.3219 57.3092C51.7481 58.193 53.1807 58.9673 53.7489 58.0896Z" fill="#666666"/>
<path d="M58.1252 53.0418C59.8231 55.4878 57.9212 68.2037 59.7644 69.1015C61.6076 69.9963 65.8889 69.4367 66.7937 67.8315C63.9378 67.0077 65.3527 58.1781 63.8172 54.4367C62.2816 50.6953 58.1253 53.0447 58.1253 53.0447L58.1252 53.0418Z" fill="#666666"/>
<path d="M63.5316 68.8649C65.7479 69.002 67.8274 67.7806 68.8733 65.8185C69.3677 64.8878 67.9406 64.1075 67.4463 65.0381C66.6503 66.532 65.1394 67.3299 63.4779 67.2271C62.4348 67.1623 62.4972 68.8027 63.5316 68.8649Z" fill="#666666"/>
<path d="M80.0073 47.9512C80.0073 47.9512 69.4241 45.84 68.2063 55.4058C66.9884 64.9716 67.7702 68.9415 72.6108 69.1703C77.4513 69.3961 83.9726 63.6259 83.9726 63.6259C83.9726 63.6259 75.2109 68.2609 74.9446 60.8347C74.6753 53.4086 80.0074 47.9541 80.0074 47.9541L80.0073 47.9512Z" fill="#666666"/>
<path d="M74.7919 60.3119C78.147 59.2963 82.0835 57.72 82.9518 53.8561C83.6062 50.9458 81.5654 48.0684 78.5721 48.0674C77.5282 48.0667 77.5819 49.7045 78.6258 49.7052C82.1209 49.7072 81.8159 53.9516 80.0612 55.8467C78.5572 57.4715 76.3497 58.1292 74.3052 58.7466C73.3057 59.0472 73.7839 60.6158 74.789 60.312L74.7919 60.3119Z" fill="#666666"/>
<path d="M78.3771 67.2856C82.7787 65.3825 86.7036 62.132 89.1533 57.9513C89.6859 57.0427 88.2561 56.2654 87.7263 57.171C85.5031 60.9598 81.8911 63.9933 77.8932 65.7202C76.9435 66.1299 77.4131 67.7016 78.3771 67.2856Z" fill="#666666"/>
<path d="M87.5662 50.1793C86.4409 51.5674 86.1692 64.3988 87.5051 66.3587C88.8411 68.3185 93.0994 67.5004 94.1486 65.3722C95.1977 63.2439 94.7412 49.9238 93.7321 49.2259C92.723 48.528 88.6664 48.8152 87.5633 50.1793L87.5662 50.1793Z" fill="#666666"/>
<path d="M92.8641 55.9135C94.6288 52.5648 97.3318 50.6591 101.155 50.8017C102.2 50.8403 102.14 49.2027 101.101 49.1639C96.7238 48.9986 93.4543 51.3074 91.4371 55.1332C90.9457 56.0666 92.3727 56.8469 92.8641 55.9135Z" fill="#666666"/>
<path d="M97.5905 50.2818C97.5905 50.2818 99.9562 51.4565 100.2 54.9345C100.444 58.4124 99.5126 65.4672 101.538 65.861C103.564 66.2547 107.54 65.973 107.671 63.8108C107.805 61.6513 107.583 50.3767 102.944 49.3637C98.3059 48.3508 97.5877 50.2819 97.5877 50.2819L97.5905 50.2818Z" fill="#666666"/>
<path d="M108.232 49.7819C108.232 49.7819 110.598 50.9566 110.842 54.4346C111.085 57.9125 109.686 63.2411 112.325 64.5933C114.962 65.9456 117.781 66.2609 120.293 62.2296C113.753 63.2069 118.228 49.8767 113.589 48.8637C108.951 47.8508 108.232 49.7819 108.232 49.7819Z" fill="#666666"/>
<path d="M105.11 53.2364C106.305 51.5228 108.283 50.7241 110.317 50.905C111.355 50.9991 111.292 49.3587 110.263 49.2672C107.619 49.0305 105.189 50.2925 103.68 52.4562C103.08 53.3175 104.512 54.0889 105.107 53.2365L105.11 53.2364Z" fill="#666666"/>
<path d="M117.359 64.303C119.553 64.1001 121.388 63.0032 122.662 61.1996C123.268 60.341 121.832 59.5697 121.234 60.4193C120.317 61.7191 118.872 62.5207 117.305 62.6652C116.27 62.7602 116.315 64.3983 117.359 64.303Z" fill="#666666"/>
<path d="M135.568 48.0503C135.568 48.0503 130.312 42.0049 125.196 48.7862C120.081 55.5675 120.853 62.9596 123.997 64.2778C127.14 65.5959 129.996 66.4197 133.122 63.8856C130.573 63.8089 127.16 62.255 127.795 56.8174C128.43 51.3799 133.741 51.002 133.741 51.002L135.568 48.0474L135.568 48.0503Z" fill="#666666"/>
<path d="M129.642 65.4809C132.112 65.5427 134.297 64.3441 135.71 62.3262C136.313 61.4648 134.878 60.6935 134.283 61.5459C133.197 63.0987 131.447 63.8928 129.588 63.846C128.544 63.8191 128.6 65.4568 129.642 65.4838L129.642 65.4809Z" fill="#666666"/>
<path d="M141.24 49.1863C141.838 46.8341 136.146 45.4392 134.555 48.121C132.276 51.8768 131.877 60.6353 135.85 62.9193C139.824 65.2034 143.024 63.6919 143.024 63.6919C143.024 63.6919 139.176 63.1948 139.341 58.3055C139.507 53.4163 140.645 51.5385 141.243 49.1833L141.24 49.1863Z" fill="#666666"/>
<path d="M139.286 63.9244C145.635 68.2187 153.053 63.8316 156.531 58.0388C157.075 57.1356 155.642 56.3584 155.104 57.2585C152.049 62.3414 145.64 66.2586 140.058 62.4838C139.188 61.8949 138.425 63.3411 139.286 63.9244Z" fill="#666666"/>
<path d="M165.823 31.8223C157.346 36.3402 152.767 45.2647 154.666 54.8857C156.198 62.649 161.426 67.0674 169.054 68.3027C177.313 69.6426 186.094 66.8154 191.176 59.9071C196.339 52.8942 197.263 43.4313 191.019 36.8038C184.766 30.1707 174.039 27.9711 165.823 31.8194C164.88 32.2609 165.75 33.6477 166.687 33.2064C175.031 29.2957 186.86 32.4581 191.799 40.4563C197.774 50.1301 190.021 62.5834 180.358 65.8385C173.524 68.1388 162.833 67.4144 158.529 60.6593C152.291 50.8747 157.107 38.3109 166.687 33.2064C167.611 32.7131 166.744 31.3291 165.823 31.8194L165.823 31.8223Z" fill="#666666"/>
<path d="M171.072 40.0258C172.304 40.5853 173.167 41.9229 172.838 43.3199C172.493 44.7815 170.793 45.705 169.389 45.2734C168.081 44.8707 167.223 43.332 167.54 41.9879C167.892 40.4969 169.497 39.6842 170.915 39.9843C171.937 40.2013 172.317 38.6075 171.295 38.3905C169.085 37.9213 166.637 39.1547 166.002 41.4354C165.401 43.5985 166.694 46.0956 168.808 46.8068C170.934 47.5206 173.427 46.3322 174.246 44.229C175.094 42.049 173.91 39.5164 171.846 38.5822C170.898 38.1531 170.12 39.591 171.074 40.0228L171.072 40.0258Z" fill="#666666"/>
<path d="M163.659 51.1486C166.655 50.0282 169.145 54.1169 166.306 55.9835C163.48 57.8409 160.576 53.6027 163.156 51.4621C163.95 50.8012 163.097 49.4051 162.291 50.0751C160.562 51.5092 159.898 54.0588 161.166 56.0529C162.34 57.8928 164.977 58.5723 166.879 57.5403C168.842 56.4741 169.705 53.8598 168.776 51.8109C167.822 49.7075 165.269 48.8039 163.175 49.586C162.2 49.9499 162.676 51.5186 163.659 51.1515L163.659 51.1486Z" fill="#666666"/>
<path d="M172.055 55.6996C170.161 56.6032 169.174 59.0207 170.048 60.984C170.901 62.9014 173.295 63.8801 175.22 63.0628C177.103 62.2614 178.113 59.9073 177.415 57.9673C176.676 55.9151 174.303 54.9474 172.317 55.5832C171.323 55.9012 171.802 57.4669 172.8 57.1487C173.953 56.7819 175.379 57.2594 175.868 58.4548C176.354 59.6417 175.655 61.1993 174.455 61.6114C173.317 62.001 171.905 61.3396 171.485 60.2031C171.013 58.9255 171.781 57.6335 172.923 57.0894C173.865 56.6392 172.992 55.2553 172.058 55.7024L172.055 55.6996Z" fill="#666666"/>
<path d="M183.644 52.503C186.854 52.5318 187.392 57.4096 184.096 57.7651C180.783 58.1212 180.286 53.3527 183.376 52.5292C184.386 52.2603 183.905 50.6947 182.893 50.9637C180.774 51.5282 179.199 53.6999 179.639 55.9454C180.061 58.0924 182.215 59.6731 184.365 59.3901C186.513 59.1071 188.185 56.9846 188.034 54.8142C187.872 52.5101 185.774 50.8868 183.59 50.8681C182.546 50.8586 182.6 52.4964 183.644 52.5059L183.644 52.503Z" fill="#666666"/>
<path d="M183.053 40.0078C180.953 39.366 178.691 41.0069 178.535 43.2108C178.368 45.581 180.475 47.5912 182.722 47.7768C185.105 47.9754 187.458 46.3053 187.539 43.7778C187.622 41.2764 185.288 39.5007 182.936 40.2155C181.936 40.5191 182.417 42.0876 183.419 41.781C185.013 41.2949 186.325 42.807 185.805 44.3733C185.352 45.7453 183.813 46.3927 182.465 46.0903C181.367 45.8467 180.23 44.8502 180.15 43.6529C180.058 42.2639 181.373 41.2015 182.672 41.6016C183.674 41.9095 184.049 40.313 183.053 40.0078Z" fill="#666666"/>
<path d="M173.267 47.9029C172.306 48.5693 171.926 49.901 172.517 50.9533C173.098 51.9856 174.497 52.3271 175.514 51.7871C176.54 51.2438 177.025 49.9378 176.463 48.8758C175.9 47.8167 174.516 47.5475 173.532 48.1389C172.635 48.6779 173.497 50.0679 174.396 49.5259C174.996 49.1656 175.366 50.0941 174.723 50.3568C174.023 50.6448 173.506 49.7211 174.132 49.29C174.989 48.694 174.13 47.3039 173.267 47.9029Z" fill="#666666"/>
<path d="M168.668 45.6953C171.118 45.1287 173.049 42.989 173.338 40.4605C173.457 39.4228 171.878 39.0318 171.76 40.0754C171.528 42.0895 170.147 43.6753 168.187 44.1297C167.171 44.364 167.655 45.9295 168.671 45.6952L168.668 45.6953Z" fill="#666666"/>
<path d="M180.221 46.3547C183.161 46.7534 185.886 44.4538 185.922 41.4297C185.934 40.3751 184.312 40.4311 184.301 41.4828C184.279 43.3678 182.479 45.0168 180.602 44.7609C179.573 44.6227 179.187 46.2138 180.221 46.3547Z" fill="#666666"/>
<path d="M181.521 58.3912C184.474 58.2275 186.852 55.645 186.783 52.6535C186.76 51.6001 185.135 51.6504 185.161 52.7067C185.21 54.7961 183.54 56.636 181.467 56.7534C180.425 56.8108 180.476 58.4487 181.521 58.3912Z" fill="#666666"/>
<path d="M171.339 61.1213C173.54 61.4161 175.639 60.4271 176.757 58.4713C177.281 57.5542 175.851 56.7769 175.33 57.6909C174.602 58.9641 173.176 59.7243 171.719 59.5275C170.694 59.3892 170.305 60.9833 171.339 61.1213Z" fill="#666666"/>
<path d="M161.764 55.1837C164.407 56.4833 167.577 55.5437 169.118 53.0207C169.668 52.1203 168.236 51.346 167.691 52.2404C166.627 53.9847 164.358 54.6386 162.538 53.743C161.6 53.2816 160.826 54.7223 161.766 55.1836L161.764 55.1837Z" fill="#666666"/>
</g>
<defs>
<clipPath id="clip0_62_866">
<rect width="193.926" height="67.9232" fill="white" transform="translate(0 6.3501) rotate(-1.87647)"/>
</clipPath>
</defs>
</svg>
