<svg width="92" height="114" viewBox="0 0 92 114" fill="none" xmlns="http://www.w3.org/2000/svg">
<g clip-path="url(#clip0_62_943)">
<path d="M37.308 28.214C30.9238 28.1044 22.6098 27.364 20.9428 19.7916C19.221 11.9769 26.266 4.49353 33.2013 2.14913C39.6198 -0.0193251 47.2639 1.95262 50.7761 8.05584C54.3112 14.2002 50.1222 22.1817 43.786 24.4735C43.0131 24.7523 43.3469 25.9976 44.129 25.7143C50.6023 23.3744 55.4636 15.4341 52.5665 8.74362C49.4728 1.6053 41.026 -1.40175 33.8164 0.611333C26.1037 2.76608 18.4253 10.5031 19.5137 19.0284C20.6593 27.9992 29.8766 29.3725 37.3057 29.5005C38.1358 29.5142 38.1358 28.2277 37.3057 28.214H37.308Z" fill="#666666"/>
<path d="M36.894 29.1328C38.3026 30.9883 39.1532 33.047 39.3841 35.3686C39.4573 36.1066 40.3742 36.2232 40.6486 35.54C41.9657 32.2541 43.2828 28.966 44.5999 25.6802C44.9086 24.9125 43.6624 24.5766 43.3582 25.3375C42.0412 28.6233 40.7241 31.9114 39.407 35.1972C39.8277 35.2543 40.2507 35.3115 40.6715 35.3686C40.4177 32.8071 39.5648 30.5358 38.0053 28.4839C37.5114 27.8327 36.3932 28.4725 36.894 29.1328Z" fill="#666666"/>
<path d="M27.8346 14.2643C29.0397 13.7982 30.2447 13.3298 31.4475 12.8636C31.1754 12.658 30.9033 12.4501 30.6334 12.2421C31.0107 15.4023 31.4315 18.5556 31.9002 21.7043C32.0214 22.52 33.263 22.1727 33.1418 21.3615C32.6914 18.3271 32.2867 15.288 31.9231 12.2398C31.8796 11.8697 31.5412 11.4515 31.1091 11.6183C29.904 12.0845 28.699 12.5529 27.4962 13.019C26.7325 13.3161 27.0641 14.5591 27.8392 14.2598L27.8346 14.2643Z" fill="#666666"/>
<path d="M26.6661 13.8279C26.6341 16.9972 27.1211 20.0682 28.1432 23.0707C28.2484 23.3769 28.5937 23.6488 28.9344 23.5209C30.0388 23.1073 31.1433 22.6937 32.2477 22.2801C33.016 21.9922 32.6844 20.7492 31.9047 21.0394C30.8003 21.453 29.6959 21.8665 28.5914 22.2801C28.8544 22.4309 29.1196 22.5795 29.3826 22.7303C28.3993 19.8375 27.9214 16.8875 27.9512 13.8302C27.9603 13.003 26.6707 13.0008 26.6638 13.8302L26.6661 13.8279Z" fill="#666666"/>
<path d="M32.5404 14.0902C34.1616 12.7124 34.9985 10.697 35.952 8.84844C36.2081 8.35031 36.4642 7.84304 36.7683 7.37005C37.2828 6.5703 38.3529 6.36237 38.4513 7.63739C38.545 8.85072 37.9642 9.91553 38.1974 11.1608C38.3506 11.9743 39.5923 11.6293 39.4391 10.8181C39.1418 9.23917 40.2394 7.70366 39.3385 6.19328C38.7874 5.27014 37.747 4.90911 36.7958 5.46436C35.673 6.11787 35.0877 7.70594 34.5366 8.80274C33.7477 10.3702 32.9931 12.0246 31.6326 13.1808C30.9992 13.7178 31.9139 14.6249 32.5427 14.0902H32.5404Z" fill="#666666"/>
<path d="M39.2538 11.9432C40.9642 10.2935 43.7012 11.3469 44.2363 13.5633C44.6868 15.4347 43.7515 17.2261 42.3407 18.3892C39.7706 20.5051 36.2378 20.4183 33.0914 20.3566C33.2972 20.5142 33.5053 20.6719 33.7133 20.8296C33.7042 20.8707 33.6928 20.9118 33.6836 20.953C34.2576 20.3566 33.3498 19.4449 32.7736 20.0435C32.394 20.4366 32.3391 20.6331 32.4717 21.1723C32.5403 21.4511 32.8147 21.6385 33.0937 21.6453C37.7263 21.7344 44.8125 21.1837 45.574 15.2748C46.0884 11.2737 41.577 7.9148 38.3437 11.0361C37.7469 11.6119 38.657 12.5213 39.2538 11.9455V11.9432Z" fill="#666666"/>
<path d="M41.1084 13.8534C42.1145 13.5176 43.1206 13.1839 44.1267 12.8481C44.9087 12.5876 44.5726 11.3445 43.7837 11.6073C42.7776 11.9432 41.7715 12.2768 40.7654 12.6127C39.9834 12.8732 40.3195 14.1162 41.1084 13.8534Z" fill="#666666"/>
<path d="M41.9132 16.0644C42.853 15.7971 43.7905 15.5275 44.7303 15.2601C45.526 15.0339 45.1876 13.7909 44.3873 14.0194C43.4475 14.2867 42.51 14.5563 41.5702 14.8237C40.7745 15.0499 41.1129 16.2929 41.9132 16.0644Z" fill="#666666"/>
<path d="M41.9178 18.2933C42.5901 18.163 43.26 18.0351 43.9323 17.9048C44.744 17.7472 44.4011 16.5087 43.5893 16.6641C42.917 16.7943 42.2471 16.9223 41.5748 17.0525C40.7631 17.2102 41.1061 18.4487 41.9178 18.2933Z" fill="#666666"/>
<path d="M0.818422 47.209C0.1736 51.5894 -0.693022 56.5158 0.916746 60.7522C2.19267 64.1088 3.47545 67.4632 4.7651 70.8153C8.59287 80.7596 12.4504 90.697 16.5388 100.536C17.9611 103.961 19.3513 107.43 21.032 110.739C21.7728 112.199 22.1387 113.222 23.8582 113.204C27.032 113.17 30.4459 112.039 33.5077 111.333C38.712 110.135 43.8934 108.833 49.0657 107.51C57.2106 105.428 65.3418 103.283 73.4523 101.073C73.7542 100.991 73.8891 100.737 73.9257 100.452C74.1429 98.6693 74.3624 96.8871 74.5796 95.1048C74.6802 94.2844 73.3906 94.2913 73.2923 95.1048C73.1665 96.1261 72.8761 97.2846 72.899 98.3129C72.8715 97.0607 72.5468 100.488 73.0682 99.8438C72.9744 99.9604 72.5926 99.9329 72.4645 100.008C71.543 100.545 70.0179 100.669 68.9935 100.945C64.825 102.065 60.6496 103.173 56.4743 104.265C47.097 106.717 37.7013 109.244 28.2005 111.182C26.513 111.527 23.8171 112.487 22.8727 111.449C21.0571 109.455 20.0968 105.682 19.0632 103.251C15.0594 93.848 11.3619 84.3105 7.67137 74.782C6.0273 70.5388 4.39695 66.291 2.77804 62.0409C2.4099 61.0744 1.88855 60.0644 1.64389 59.0567C0.79327 55.5447 1.5387 51.0775 2.06005 47.5518C2.17895 46.7406 0.939612 46.391 0.818422 47.209Z" fill="#666666"/>
<path d="M1.05635 47.4775C7.27134 67.2358 14.6388 86.6057 23.1152 105.505C23.4536 106.259 24.5626 105.605 24.2265 104.856C15.7935 86.0573 8.47638 66.7879 2.29569 47.137C2.04874 46.3487 0.804827 46.6869 1.05407 47.4798L1.05635 47.4775Z" fill="#666666"/>
<path d="M24.6815 106.441C41.1839 103.804 57.4508 100.082 73.4959 95.4208C74.2893 95.1901 73.9532 93.947 73.1529 94.1801C57.1055 98.8415 40.8409 102.564 24.3385 105.201C23.5222 105.331 23.8698 106.572 24.6815 106.441Z" fill="#666666"/>
<path d="M23.5382 105.369C23.2272 107.508 22.914 109.646 22.603 111.783C22.4841 112.594 23.7257 112.944 23.8446 112.126C24.1556 109.987 24.4689 107.848 24.7798 105.712C24.8987 104.901 23.6571 104.551 23.5382 105.369Z" fill="#666666"/>
<path d="M1.86803 47.6978C17.5838 43.0524 33.5192 39.2205 49.6329 36.218C50.4469 36.0672 50.1016 34.8265 49.2899 34.9773C33.1785 37.9798 17.2431 41.8094 1.52733 46.4571C0.733875 46.6924 1.07229 47.9332 1.87032 47.6978H1.86803Z" fill="#666666"/>
<path d="M48.7457 35.6058C55.4568 55.8828 65.0194 75.0676 72.7047 94.9699C72.9996 95.7353 74.2458 95.4017 73.9463 94.6271C66.261 74.7248 56.6985 55.54 49.9873 35.263C49.7289 34.4816 48.485 34.8152 48.7457 35.6058Z" fill="#666666"/>
<path d="M52.1024 43.3958C66.2656 39.877 82.3404 45.041 88.377 59.1486C93.8169 71.86 87.0142 87.5076 72.8487 90.0622C72.1307 90.1925 72.3022 91.3464 73.0202 91.3258C73.3061 91.3167 73.5919 91.3098 73.8777 91.3007C74.7055 91.2779 74.7077 89.9914 73.8777 90.0143C73.5919 90.0234 73.3061 90.0302 73.0202 90.0394C73.0774 90.4598 73.1346 90.8825 73.1917 91.303C87.8466 88.6592 95.166 72.4632 89.7879 59.176C83.701 44.1316 66.7504 38.4328 51.7617 42.1551C50.9568 42.3539 51.2975 43.5969 52.1047 43.3958H52.1024Z" fill="#666666"/>
<path d="M58.1116 56.7749C64.585 55.1183 71.2733 58.4041 73.2718 64.9483C75.0667 70.8207 72.117 76.7092 66.8121 79.4763C66.0781 79.8602 66.7275 80.9707 67.4615 80.5868C73.6033 77.3809 76.7062 70.2769 74.1933 63.6778C71.6483 56.9965 64.5529 53.7975 57.7686 55.5341C56.966 55.7398 57.3067 56.9805 58.1116 56.7749Z" fill="#666666"/>
<path d="M57.9403 56.1538C62.0241 54.9291 66.7025 55.9093 69.9518 58.6696C73.201 61.4322 74.916 65.8879 74.3603 70.1151C73.8047 74.3401 70.9899 78.2017 67.1393 80.0297L72.5311 91.345C72.2452 91.3541 73.3062 90.6755 73.0204 90.6823C82.3795 89.2337 89.8841 80.6627 90.9268 71.2553C91.9695 61.8503 86.987 52.2556 79.1645 46.9202C71.342 41.5847 61.0866 40.3531 51.9333 42.7729L57.9425 56.1515L57.9403 56.1538Z" fill="#666666"/>
<path d="M61.7017 65.4253C63.6201 64.7513 65.3008 65.4596 66.0554 67.3653C66.7253 69.0562 66.0485 70.3426 64.3107 70.8865C63.5218 71.1332 63.8579 72.3763 64.6537 72.1272C67.0112 71.3915 68.1819 69.4446 67.313 67.0568C66.3778 64.4862 63.9494 63.2774 61.361 64.1846C60.5835 64.4565 60.9197 65.7018 61.704 65.4253H61.7017Z" fill="#666666"/>
<path d="M85.233 70.3458C85.137 74.6324 83.1659 78.4872 79.7131 81.0418C79.2192 81.4074 79.6994 82.246 80.2002 81.8759C83.9319 79.1133 86.095 74.9912 86.1979 70.3458C86.2117 69.7243 85.2467 69.7243 85.233 70.3458Z" fill="white"/>
<path d="M80.9617 71.0762C80.9754 73.1304 80.1774 74.9675 78.6751 76.3682C78.22 76.7932 78.9037 77.4741 79.3587 77.0514C81.0371 75.4885 81.9449 73.3703 81.9289 71.0784C81.9243 70.4569 80.9594 70.4569 80.9639 71.0784L80.9617 71.0762Z" fill="white"/>
<path d="M19.7059 74.0864C31.4614 70.0214 43.5163 66.9458 55.7816 64.8825C56.3922 64.7797 56.1338 63.8497 55.5256 63.9525C43.2602 66.0159 31.203 69.0915 19.4498 73.1565C18.8667 73.3575 19.116 74.2898 19.7059 74.0864Z" fill="#666666"/>
<path d="M26.4238 71.7632C25.9414 66.4986 29.3438 61.0991 34.6487 59.8881C39.7136 58.7319 44.9545 61.6453 47.0673 66.2724C47.3257 66.8368 48.158 66.3478 47.9019 65.7857C45.613 60.7678 39.8485 57.6899 34.3926 58.9581C28.7013 60.2811 24.9353 66.0713 25.4589 71.7632C25.5161 72.3756 26.481 72.3824 26.4238 71.7632Z" fill="#666666"/>
<path d="M24.1075 77.6204C33.6929 74.5197 43.4636 72.0862 53.3829 70.3244C53.9934 70.217 53.735 69.2848 53.1268 69.3945C43.2075 71.1539 33.4368 73.5897 23.8514 76.6904C23.2615 76.8801 23.5153 77.8124 24.1075 77.6204Z" fill="#666666"/>
<path d="M36.7091 78.399C39.2129 77.6838 41.7168 76.9663 44.2183 76.2488C44.8151 76.0774 44.5613 75.1475 43.9622 75.3188C41.4584 76.034 38.9546 76.7515 36.453 77.469C35.8562 77.6404 36.11 78.5704 36.7091 78.399Z" fill="#666666"/>
<path d="M28.8362 85.3823C29.3141 84.4408 28.5092 83.4057 27.478 83.4309C26.2386 83.4606 25.7402 84.8796 25.7036 85.9147C25.6624 87.1211 26.0969 88.5675 27.279 89.1091C28.2577 89.5592 29.5131 89.2667 30.0161 88.2773C30.2974 87.7244 29.4628 87.2354 29.1815 87.7906C28.93 88.2865 28.3698 88.4556 27.8461 88.2956C27.2539 88.1151 26.9246 87.5187 26.7783 86.9589C26.6434 86.4493 26.6159 85.8575 26.744 85.3411C26.8103 85.0738 26.9132 84.7219 27.1464 84.5574C27.3911 84.386 28.2531 84.3997 28.0016 84.8955C27.7204 85.4485 28.5527 85.9375 28.8362 85.3823Z" fill="#666666"/>
<path d="M31.8705 85.0566C32.9406 85.2234 33.103 86.8686 31.8819 86.8983C31.4201 86.9098 30.965 86.6447 30.9353 86.1466C30.9079 85.6804 31.26 85.1275 31.7493 85.0681C32.3598 84.9949 32.3667 84.0284 31.7493 84.1038C30.7478 84.2226 29.9749 85.0658 29.9681 86.0895C29.9612 87.0949 30.8004 87.8215 31.7699 87.8603C32.7371 87.8992 33.6381 87.2502 33.7204 86.2517C33.8004 85.2829 33.1099 84.2775 32.1266 84.1244C31.5184 84.0307 31.2577 84.9607 31.8705 85.0544V85.0566Z" fill="#666666"/>
<path d="M34.5918 83.8545C35.136 83.7128 35.7877 84.1469 35.8197 84.7296C35.8471 85.198 35.4104 85.5385 34.9828 85.6048C33.8944 85.7761 33.7252 84.268 34.5827 83.8522C35.1406 83.5803 34.6513 82.7485 34.0956 83.0182C33.261 83.4249 32.8814 84.4623 33.1375 85.3351C33.4165 86.2903 34.3997 86.7632 35.3395 86.5119C36.2587 86.2674 36.9676 85.3831 36.7458 84.4097C36.5034 83.3495 35.3898 82.6503 34.3357 82.9222C33.7343 83.0776 33.9904 84.0098 34.5918 83.8522V83.8545Z" fill="#666666"/>
<path d="M36.949 83.1794C36.6884 84.4064 36.9948 85.6015 37.8065 86.5566C37.9483 86.7234 38.2112 86.7257 38.3919 86.632C38.9315 86.3533 39.4712 86.0745 40.0108 85.7934C40.5619 85.5078 40.0748 84.6738 39.5237 84.9594C38.9841 85.2382 38.4445 85.5169 37.9048 85.798C38.0992 85.8231 38.2958 85.8483 38.4902 85.8734C37.914 85.1948 37.6968 84.3036 37.882 83.4353C38.01 82.8298 37.0794 82.5716 36.9513 83.1794H36.949Z" fill="#666666"/>
<path d="M43.3425 81.1575C43.219 82.364 43.4386 83.5202 43.9439 84.617C44.2046 85.1814 45.0369 84.6901 44.7785 84.1303C44.344 83.1866 44.2023 82.1858 44.3075 81.1575C44.3715 80.5406 43.4043 80.5452 43.3425 81.1575Z" fill="#666666"/>
<path d="M43.7176 81.2762C43.9645 82.4964 45.1924 83.4561 46.4615 83.1933C47.7648 82.9236 48.4691 81.6326 48.2839 80.3827C47.9729 80.4673 47.6619 80.5541 47.3532 80.6387C47.543 81.6578 47.7305 82.6792 47.9203 83.6983C48.0324 84.3084 48.963 84.0501 48.851 83.4423C48.6612 82.4232 48.4737 81.4018 48.2839 80.3827C48.1696 79.7658 47.2641 80.0377 47.3532 80.6387C47.6231 82.4735 45.0118 82.8025 44.6482 81.018C44.5247 80.4102 43.5941 80.6684 43.7176 81.2739V81.2762Z" fill="#666666"/>
<path d="M51.069 79.0713C50.0194 79.0325 49.1025 79.9213 49.0293 80.9587C48.9585 81.9869 49.7954 82.7638 50.7763 82.8621C51.7504 82.9604 52.665 82.3525 52.8045 81.3586C52.9417 80.3829 52.3564 79.3912 51.396 79.1216C50.7969 78.9525 50.5408 79.8848 51.1399 80.0516C52.1734 80.3418 52.066 82.0121 50.8861 81.907C50.4356 81.8658 49.992 81.5665 49.9897 81.0775C49.9897 80.5017 50.5065 80.015 51.069 80.0356C51.6909 80.0584 51.6887 79.0941 51.069 79.0713Z" fill="#666666"/>
<path d="M52.5301 79.7929C53.0674 80.5493 53.6071 81.3056 54.1444 82.0642C54.3777 82.3933 54.9059 82.3727 55.0271 81.95C55.2946 81.0154 55.5598 80.0786 55.8274 79.144C55.9989 78.5453 55.0659 78.2894 54.8967 78.8881C54.6292 79.8226 54.364 80.7595 54.0964 81.6941C54.3914 81.6552 54.6841 81.6164 54.979 81.5798C54.4417 80.8235 53.9021 80.0671 53.3647 79.3085C53.008 78.8058 52.1688 79.288 52.5301 79.7952V79.7929Z" fill="#666666"/>
<path d="M55.9508 79.0146C56.04 79.908 56.1292 80.8015 56.2184 81.6949C56.2801 82.3073 57.2451 82.3141 57.1833 81.6949C57.0941 80.8015 57.005 79.908 56.9158 79.0146C56.854 78.4022 55.8891 78.3954 55.9508 79.0146Z" fill="#666666"/>
<path d="M58.0979 77.9399C58.1871 78.9224 58.2762 79.905 58.3654 80.8875C58.4203 81.4999 59.3875 81.5068 59.3304 80.8875C59.2412 79.905 59.152 78.9224 59.0628 77.9399C59.008 77.3275 58.0407 77.3207 58.0979 77.9399Z" fill="#666666"/>
<path d="M58.1597 78.0979C58.6971 77.9174 59.2321 77.7391 59.7695 77.5609C60.3549 77.3644 60.1056 76.4321 59.5134 76.6309C58.976 76.8114 58.441 76.9897 57.9036 77.1679C57.3183 77.3644 57.5675 78.2967 58.1597 78.0979Z" fill="#666666"/>
<path d="M58.441 80.282C58.9783 80.1037 59.5134 79.9255 60.0508 79.745C60.6384 79.5485 60.3869 78.6162 59.7947 78.815C59.2573 78.9932 58.7222 79.1714 58.1849 79.352C57.5972 79.5485 57.8488 80.4807 58.441 80.282Z" fill="#666666"/>
<path d="M59.3602 82.3809C59.8975 82.1135 60.4326 81.8439 60.9699 81.5766C61.5256 81.2978 61.0363 80.466 60.4829 80.7425C59.9455 81.0099 59.4105 81.2795 58.8731 81.5469C58.3175 81.8256 58.8068 82.6574 59.3602 82.3809Z" fill="#666666"/>
<path d="M29.1771 94.1357C32.1336 93.3497 35.0879 92.5636 38.0445 91.7753C38.6436 91.6154 38.3898 90.6854 37.7884 90.8453C34.8318 91.6314 31.8775 92.4174 28.921 93.2057C28.3219 93.3657 28.5757 94.2957 29.1771 94.1357Z" fill="#666666"/>
<path d="M41.4103 90.7545C42.9217 90.8801 44.3966 90.6951 45.8303 90.2015C46.4157 90.0004 46.1641 89.0681 45.5742 89.2715C44.216 89.7376 42.8417 89.909 41.4103 89.7902C40.7906 89.7399 40.7952 90.7042 41.4103 90.7545Z" fill="#666666"/>
<path d="M49.2991 89.3188C53.6025 88.1969 57.9036 87.075 62.207 85.953C62.8084 85.7954 62.5523 84.8654 61.9509 85.0231C57.6475 86.145 53.3464 87.2669 49.043 88.3888C48.4417 88.5465 48.6978 89.4765 49.2991 89.3188Z" fill="#666666"/>
<path d="M27.59 98.2442C29.1106 97.8878 30.6312 97.529 32.1495 97.1726C32.7532 97.0309 32.4994 96.0986 31.8934 96.2426C30.3728 96.5991 28.8522 96.9578 27.3339 97.3143C26.7303 97.4559 26.9841 98.3882 27.59 98.2442Z" fill="#666666"/>
<path d="M34.8111 96.0143C37.0543 95.4202 39.2997 94.8284 41.5429 94.2343C42.1442 94.0766 41.8881 93.1443 41.2868 93.3043C39.0436 93.8984 36.7982 94.4902 34.555 95.0843C33.9536 95.2419 34.2097 96.1742 34.8111 96.0143Z" fill="#666666"/>
<path d="M45.8327 93.6859C49.7039 92.9958 53.447 91.9264 57.0987 90.4686C57.6681 90.2401 57.4212 89.3078 56.8426 89.5386C53.1909 90.9965 49.4478 92.0658 45.5766 92.7559C44.966 92.8656 45.2244 93.7956 45.8327 93.6859Z" fill="#666666"/>
<path d="M60.572 89.8802C61.2877 89.7019 62.0034 89.5214 62.7192 89.3432C63.3228 89.1924 63.0667 88.2624 62.4631 88.4132C61.7473 88.5914 61.0316 88.772 60.3159 88.9502C59.7123 89.101 59.9684 90.031 60.572 89.8802Z" fill="#666666"/>
<path d="M28.7059 101.345C31.3812 100.604 34.0565 99.8616 36.7318 99.1213C37.3309 98.9567 37.0771 98.0245 36.4757 98.1913C33.8004 98.9316 31.1251 99.672 28.4498 100.415C27.8507 100.579 28.1045 101.511 28.7059 101.345Z" fill="#666666"/>
<path d="M39.9263 98.761C44.1245 97.7625 48.325 96.7639 52.5232 95.7654C53.1268 95.6214 52.8707 94.6914 52.2671 94.8354C48.0689 95.8339 43.8684 96.8325 39.6702 97.831C39.0665 97.975 39.3226 98.905 39.9263 98.761Z" fill="#666666"/>
<path d="M55.3884 95.3877C55.9532 94.9238 56.6872 94.8278 57.3686 95.0495C57.9608 95.2414 58.2147 94.3114 57.6247 94.1195C56.5957 93.7859 55.5302 94.0258 54.7047 94.7045C54.2245 95.0998 54.9105 95.7784 55.3884 95.3877Z" fill="#666666"/>
<path d="M61.3768 93.639C62.3578 93.3603 63.3387 93.0815 64.3197 92.8027C64.9165 92.6336 64.6627 91.7014 64.0636 91.8727C63.0826 92.1515 62.1017 92.4303 61.1207 92.709C60.5239 92.8781 60.7778 93.8104 61.3768 93.639Z" fill="#666666"/>
<path d="M7.47476 50.2911C8.81242 50.0832 10.1478 49.8775 11.4855 49.6696C12.0983 49.5759 11.8376 48.6436 11.2294 48.7396C9.8917 48.9475 8.55632 49.1532 7.21866 49.3611C6.60585 49.4548 6.86652 50.3871 7.47476 50.2911Z" fill="#666666"/>
<path d="M6.62653 53.601C8.69819 53.0298 10.7698 52.4585 12.8415 51.8896C13.4406 51.7251 13.1868 50.7928 12.5854 50.9596C10.5138 51.5308 8.44209 52.1021 6.37043 52.671C5.77134 52.8356 6.02515 53.7678 6.62653 53.601Z" fill="#666666"/>
<path d="M17.5314 48.0702C18.5146 47.9856 19.5002 47.9011 20.4834 47.8188C21.0985 47.7663 21.1031 46.7997 20.4834 46.8545C19.5002 46.9391 18.5146 47.0236 17.5314 47.1059C16.9163 47.1584 16.9117 48.125 17.5314 48.0702Z" fill="#666666"/>
<path d="M16.0244 50.964C19.1684 50.0248 22.3102 49.088 25.4543 48.1489C26.0488 47.9706 25.795 47.0406 25.1982 47.2189C22.0541 48.158 18.9123 49.0948 15.7683 50.034C15.1737 50.2122 15.4276 51.1422 16.0244 50.964Z" fill="#666666"/>
<path d="M28.1274 45.7005C29.0215 45.4332 29.9155 45.1635 30.8096 44.8962C31.4041 44.718 31.1503 43.7857 30.5535 43.9662C29.6594 44.2335 28.7654 44.5032 27.8713 44.7705C27.2768 44.9487 27.5306 45.881 28.1274 45.7005Z" fill="#666666"/>
<path d="M28.395 47.5771C30.8989 46.951 33.4027 46.3272 35.9065 45.7011C36.5102 45.5503 36.2541 44.6203 35.6504 44.7711C33.1466 45.3972 30.6428 46.021 28.1389 46.6471C27.5353 46.7979 27.7914 47.7279 28.395 47.5771Z" fill="#666666"/>
<path d="M39.3935 42.7539C40.5551 42.5756 41.7189 42.3974 42.8805 42.2169C43.4933 42.1232 43.2327 41.1932 42.6244 41.2869C41.4628 41.4651 40.299 41.6434 39.1374 41.8239C38.5246 41.9175 38.7852 42.8475 39.3935 42.7539Z" fill="#666666"/>
<path d="M39.4005 45.1937C42.0827 44.6522 44.7649 44.1106 47.4448 43.5714C48.053 43.448 47.7969 42.518 47.1887 42.6414L39.1444 44.2637C38.5362 44.3871 38.7923 45.3171 39.4005 45.1937Z" fill="#666666"/>
<path d="M26.2593 68.221C27.3637 68.4929 28.2829 69.0916 28.9964 69.9736C29.3874 70.4557 30.0665 69.7702 29.68 69.2904C28.8706 68.2895 27.7662 67.5995 26.5154 67.2887C25.9117 67.1402 25.6556 68.0702 26.2593 68.2187V68.221Z" fill="#666666"/>
<path d="M27.4804 66.0351C29.1633 67.2187 30.8486 68.4024 32.5315 69.5837C33.0414 69.9425 33.5239 69.1062 33.0185 68.7497C31.3356 67.5661 29.6504 66.3824 27.9674 65.2011C27.4575 64.8424 26.975 65.6787 27.4804 66.0351Z" fill="#666666"/>
<path d="M30.0252 63.8606C31.9002 65.4715 33.7775 67.0825 35.6525 68.6934C36.1213 69.0955 36.8072 68.4169 36.3362 68.0102C34.4612 66.3992 32.5839 64.7883 30.7089 63.1774C30.2401 62.7752 29.5541 63.4539 30.0252 63.8606Z" fill="#666666"/>
<path d="M3.14171 54.8984C2.14704 56.9183 1.67143 59.0707 1.74917 61.3215C1.76975 61.9407 2.73698 61.943 2.71412 61.3215C2.64095 59.2376 3.05253 57.2565 3.97403 55.3851C4.24843 54.8298 3.41382 54.3408 3.13942 54.8984H3.14171Z" fill="#666666"/>
<path d="M3.85057 58.2259C3.32236 60.3715 2.79187 62.5194 2.26138 64.665C2.11275 65.2682 3.0434 65.5241 3.19203 64.9209C3.72252 62.7753 4.25073 60.6274 4.78122 58.4818C4.92985 57.8785 3.9992 57.6203 3.85057 58.2259Z" fill="#666666"/>
<path d="M24.1259 109.921C40.8272 107.387 57.2313 103.233 73.1255 97.5156C73.7063 97.3077 73.4547 96.3732 72.8694 96.5857C56.9752 102.305 40.5711 106.457 23.8698 108.991C23.257 109.085 23.5176 110.015 24.1259 109.921Z" fill="#666666"/>
</g>
<defs>
<clipPath id="clip0_62_943">
<rect width="91.5487" height="113.205" fill="white"/>
</clipPath>
</defs>
</svg>
