<svg width="101" height="91" viewBox="0 0 101 91" fill="none" xmlns="http://www.w3.org/2000/svg">
<g clip-path="url(#clip0_62_922)">
<path d="M90.4667 46.7917C77.92 42.4169 65.532 37.5426 53.1381 32.7569C40.8059 27.9949 27.9098 23.7087 16.1003 17.7052C16.2002 18.0836 16.2971 18.4649 16.3969 18.8433C18.3941 14.4478 20.3912 10.0493 22.3883 5.65382C22.6203 5.14244 23.9948 1.50958 23.4955 1.65443C23.6218 1.61895 23.8392 1.83178 23.9713 1.82587C25.4633 1.77266 27.898 3.23881 29.2843 3.74132C36.6795 6.41054 44.0718 9.09159 51.4552 11.7874C60.4188 15.0596 69.3765 18.3526 78.3048 21.7135C83.882 23.8122 90.5401 25.4527 95.6709 28.5565C96.74 29.2038 96.4198 28.7427 96.4845 29.4108C96.6548 31.2168 95.0277 34.0605 94.3933 35.6892C92.8867 39.5644 91.2391 43.3865 89.5268 47.176C89.0892 48.1426 90.5136 48.9909 90.9542 48.0155C92.2641 45.1187 93.5211 42.1952 94.7311 39.257C95.7032 36.8952 99.0014 31.3735 98.182 28.6954C97.3978 26.1297 90.9983 24.8143 88.8602 23.9807C72.1754 17.4569 55.3056 11.4061 38.4681 5.30206C33.6192 3.53736 28.7556 1.77857 23.892 0.0316107C23.5778 -0.0807153 23.0991 0.0995974 22.9581 0.412928C20.2943 6.27457 17.6305 12.1392 14.9696 18.0008C14.7934 18.391 14.8374 18.9201 15.2662 19.1388C26.923 25.0655 39.6311 29.3073 51.8018 34.0132C64.4923 38.92 77.1799 43.9156 90.0291 48.3938C91.0364 48.7456 91.4711 47.1376 90.4696 46.7888L90.4667 46.7917Z" fill="#666666"/>
<path d="M15.7038 18.1753C11.4658 26.047 7.54793 34.0842 4.01772 42.3047C2.72253 45.3227 0.901624 48.592 0.170325 51.7815C-0.23791 53.5521 0.0587216 54.563 1.51251 55.704C4.43477 57.9978 8.47306 59.5201 11.7566 61.2464C15.8125 63.3776 19.8978 65.4498 24.0536 67.377C29.7101 69.996 35.5194 72.1775 41.3492 74.3649C51.1292 78.0303 60.9239 82.2632 70.9918 85.0684C72.6071 85.5177 73.3678 85.8783 74.4691 84.6132C76.3429 82.4553 77.315 78.5387 78.4164 75.9522C82.3225 66.774 85.7147 57.2381 90.2699 48.3585C90.7574 47.4096 89.33 46.5642 88.8425 47.519C85.606 53.824 83.0891 60.5429 80.3636 67.0785C78.7101 71.0395 77.0713 75.0063 75.3414 78.9318C74.8069 80.1408 74.2635 81.3468 73.6908 82.5381C73.2973 83.3539 73.0564 83.7766 72.8156 83.8269C71.958 84.0042 70.2898 83.1175 69.4939 82.8603C67.5879 82.2425 65.6935 81.5745 63.8051 80.9035C59.0619 79.2186 54.3452 77.4598 49.6285 75.698C38.192 71.4237 26.8671 67.1613 15.977 61.5716C12.3528 59.7123 8.76089 57.782 5.17781 55.8429C2.42002 54.3502 1.62705 52.4377 2.80476 49.5024C3.75633 47.1288 4.74021 44.767 5.75639 42.417C9.20436 34.4478 13.0165 26.653 17.1312 19.0118C17.6393 18.0689 16.2119 17.2294 15.7038 18.1724V18.1753Z" fill="#666666"/>
<path d="M20.0387 10.8863C24.729 13.6087 30.0126 15.4916 35.0142 17.5312C43.1143 20.836 51.2702 24.0077 59.4349 27.1528C70.6393 31.4685 81.8702 35.7192 93.1275 39.8989C94.1261 40.2713 94.5578 38.6633 93.568 38.2938C82.5868 34.2176 71.632 30.0704 60.7007 25.8641C52.4949 22.7071 44.2979 19.5235 36.1508 16.2099C31.0434 14.1319 25.663 12.2283 20.8757 9.44968C19.9535 8.91466 19.1195 10.3512 20.0417 10.8863H20.0387Z" fill="#666666"/>
<path d="M20.2414 31.7314C23.7041 33.7444 27.2901 35.4884 31.0024 36.9841C31.7425 37.2826 32.0655 36.0766 31.3313 35.781C27.7189 34.3237 24.2386 32.6123 20.867 30.6525C20.1739 30.2504 19.5483 31.3294 20.2414 31.7314Z" fill="#666666"/>
<path d="M36.7793 39.7182C50.1189 44.631 63.4555 49.5467 76.7922 54.4595C77.544 54.7374 77.8671 53.5314 77.1211 53.2565C63.7815 48.3437 50.4449 43.4279 37.1082 38.5151C36.3563 38.2373 36.0333 39.4433 36.7793 39.7182Z" fill="#666666"/>
<path d="M11.88 50.25C13.2457 47.6665 14.3558 44.9648 15.607 42.3221C16.303 40.853 16.353 40.3535 17.9624 40.8323C19.381 41.255 20.7731 41.9172 22.1534 42.4522C28.0567 44.7342 33.9599 47.025 39.8485 49.3455C51.0794 53.7705 62.3014 58.2517 73.3091 63.2177C73.2357 62.934 73.1593 62.6472 73.0859 62.3635C71.3619 66.2653 69.6409 70.1672 67.9169 74.069C68.1988 73.9951 68.4837 73.9183 68.7657 73.8444C52.1249 66.7205 35.4842 59.5967 18.8406 52.4729C16.444 51.4471 14.0504 50.4214 11.6539 49.3957C10.9284 49.0853 10.2941 50.1613 11.0283 50.4746C27.669 57.5985 44.3097 64.7223 60.9534 71.8461C63.3499 72.8718 65.7435 73.8976 68.1401 74.9233C68.422 75.0445 68.8391 75.0356 68.9889 74.6986C70.7129 70.7968 72.4339 66.8949 74.1579 62.9931C74.2812 62.7123 74.2666 62.2896 73.9347 62.1388C55.1059 53.6434 35.7339 46.3629 16.4763 38.9287C16.2326 38.8341 15.8948 38.9908 15.7773 39.2154C13.9799 42.6148 12.6054 46.2181 10.808 49.6204C10.4321 50.3298 11.5041 50.9594 11.88 50.25Z" fill="#666666"/>
<path d="M32.6236 46.1599C30.9232 49.4646 29.2197 52.7724 27.5192 56.0771C27.1521 56.7895 28.2212 57.4221 28.5912 56.7067C30.2917 53.402 31.9951 50.0943 33.6956 46.7895C34.0627 46.0771 32.9937 45.4446 32.6236 46.1599Z" fill="#666666"/>
<path d="M52.8298 54.4372C51.3643 58.2504 49.9017 62.0665 48.4361 65.8797C48.1483 66.6305 49.3466 66.9556 49.6315 66.2107C51.097 62.3976 52.5596 58.5814 54.0251 54.7653C54.313 54.0145 53.1147 53.6893 52.8298 54.4342V54.4372Z" fill="#666666"/>
<path d="M28.9172 3.37793L30.4679 14.8204L19.3545 20.0229L25.5573 23.1443L35.8924 16.6413L34.6002 4.93867L28.9172 3.37793Z" fill="#666666"/>
<path d="M45.7134 9.36133L48.2979 21.5842L38.4768 27.8271L44.1627 30.4284L53.7254 24.4455L51.3994 10.6619L45.7134 9.36133Z" fill="#666666"/>
<path d="M63.0268 15.6021L66.6451 28.6082L56.0486 34.3309L62.7683 37.7125L71.8141 30.169L68.9711 17.4229L63.0268 15.6021Z" fill="#666666"/>
<path d="M79.0507 21.5835L82.2783 34.4596L71.2971 40.5695L78.5337 43.4309L87.8351 36.9308L85.2505 23.4044L79.0507 21.5835Z" fill="#666666"/>
<path d="M0.261237 52.7938C0.493255 58.0229 4.44638 61.2655 8.73726 63.6125C15.6949 67.4198 23.2017 70.4467 30.4706 73.5948C45.1113 79.9353 59.9957 85.7378 75.212 90.5323C75.6908 90.6831 76.3075 90.2634 76.2576 89.7283C76.0608 87.6119 74.237 86.0689 74.0461 83.9879C73.9491 82.9297 72.2927 82.9208 72.3926 83.9879C72.5893 86.1043 74.4132 87.6473 74.6041 89.7283C74.9536 89.4623 75.3031 89.1933 75.6496 88.9243C62.451 84.7623 49.4991 79.8436 36.741 74.4756C30.083 71.6734 23.4778 68.7441 16.9225 65.7024C11.3629 63.1219 2.24074 60.1245 1.91474 52.7908C1.86774 51.7237 0.214246 51.7178 0.261237 52.7908V52.7938Z" fill="#666666"/>
<path d="M97.5536 29.2692C97.9736 31.5985 98.7724 34.1111 98.8488 36.4699C98.8752 37.2739 99.0984 35.6895 98.8106 36.7034C98.6696 37.2 98.376 37.7025 98.1704 38.1755C96.0381 43.0557 93.8912 47.9301 91.7296 52.7985C86.2904 65.0391 81.0333 77.4896 74.7189 89.3104C74.2137 90.2533 75.6411 91.0958 76.1462 90.1499C82.7397 77.8118 88.2053 64.8026 93.8736 52.0211C95.9089 47.4335 98.0353 42.8695 99.9413 38.2287C101.145 35.2934 99.6976 31.8823 99.1484 28.8288C98.9604 27.7765 97.3656 28.2228 97.5536 29.2722V29.2692Z" fill="#666666"/>
<path d="M13.1487 45.7246C13.7097 47.9682 14.2706 50.2117 14.8316 52.4523C15.0254 53.2297 16.2237 52.9016 16.0269 52.1213C15.4659 49.8777 14.905 47.6341 14.344 45.3935C14.1502 44.6161 12.9519 44.9442 13.1487 45.7246Z" fill="#666666"/>
<path d="M14.8785 43.0763C16.0856 46.1978 17.2898 49.3192 18.4969 52.4407C18.7817 53.1827 19.9829 52.8605 19.6922 52.1097C18.4851 48.9882 17.281 45.8667 16.0739 42.7452C15.789 42.0033 14.5878 42.3255 14.8785 43.0763Z" fill="#666666"/>
<path d="M17.9271 42.5739C19.14 46.3871 20.35 50.2003 21.563 54.0134C21.8038 54.7761 23.0021 54.4509 22.7583 53.6824C21.5454 49.8692 20.3354 46.056 19.1224 42.2458C18.8816 41.4832 17.6833 41.8083 17.9271 42.5769V42.5739Z" fill="#666666"/>
<path d="M84.1376 46.7182C84.8278 48.6248 85.515 50.5314 86.2052 52.4409C86.4754 53.1888 87.6737 52.8666 87.4006 52.1099C86.7104 50.2033 86.0231 48.2937 85.3329 46.3872C85.0627 45.6393 83.8645 45.9615 84.1376 46.7182Z" fill="#666666"/>
<path d="M81.0274 45.6819C82.1112 48.9601 83.1949 52.2382 84.2786 55.5134C84.5283 56.2731 85.7265 55.9479 85.474 55.1823C84.3902 51.9042 83.3065 48.626 82.2228 45.3509C81.9731 44.5912 80.7749 44.9163 81.0274 45.6819Z" fill="#666666"/>
<path d="M76.4427 44.0958C78.1608 48.4322 79.876 52.7715 81.5941 57.1079C81.8849 57.8439 83.0861 57.5247 82.7895 56.7768C81.0714 52.4405 79.3562 48.1011 77.6381 43.7648C77.3473 43.0287 76.1461 43.348 76.4427 44.0958Z" fill="#666666"/>
</g>
<defs>
<clipPath id="clip0_62_922">
<rect width="100.408" height="90.5643" fill="white"/>
</clipPath>
</defs>
</svg>
