<svg width="170" height="90" viewBox="0 0 170 90" fill="none" xmlns="http://www.w3.org/2000/svg">
<g clip-path="url(#clip0_62_800)">
<path d="M55.6388 29.9279C40.5679 31.3058 25.4575 33.2015 10.3767 31.9279C8.31848 31.7553 6.20113 31.5142 4.38907 30.5273C2.57701 29.5403 0.669752 25.7194 0.958631 22.5663C1.24751 19.4132 3.29921 17.1527 5.58069 15.9735C18.8494 9.12659 39.1497 8.93441 54.1058 8.80737C57.2834 9.38066 59.0167 28.0093 55.6388 29.9247V29.9279Z" fill="#666666"/>
<path d="M55.6388 29.0095C42.4029 30.2375 29.1276 31.8336 15.8063 31.3385C12.5696 31.218 7.59624 31.5991 4.85518 29.7359C0.495733 26.775 1.32626 20.0942 5.20643 17.3287C9.4838 14.2831 15.6619 13.0128 20.7435 12.0323C26.2125 10.9769 31.7767 10.4492 37.3344 10.143C39.9868 9.99646 42.6392 9.90526 45.2949 9.84337C47.5567 9.79125 50.6031 9.23099 52.8091 9.73588C56.2067 10.5144 56.2395 16.5079 56.4397 19.345C56.6039 21.674 57.3458 27.4786 55.1693 29.1333C54.237 29.8401 55.1562 31.4362 56.1016 30.7164C60.2116 27.5926 58.4521 18.2343 57.5821 14.0128C57.221 12.2538 56.7024 9.09744 54.8739 8.1235C53.4525 7.3678 51.0167 7.91503 49.4673 7.93457C46.3979 7.97366 43.3319 8.03881 40.2658 8.16584C29.0488 8.63164 17.1883 9.62839 6.86092 14.3385C3.31887 15.9574 0.393968 18.4623 0.0361526 22.5665C-0.301967 26.4395 1.79897 30.6838 5.55439 32.0225C12.3463 34.446 21.423 33.3971 28.4842 33.0877C37.5609 32.6903 46.5982 31.6838 55.6388 30.8434C56.814 30.7359 56.8238 28.8988 55.6388 29.0095Z" fill="#666666"/>
<path d="M56.9682 12.1131C60.3592 11.6864 63.7503 11.2434 67.1446 10.8297C68.0867 10.7157 69.5508 10.3639 70.5192 10.5268C74.2353 11.1554 73.6444 15.1717 73.7067 17.5496C73.7658 19.9046 74.4421 22.1229 71.7962 23.5984C70.8803 24.1098 69.4359 24.1815 68.4314 24.3965C64.932 25.1489 61.4458 25.5952 57.8644 25.6603C56.676 25.6831 56.6727 27.517 57.8644 27.4942C62.5357 27.4095 67.8635 26.9665 72.2853 25.3672C76.3099 23.9111 75.6304 20.5756 75.5352 16.859C75.4597 13.859 75.7256 10.1522 72.2623 8.97952C70.2697 8.30525 67.8898 8.90135 65.8709 9.15542C62.9033 9.53001 59.9325 9.9046 56.9649 10.2792C55.7995 10.4258 55.7864 12.2629 56.9649 12.1131H56.9682Z" fill="#666666"/>
<path d="M75.4828 16.7459C81.8907 16.8469 88.246 17.368 94.5817 18.329C95.747 18.5049 96.246 16.7394 95.0741 16.5602C88.5743 15.5733 82.0581 15.0163 75.4828 14.912C74.2912 14.8925 74.2912 16.7264 75.4828 16.7459Z" fill="#666666"/>
<path d="M75.2266 20.6314C81.2439 21.7715 87.2939 22.6053 93.3932 23.1395C94.5782 23.2438 94.5717 21.4066 93.3932 21.3057C87.458 20.7877 81.5688 19.9734 75.7158 18.8627C74.5537 18.6412 74.0547 20.4099 75.2233 20.6314H75.2266Z" fill="#666666"/>
<path d="M121.076 19.391C114.045 17.8665 106.971 15.8828 99.8634 14.7525C94.7621 13.9415 94.2041 17.2998 93.9152 21.6581C93.5475 27.2281 93.5902 29.3812 99.1806 30.8926C105.306 32.5506 111.409 34.5245 117.695 35.492C118.861 35.6711 119.359 33.9024 118.188 33.7232C114.186 33.1076 110.28 32.0424 106.383 30.9708C104.515 30.4561 102.65 29.9219 100.779 29.4203C97.5688 28.5604 95.8224 27.4724 95.6255 23.7395C95.4679 20.7395 96.5249 16.8828 100.008 16.6613C101.909 16.5408 104.371 17.6125 106.252 18.0229C111.028 19.0718 115.808 20.1239 120.587 21.1597C121.746 21.4105 122.242 19.6418 121.08 19.391H121.076Z" fill="#666666"/>
<path d="M129.188 17.9667C135.143 11.8006 141.725 6.38363 148.943 1.73216C149.938 1.09046 149.012 -0.49586 148.011 0.149092C140.664 4.88525 133.945 10.3901 127.882 16.6703C127.058 17.5237 128.364 18.8201 129.188 17.9667Z" fill="#666666"/>
<path d="M149.137 2.2469C154.396 2.16872 159.494 4.03843 162.99 8.03518C165.436 10.83 169.234 16.5205 166.539 20.0971C165.826 21.0417 167.432 21.957 168.134 21.0222C171.131 17.0417 167.78 11.2241 165.242 7.89511C161.398 2.85928 155.44 0.315301 149.137 0.409764C147.949 0.426051 147.945 2.26319 149.137 2.24364V2.2469Z" fill="#666666"/>
<path d="M166.68 19.912C160.807 25.3583 154.934 30.8045 149.062 36.2475C148.192 37.0553 149.502 38.3518 150.368 37.5439C156.241 32.0977 162.114 26.6514 167.986 21.2084C168.856 20.4006 167.55 19.1042 166.68 19.912Z" fill="#666666"/>
<path d="M120.43 24.2311C121.769 15.8533 134.046 20.1138 139.069 21.9184C142.621 23.1953 145.854 24.508 147.331 28.2116C148.687 31.609 147.991 35.3256 147.377 38.7979C147.174 39.951 148.953 40.4494 149.16 39.2865C149.856 35.3549 150.562 31.1986 149.042 27.3647C147.374 23.166 143.566 21.5894 139.561 20.1497C133.6 18.0064 120.206 14.0064 118.647 23.7425C118.463 24.8989 120.242 25.394 120.43 24.2311Z" fill="#666666"/>
<path d="M118.539 23.7589C118.05 25.5602 117.968 27.4136 117.84 29.2703C117.682 31.5374 116.986 34.456 117.866 36.5993C119.271 40.0227 124.582 40.6449 127.652 41.6416C130.337 42.5146 134.345 44.6254 137.165 44.6775C138.252 44.697 138.774 44.6384 139.519 43.8143C140.313 42.9348 140.198 41.2801 140.287 40.2312C140.49 37.8306 140.786 35.4006 140.812 32.9902C140.861 28.1954 135.1 27.0162 131.243 25.6221C129.037 24.824 120.617 20.9022 118.637 23.5374C117.925 24.4853 119.53 25.4006 120.233 24.4625C120.702 23.8403 128.285 26.5374 129.132 26.824C131.627 27.6677 137.611 29.0488 138.869 31.5928C139.798 33.4723 138.639 37.5863 138.485 39.6156C138.435 40.2117 138.393 40.8078 138.36 41.4039C137.552 42.8273 136.515 43.0846 135.248 42.1824C133.502 42.0553 131.397 40.9315 129.723 40.3876C125.876 39.1368 119.629 38.6253 119.373 33.6644C119.225 30.7817 119.573 27.0162 120.325 24.2475C120.637 23.1074 118.851 22.6188 118.542 23.7589H118.539Z" fill="#666666"/>
<path d="M115.768 19.561C112.4 23.7238 111.714 29.0724 113.93 33.9388C114.419 35.0138 116.011 34.0822 115.525 33.0138C113.684 28.9747 114.278 24.3167 117.075 20.8607C117.813 19.9486 116.513 18.6424 115.768 19.5642V19.561Z" fill="#666666"/>
<path d="M138.954 44.649C142.224 43.1148 145.497 41.5806 148.766 40.0464C149.84 39.5415 148.904 37.9617 147.834 38.4633C144.564 39.9975 141.291 41.5317 138.022 43.0659C136.948 43.5708 137.884 45.1506 138.954 44.649Z" fill="#666666"/>
<path d="M109.708 32.2122C104.216 31.7366 102.834 39.9418 101.452 43.8181C101.748 43.5933 102.046 43.3686 102.345 43.1438C99.4564 43.336 96.5676 43.5249 93.6788 43.7171C92.4971 43.7953 92.4905 45.6291 93.6788 45.551C96.5676 45.3588 99.4564 45.1699 102.345 44.9777C102.782 44.9484 103.094 44.7073 103.238 44.3034C104.213 41.5673 105.713 33.6975 109.712 34.0428C110.897 34.1471 110.89 32.3099 109.712 32.2089L109.708 32.2122Z" fill="#666666"/>
<path d="M149.774 38.7912C156.375 39.9866 160.321 46.0225 160.797 52.384C161.109 56.5795 159.99 60.6088 159.98 64.7456C159.98 65.4557 159.517 66.3743 160.065 65.6414C159.763 66.0453 158.975 66.3971 158.572 66.6772C156.408 68.1788 154.245 69.6805 152.082 71.1788C147.374 74.4459 142.696 77.7554 137.959 80.9769C133.029 84.3352 124.208 84.2635 118.188 83.9411C116.999 83.8759 117.003 85.7098 118.188 85.7749C124.687 86.1267 133.689 86.1723 139.295 82.2798C145.195 78.1886 151.09 74.0941 156.989 70.0029C158.135 69.2081 160.499 68.1756 161.309 66.9932C162.508 65.244 162.288 61.3971 162.462 59.3808C163.249 50.1755 161.135 38.9899 150.266 37.0224C149.104 36.8107 148.605 38.5794 149.774 38.7912Z" fill="#666666"/>
<path d="M101.879 44.8568C105.129 46.2314 108.422 47.4888 111.704 48.7819C113.513 49.4953 116.303 50.0393 117.744 51.2836C120.17 53.378 119.524 55.466 119.36 58.1077C118.801 67.0849 118.243 76.0588 117.685 85.036C117.613 86.2152 119.461 86.2119 119.534 85.036C119.875 79.5344 120.22 74.0328 120.561 68.5311C120.853 63.8145 122.36 57.5474 121.267 52.9285C120.679 50.4464 118.673 49.6614 116.49 48.7396C111.967 46.8308 107.335 45.1858 102.815 43.2738C101.731 42.8178 100.789 44.3943 101.882 44.8568H101.879Z" fill="#666666"/>
<path d="M121.034 53.9842C132.963 50.4109 144.732 46.3653 156.336 41.8539C157.432 41.4272 156.953 39.6519 155.844 40.0851C144.239 44.5966 132.471 48.6422 120.541 52.2155C119.406 52.5542 119.888 54.3262 121.034 53.9842Z" fill="#666666"/>
<path d="M136.426 83.9245C140.366 83.4359 144.308 82.9441 148.248 82.4555C150.893 82.1265 155.364 82.3936 157.823 81.2177C159.054 80.6281 159.461 80.2796 159.911 78.8692C160.925 75.6737 160.249 71.1916 160.351 67.8529C160.387 66.6705 158.539 66.6737 158.503 67.8529C158.43 70.2796 158.355 72.7063 158.283 75.133C158.22 77.1949 158.539 77.3317 156.609 78.6705C154.754 79.9571 153.831 79.9278 151.629 80.2014C146.563 80.8301 141.495 81.462 136.43 82.0907C135.264 82.234 135.251 84.0711 136.43 83.9245H136.426Z" fill="#666666"/>
<path d="M72.3116 47.3842C79.5205 46.8174 86.7326 46.42 93.9611 46.1952C95.1495 46.1594 95.1528 44.3255 93.9611 44.3614C86.7359 44.5861 79.5205 44.9802 72.3116 45.5503C71.1331 45.6415 71.1233 47.4786 72.3116 47.3842Z" fill="#666666"/>
<path d="M92.9928 46.215C101.79 57.0391 102.591 71.5636 95.2546 83.3812C94.6276 84.3877 96.2262 85.3128 96.8499 84.3063C104.656 71.7362 103.619 56.3877 94.2993 44.9186C93.5508 44 92.2509 45.303 92.9928 46.215Z" fill="#666666"/>
<path d="M74.3273 84.2481C81.569 84.4207 88.8139 84.5901 96.0556 84.7627C97.2472 84.792 97.2439 82.9549 96.0556 82.9288C88.8139 82.7562 81.569 82.5868 74.3273 82.4142C73.1357 82.3848 73.139 84.222 74.3273 84.2481Z" fill="#666666"/>
<path d="M102.752 44.8365C111.251 49.5206 115.102 58.5141 112.627 67.8659C112.325 69.0092 114.107 69.4946 114.409 68.3545C117.085 58.247 112.899 48.3284 103.685 43.2535C102.644 42.6802 101.712 44.2633 102.752 44.8365Z" fill="#666666"/>
<path d="M112.719 73.3412C112.381 75.0904 112.056 76.8591 111.511 78.5594C111.192 79.5561 110.818 81.3184 109.833 81.8949C109.308 82.2044 108.015 82.0187 107.42 82.0643C103.901 82.3184 100.386 82.6115 96.8632 82.833C95.6814 82.9079 95.6748 84.7418 96.8632 84.6669C99.1742 84.5203 101.482 84.3444 103.793 84.1718C105.615 84.035 109.049 84.3933 110.723 83.6767C113.385 82.5366 114.035 76.2467 114.501 73.833C114.724 72.6799 112.942 72.1848 112.719 73.3444V73.3412Z" fill="#666666"/>
<path d="M109.567 83.7194C112.384 83.7031 115.325 84.7845 117.941 85.7422C119.058 86.1526 119.54 84.3806 118.434 83.9735C115.657 82.9539 112.561 81.866 109.57 81.8855C108.382 81.892 108.379 83.7259 109.57 83.7194H109.567Z" fill="#666666"/>
<path d="M19.7194 45.0251C26.2684 44.6408 32.824 44.3932 39.3861 44.3281C45.2392 44.2694 51.5026 43.8329 57.3097 44.5886C61.9581 45.1945 66.5867 46.3606 71.1923 47.2369C72.3544 47.4584 72.8534 45.6896 71.6847 45.4681C67.0167 44.5789 62.3093 43.3639 57.5953 42.7776C45.3245 41.2531 32.023 42.4649 19.7194 43.188C18.5376 43.2564 18.5278 45.0935 19.7194 45.0219V45.0251Z" fill="#666666"/>
<path d="M18.1534 44.3604C14.0467 59.0412 14.2174 74.3213 18.6589 88.9044C18.7705 89.2692 19.1415 89.6047 19.5518 89.5786C32.7024 88.7415 45.8628 88.6666 59.0232 89.3539C60.2115 89.4158 60.2082 87.5819 59.0232 87.52C52.1492 87.1617 45.2719 86.9826 38.388 87.0412C35.0955 87.0705 31.8062 87.1454 28.5169 87.2725C26.7672 87.3409 24.8862 87.5852 23.1365 87.5265C20.5005 87.4353 20.5071 87.621 19.5157 85.2399C17.139 79.5428 16.965 71.9207 16.965 65.8425C16.965 58.7187 18.0221 51.7056 19.9392 44.849C20.2576 43.7089 18.4751 43.2236 18.1567 44.3604H18.1534Z" fill="#666666"/>
<path d="M59.2564 89.0723C64.2035 87.0527 69.4066 85.5804 74.5703 84.2123C75.7192 83.9094 75.2301 82.1374 74.0779 82.4436C68.9142 83.8117 63.7111 85.284 58.764 87.3035C57.6774 87.7465 58.1534 89.5218 59.2564 89.0723Z" fill="#666666"/>
<path d="M72.5842 47.2438C76.7007 58.892 76.9798 71.1591 73.3721 82.9735C73.0274 84.107 74.8099 84.5891 75.1546 83.4621C78.8509 71.3578 78.585 58.6933 74.3667 46.7552C73.9761 45.6477 72.1903 46.1233 72.5842 47.2438Z" fill="#666666"/>
<path d="M58.9936 47.4592C61.4951 60.9836 61.6494 73.925 58.8984 87.4234C58.6654 88.5765 60.4446 89.0684 60.681 87.912C63.4877 74.1205 63.3301 60.7915 60.7762 46.9706C60.5628 45.811 58.7803 46.3028 58.9936 47.4592Z" fill="#666666"/>
<path d="M86.9986 46.5857C92.5267 57.9668 95.9637 71.9668 88.837 83.4392C88.21 84.4457 89.8087 85.3675 90.4324 84.3642C97.9235 72.3088 94.4143 57.6411 88.594 45.6606C88.0787 44.5987 86.4833 45.5271 86.9986 46.5857Z" fill="#666666"/>
<path d="M18.4588 45.6094C23.176 50.9514 28.2281 55.9937 32.9454 61.3358C33.7299 62.225 35.0332 60.9253 34.2519 60.0394C29.5346 54.6973 24.4825 49.655 19.7653 44.3129C18.9807 43.4237 17.6775 44.7234 18.4588 45.6094Z" fill="#666666"/>
<path d="M20.2576 88.3872C23.5666 83.1951 27.7061 78.6869 32.6368 74.9703C33.5723 74.2667 32.6532 72.6706 31.7045 73.3872C26.5145 77.2993 22.1452 81.9931 18.6622 87.4622C18.0254 88.4622 19.6241 89.384 20.2576 88.3872Z" fill="#666666"/>
<path d="M62.1254 59.6514C54.7327 45.241 31.757 52.228 30.7525 67.3485C29.6626 83.798 49.9038 91.3094 61.6921 81.1107C62.5915 80.3322 61.2784 79.0391 60.3855 79.8143C50.173 88.6515 32.7713 82.7068 32.5645 68.6058C32.361 54.5342 53.7183 47.2996 60.53 60.5765C61.0683 61.6286 62.6637 60.7003 62.1254 59.6514Z" fill="#666666"/>
<path d="M50.6426 57.5344C42.5376 57.3162 34.1798 67.567 41.3985 75.8765C48.6204 84.1892 57.2835 77.5963 59.5945 73.8699C61.9056 70.1436 61.3278 57.8211 50.6393 57.5344H50.6426Z" fill="#666666"/>
<path d="M43.5781 64.8498C41.5855 67.8791 41.8908 71.7456 44.2182 74.498C44.7927 75.1756 45.7677 74.1984 45.1998 73.5241C43.2597 71.2277 43.1382 68.0322 44.7763 65.5436C45.2654 64.8009 44.0639 64.1104 43.5781 64.8498Z" fill="white"/>
<path d="M47.176 77.9957H47.4649C48.3578 77.9957 48.3578 76.6211 47.4649 76.6211H47.176C46.2831 76.6211 46.2831 77.9957 47.176 77.9957Z" fill="white"/>
<path d="M133.997 59.1627C130.587 58.7197 126.605 59.521 125.252 63.078C124.011 66.3418 125.813 70.2767 129.014 71.6382C132.267 73.0193 136.305 71.3646 137.799 68.2278C139.381 64.8988 137.654 60.9021 134.463 59.2864C133.406 58.749 132.471 60.332 133.531 60.8695C135.914 62.078 137.369 65.0356 136.082 67.5698C134.874 69.9542 131.548 71.0715 129.205 69.6871C126.91 68.3353 125.948 65.1529 127.425 62.8923C128.82 60.7555 131.722 60.6969 133.997 60.9933C135.173 61.1464 135.163 59.3092 133.997 59.1594V59.1627Z" fill="#666666"/>
<path d="M142.86 6.03612C152.781 7.90257 159.993 15.2088 161.68 25.085C161.88 26.2479 163.66 25.7528 163.463 24.5964C161.674 14.1436 153.844 6.24133 143.35 4.26739C142.187 4.04915 141.688 5.81788 142.857 6.03612H142.86Z" fill="#666666"/>
<path d="M134.329 13.5697C138.101 12.7912 141.866 13.7717 144.768 16.2961C145.661 17.0713 146.97 15.7782 146.074 14.9997C142.66 12.029 138.284 10.8857 133.84 11.801C132.674 12.042 133.167 13.8108 134.332 13.5697H134.329Z" fill="#666666"/>
<path d="M150.371 21.3058C152.433 24.7944 153.355 28.5696 153.165 32.6022C153.109 33.7814 154.957 33.7781 155.013 32.6022C155.22 28.2635 154.183 24.1234 151.967 20.3807C151.366 19.3644 149.767 20.2862 150.371 21.3058Z" fill="#666666"/>
<path d="M90.7934 49.3669C92.333 49.1715 93.8726 48.9793 95.4121 48.7839C96.2853 48.6731 96.2952 47.2953 95.4121 47.4093C93.8726 47.6047 92.333 47.7969 90.7934 47.9923C89.9202 48.1031 89.9103 49.4809 90.7934 49.3669Z" fill="#666666"/>
<path d="M91.568 54.2899C93.6821 53.974 95.7962 53.658 97.9102 53.3421C98.79 53.2118 98.4158 51.886 97.5426 52.0163C95.4285 52.3323 93.3144 52.6482 91.2004 52.9642C90.3206 53.0945 90.6948 54.4202 91.568 54.2899Z" fill="#666666"/>
<path d="M93.1011 59.0741C95.2184 58.9796 97.3358 58.8819 99.4564 58.7874C100.346 58.7483 100.349 57.3705 99.4564 57.4128C97.339 57.5073 95.2217 57.605 93.1011 57.6995C92.2114 57.7386 92.2082 59.1164 93.1011 59.0741Z" fill="#666666"/>
<path d="M94.2665 65.1761C95.9965 64.9513 97.7232 64.7265 99.4532 64.5018C100.326 64.3878 100.336 63.0099 99.4532 63.1272C97.7232 63.3519 95.9965 63.5767 94.2665 63.8015C93.3933 63.9155 93.3835 65.2933 94.2665 65.1761Z" fill="#666666"/>
<path d="M93.9678 72.5545H99.1676C100.06 72.5545 100.06 71.1799 99.1676 71.1799H93.9678C93.0749 71.1799 93.0749 72.5545 93.9678 72.5545Z" fill="#666666"/>
<path d="M92.5199 78.5348C94.2532 78.3491 95.9865 78.1667 97.7198 77.9811C98.5963 77.8866 98.6061 76.512 97.7198 76.6065C95.9865 76.7921 94.2532 76.9778 92.5199 77.1602C91.6435 77.2547 91.6336 78.6293 92.5199 78.5348Z" fill="#666666"/>
<path d="M91.9455 83.4422C93.5836 83.3478 95.2184 83.25 96.8565 83.1556C97.7428 83.1035 97.7494 81.7289 96.8565 81.781C95.2184 81.8754 93.5836 81.9732 91.9455 82.0676C91.0592 82.1197 91.0526 83.4943 91.9455 83.4422Z" fill="#666666"/>
<path d="M140.202 12.7847C142.329 11.27 144.456 9.75211 146.583 8.23745C147.302 7.72605 146.609 6.53061 145.884 7.04852C143.757 8.56318 141.63 10.0811 139.502 11.5958C138.783 12.1072 139.476 13.3026 140.202 12.7847Z" fill="#666666"/>
<path d="M143.983 13.9701C146.009 12.5401 148.031 11.1101 150.056 9.68015C150.778 9.17201 150.086 7.97657 149.357 8.49123C147.332 9.9212 145.309 11.3512 143.284 12.7811C142.562 13.2893 143.254 14.4847 143.983 13.9701Z" fill="#666666"/>
<path d="M147.712 16.6091C148.993 14.9642 150.572 13.6091 152.374 12.557C153.142 12.1075 152.446 10.9186 151.675 11.3681C149.656 12.5473 147.946 14.0749 146.514 15.9153C145.969 16.6157 147.174 17.303 147.712 16.6091Z" fill="#666666"/>
<path d="M151.071 21.3357C152.692 19.5213 154.567 18.0262 156.707 16.8568C157.488 16.4301 156.789 15.2412 156.008 15.6679C153.772 16.8894 151.783 18.4627 150.089 20.3617C149.498 21.023 150.476 22.0002 151.071 21.3357Z" fill="#666666"/>
<path d="M153.037 25.3068C154.984 22.8149 157.265 20.652 159.885 18.867C160.617 18.3687 159.924 17.1765 159.185 17.6781C156.467 19.5315 154.078 21.7465 152.055 24.3328C151.514 25.0234 152.489 26.0038 153.037 25.3068Z" fill="#666666"/>
<path d="M155.095 28.4817C156.924 26.6642 158.749 24.8466 160.577 23.0322C161.208 22.4036 160.229 21.4329 159.596 22.0583C157.767 23.8759 155.942 25.6935 154.114 27.5078C153.483 28.1365 154.462 29.1072 155.095 28.4817Z" fill="#666666"/>
<path d="M114.291 30.1105C115.446 30.3027 116.602 30.4916 117.757 30.6838C118.631 30.8271 119.005 29.5014 118.125 29.358C116.97 29.1658 115.814 28.9769 114.659 28.7847C113.785 28.6414 113.411 29.9672 114.291 30.1105Z" fill="#666666"/>
<path d="M114.941 27.8001C116.034 27.4255 117.144 27.4874 118.165 28.0412C118.949 28.4646 119.648 27.2757 118.864 26.8522C117.534 26.1324 116.011 25.9793 114.573 26.4744C113.736 26.761 114.094 28.09 114.941 27.8001Z" fill="#666666"/>
<path d="M116.366 23.3748C117.328 23.212 118.24 23.4823 119.021 24.0393C119.747 24.5572 120.44 23.3651 119.721 22.8504C118.627 22.0686 117.314 21.8243 115.998 22.0458C115.122 22.1924 115.492 23.5181 116.366 23.3716V23.3748Z" fill="#666666"/>
<path d="M58.3667 11.8536C60.0672 16.7103 60.5235 21.681 59.6667 26.7559C59.5813 27.2673 60.146 27.9351 60.6843 27.5312C60.8321 27.4204 60.9765 27.3129 61.1242 27.2022C61.8267 26.6745 61.1374 25.479 60.425 26.0132C60.2773 26.124 60.1328 26.2315 59.9851 26.3422C60.3232 26.6028 60.6646 26.8602 61.0028 27.1175C61.9022 21.7885 61.4919 16.5898 59.7028 11.4823C59.4106 10.6517 58.0713 11.01 58.3667 11.8471V11.8536Z" fill="#666666"/>
<path d="M20.8912 46.6804C33.5822 47.6381 46.2929 48.0453 59.0167 47.8987C60.205 47.8857 60.2083 46.0518 59.0167 46.0648C46.2896 46.2114 33.5789 45.8042 20.8912 44.8466C19.7062 44.7586 19.7094 46.5925 20.8912 46.6804Z" fill="#666666"/>
<path d="M20.865 45.185C17.73 58.9016 17.2835 72.8691 19.5059 86.7583C19.6931 87.9212 21.4723 87.4261 21.2885 86.2697C19.1186 72.7094 19.588 59.058 22.6475 45.6703C22.9101 44.5205 21.1276 44.0286 20.865 45.1817V45.185Z" fill="#666666"/>
<path d="M21.4689 86.8268C34.0876 86.1558 46.992 86.1623 59.5976 87.1135C60.7827 87.2014 60.7794 85.3675 59.5976 85.2796C46.9953 84.3284 34.0844 84.3219 21.4689 84.9929C20.2838 85.0548 20.2773 86.892 21.4689 86.8268Z" fill="#666666"/>
<path d="M61.1799 44.6084C64.1606 58.4619 64.4856 72.5661 62.1352 86.5401C61.9415 87.6964 63.7207 88.1915 63.9177 87.0287C66.3239 72.7257 66.012 58.3023 62.9624 44.1231C62.7129 42.97 60.9304 43.4586 61.1799 44.6117V44.6084Z" fill="#666666"/>
<path d="M130.11 59.8947C125.925 63.5071 127.435 69.924 132.658 71.5364C133.797 71.8882 134.283 70.1162 133.15 69.7677C129.175 68.5397 128.328 63.8556 131.417 61.1911C132.316 60.4159 131.003 59.1227 130.11 59.8947Z" fill="#666666"/>
<path d="M124.297 81.3809C127.258 81.3907 130.13 80.9086 132.92 79.9151C134.033 79.521 133.554 77.7457 132.428 78.1464C129.789 79.0845 127.1 79.5535 124.297 79.547C123.108 79.5438 123.105 81.3776 124.297 81.3809Z" fill="#666666"/>
<path d="M136.745 77.8989C137.227 77.5178 137.71 77.1367 138.189 76.7556C138.58 76.4461 138.514 75.7817 138.189 75.4592C137.802 75.0748 137.273 75.1497 136.883 75.4592C136.4 75.8403 135.918 76.2214 135.438 76.6025C135.048 76.9119 135.113 77.5764 135.438 77.8989C135.826 78.2833 136.354 78.2084 136.745 77.8989Z" fill="#666666"/>
<path d="M76.123 46.8203C81.5854 57.9571 81.9859 70.5239 77.3803 82.0158C76.9404 83.1135 78.7295 83.5891 79.1628 82.5044C83.9556 70.5435 83.3909 57.4555 77.7184 45.8952C77.1965 44.8333 75.6043 45.7617 76.123 46.8203Z" fill="#666666"/>
</g>
<defs>
<clipPath id="clip0_62_800">
<rect width="169.316" height="89.5799" fill="white"/>
</clipPath>
</defs>
</svg>
