<svg width="173" height="172" viewBox="0 0 173 172" fill="none" xmlns="http://www.w3.org/2000/svg">
<g clip-path="url(#clip0_62_769)">
<path d="M57.2763 74.0941C65.0419 70.0272 65.2607 90.7604 65.6074 93.9477C65.989 97.474 69.8811 118.531 61.3499 114.684C60.1612 114.148 59.5623 116.095 60.741 116.625C63.669 117.946 66.7433 116.465 68.2275 113.696C70.8477 108.813 68.3676 100.613 67.8172 95.5334C67.2687 90.4661 67.7022 66.342 56.358 72.2821C55.1965 72.8925 56.1174 74.7021 57.2763 74.0941Z" fill="#666666"/>
<path d="M56.5355 72.6852C53.8731 86.7705 55.7129 101.434 58.9893 115.241C59.2918 116.512 61.283 116.086 60.9781 114.813C57.787 101.362 55.8834 87.0156 58.4751 73.2876C58.7147 72.0152 56.7758 71.3975 56.5355 72.6852Z" fill="#666666"/>
<path d="M123.359 94.1843C123.087 91.1971 120.136 89.5071 117.253 90.3453C112.229 91.8093 109.359 99.9018 106.954 103.91C104.988 107.192 103.019 110.47 101.053 113.752C99.7869 115.863 98.0792 118.065 97.4771 120.507C96.4664 124.605 99.3241 126.488 102.937 127.448C104.196 127.783 104.813 125.845 103.545 125.507C102.119 124.33 100.695 123.15 99.2659 121.969C99.5818 121.027 99.9 120.088 100.219 119.144C100.782 117.937 101.593 116.797 102.279 115.654C103.754 113.192 105.231 110.732 106.703 108.272C108.014 106.086 109.327 103.898 110.638 101.712C111.457 100.345 112.266 98.9727 113.095 97.6114C113.407 97.0833 113.726 96.5582 114.055 96.0437C115.292 93.627 117.728 93.1523 121.365 94.6121C121.484 95.9133 123.471 95.4724 123.354 94.1841L123.359 94.1843Z" fill="#666666"/>
<path d="M122.071 94.2222C117.826 106.287 111.304 117.139 102.62 126.538C101.738 127.493 103.095 129.002 103.987 128.037C112.914 118.373 119.65 107.224 124.014 94.8222C124.448 93.5865 122.509 92.9841 122.074 94.2198L122.071 94.2222Z" fill="#666666"/>
<path d="M123.023 95.3889C135.608 96.4994 133.056 111.494 127.816 118.62C122.817 125.415 113.12 134.444 104.606 127.722C103.581 126.915 102.501 128.641 103.519 129.445C113.837 137.591 126.434 125.575 131.467 116.784C136.425 108.129 135.117 94.4201 123.122 93.3613C121.816 93.2446 121.722 95.2775 123.025 95.3915L123.023 95.3889Z" fill="#666666"/>
<path d="M57.4809 73.0201C46.1436 73.2352 37.7531 84.518 38.4686 95.4687C39.1609 106.104 48.9432 116.529 59.9355 116.043C61.2343 115.986 61.3439 113.954 60.0322 114.013C50.774 114.425 42.2171 106.181 40.727 97.2686C39.0173 87.0636 46.4818 75.2592 57.3867 75.053C58.6915 75.0291 58.796 72.9966 57.4834 73.0227L57.4809 73.0201Z" fill="#666666"/>
<path d="M103.59 128.873C95.5961 144.698 78.1607 152.45 61.1475 147.478C59.8944 147.113 59.278 149.052 60.5387 149.419C78.3587 154.627 96.9043 146.588 105.31 129.954C105.894 128.796 104.182 127.698 103.59 128.873Z" fill="#666666"/>
<path d="M60.7681 149.488C61.7768 147.577 60.9795 145.157 59.0802 144.137C57.0115 143.023 54.7181 144.319 54.0864 146.472C53.4637 148.596 54.7107 150.967 57.0612 151.048C59.1131 151.119 61.2506 149.394 61.1026 147.24C61.0159 145.948 58.9834 145.845 59.0721 147.15C59.2254 149.406 55.3176 149.711 56.026 147.074C56.7345 144.437 60.0624 146.486 59.0454 148.409C58.4385 149.558 60.1502 150.651 60.7654 149.49L60.7681 149.488Z" fill="#666666"/>
<path d="M64.9881 44.1653C59.3951 52.5843 56.7537 62.2589 57.3446 72.3377C57.4209 73.6344 59.4509 73.7347 59.3752 72.4278C58.8039 62.6873 61.2969 53.3921 66.7082 45.2461C67.4324 44.1562 65.715 43.073 64.9881 44.1653Z" fill="#666666"/>
<path d="M61.2619 39.4785C55.0936 49.4567 52.5748 60.7955 53.8715 72.4263C54.0165 73.7286 56.0033 73.2877 55.8602 71.9983C54.6245 60.912 57.1047 50.0622 62.9819 40.5593C63.6714 39.4474 61.9543 38.359 61.2619 39.4785Z" fill="#666666"/>
<path d="M133.042 60.6972C132.262 72.4173 128.407 83.3595 121.686 93.0116C120.937 94.0851 122.655 95.1683 123.407 94.0924C130.316 84.165 134.274 72.8363 135.075 60.7849C135.163 59.475 133.13 59.3873 133.045 60.6948L133.042 60.6972Z" fill="#666666"/>
<path d="M139.257 57.6832C138.216 71.0659 133.687 83.6089 125.959 94.6041C125.205 95.6774 126.925 96.7582 127.679 95.6849C135.599 84.4171 140.226 71.4823 141.29 57.7709C141.391 56.4642 139.36 56.3741 139.26 57.6808L139.257 57.6832Z" fill="#666666"/>
<path d="M142.894 56.6208C138.162 57.2824 133.683 58.791 129.503 61.1103C128.358 61.7445 129.273 63.559 130.421 62.9224C134.465 60.6737 138.74 59.248 143.316 58.6076C144.618 58.4251 144.184 56.4403 142.894 56.6208Z" fill="#666666"/>
<path d="M60.4405 38.261C63.1211 39.9979 64.881 42.5501 65.5527 45.6752C65.8291 46.9552 67.8179 46.5271 67.5414 45.2471C66.7565 41.6008 64.6565 38.5682 61.5245 36.5404C60.4283 35.8323 59.3368 37.5501 60.4378 38.2635L60.4405 38.261Z" fill="#666666"/>
<path d="M66.7283 46.219C75.5537 36.6476 89.0954 31.9628 101.882 34.9788C115.166 38.1114 125.376 49.1027 128.457 62.2338C128.757 63.5072 130.746 63.0791 130.446 61.8057C127.203 47.9876 116.479 36.3627 102.49 33.0377C89.0405 29.8415 74.6794 34.6101 65.3606 44.7194C64.4792 45.6745 65.8387 47.1866 66.7283 46.219Z" fill="#666666"/>
<path d="M60.8489 37.3031C72.7031 24.9497 90.9648 19.2782 107.587 23.9724C123.529 28.4728 137.512 41.8781 142.108 57.8292C142.468 59.0822 144.461 58.6595 144.097 57.4012C139.302 40.7537 124.867 26.7353 108.196 22.0313C90.9228 17.1549 71.8276 22.9377 59.4811 35.8034C58.5774 36.7447 59.9398 38.2493 60.8489 37.3031Z" fill="#666666"/>
<path d="M140.379 51.6386C135.679 51.5093 131.701 52.3552 128.359 55.867C127.463 56.8112 128.823 58.3182 129.727 57.3666C132.695 54.2447 136.11 53.5502 140.282 53.6688C141.592 53.7039 141.688 51.6737 140.379 51.6386Z" fill="#666666"/>
<path d="M64.5371 33.4037C66.8808 35.1307 68.3501 37.5576 68.8763 40.4104C69.1165 41.699 71.1055 41.2659 70.8651 39.9823C70.2347 36.5805 68.3997 33.7259 65.6239 31.6806C64.5743 30.9056 63.4876 32.6287 64.5371 33.4037Z" fill="#666666"/>
<path d="M51.2116 81.0893C47.7139 83.3571 45.8891 87.1586 46.3003 91.2971C46.4301 92.5987 48.4169 92.1578 48.2891 90.869C47.9767 87.7139 49.4658 84.6285 52.13 82.9013C53.222 82.1932 52.309 80.3763 51.2116 81.0893Z" fill="#666666"/>
<path d="M46.6024 97.4622C47.4819 98.4265 48.9889 97.0569 48.107 96.09C47.2251 95.123 45.7206 96.4952 46.6024 97.4622Z" fill="#666666"/>
<path d="M113.61 97.3767C115.906 97.5859 117.998 98.3816 119.88 99.6997C120.951 100.45 122.038 98.7271 120.967 97.9766C118.802 96.462 116.339 95.5859 113.707 95.3465C112.399 95.2271 112.309 97.2602 113.61 97.3767Z" fill="#666666"/>
<path d="M111.609 101.542C113.853 101.78 115.838 102.658 117.586 104.075C118.597 104.894 119.676 103.168 118.672 102.351C116.659 100.718 114.28 99.7846 111.706 99.512C110.404 99.3724 110.31 101.405 111.609 101.542Z" fill="#666666"/>
<path d="M107.76 106.752C109.689 106.612 111.528 107.175 112.95 108.508C113.897 109.396 115.408 108.032 114.454 107.136C112.661 105.454 110.332 104.542 107.856 104.721C106.566 104.815 106.454 106.845 107.76 106.752Z" fill="#666666"/>
<path d="M104.013 111.013C106.349 111.669 108.335 112.869 109.983 114.649C110.87 115.606 112.377 114.236 111.488 113.277C109.611 111.251 107.286 109.819 104.622 109.072C103.366 108.72 102.747 110.66 104.013 111.013Z" fill="#666666"/>
<path d="M101.352 116.334C103.11 116.834 104.626 117.847 105.666 119.362C106.395 120.425 108.218 119.514 107.482 118.438C106.126 116.459 104.281 115.053 101.961 114.393C100.705 114.036 100.091 115.976 101.352 116.334Z" fill="#666666"/>
<path d="M64.0322 78.3394C62.2577 77.2741 60.2879 76.8749 58.2328 77.0853C56.928 77.2165 57.365 79.204 58.6546 79.0721C60.1599 78.9191 61.653 79.2895 62.9455 80.0625C64.064 80.7307 65.158 79.0156 64.0322 78.3394Z" fill="#666666"/>
<path d="M64.8022 82.9463C62.3363 82.2285 59.8174 82.7302 57.7608 84.2594C56.7113 85.0409 58.0844 86.5358 59.1286 85.7591C60.5887 84.6763 62.4636 84.3863 64.1906 84.8898C65.4438 85.2546 66.0601 83.3165 64.7995 82.9487L64.8022 82.9463Z" fill="#666666"/>
<path d="M65.426 89.0082C63.5616 88.8105 61.6914 89.2182 60.0763 90.174C58.9505 90.8398 59.8661 92.6542 60.9946 91.9861C62.3362 91.1919 63.7827 90.8778 65.3266 91.0409C66.6288 91.1805 66.7231 89.1476 65.4233 89.0107L65.426 89.0082Z" fill="#666666"/>
<path d="M65.7048 95.6595C63.5217 95.445 61.3436 95.9286 59.4547 97.0512C58.3313 97.7195 59.247 99.534 60.373 98.8632C61.9857 97.9047 63.743 97.5073 65.608 97.6897C66.9134 97.8166 67.005 95.7862 65.7048 95.6595Z" fill="#666666"/>
<path d="M65.7776 103.415C63.636 104.207 61.4944 104.998 59.3501 105.793C58.1218 106.249 59.0532 108.054 60.2685 107.605C62.41 106.813 64.5516 106.021 66.6959 105.227C67.9242 104.77 66.9928 102.965 65.7776 103.415Z" fill="#666666"/>
</g>
<defs>
<clipPath id="clip0_62_769">
<rect width="110.251" height="133.42" fill="white" transform="translate(98.5784) rotate(47.6342)"/>
</clipPath>
</defs>
</svg>
