<svg width="110" height="115" viewBox="0 0 110 115" fill="none" xmlns="http://www.w3.org/2000/svg">
<g clip-path="url(#clip0_62_722)">
<path d="M10.6904 31.902C13.4205 37.6848 15.7742 43.6037 17.7676 49.6802C17.9599 50.262 18.591 50.3844 19.0433 50.0173C21.1126 48.3262 23.886 46.453 26.7191 47.3883C30.5353 48.6498 30.167 52.4507 28.4254 54.9139C27.0468 56.8633 24.7934 58.1248 22.6564 59.109C22.2907 59.2776 22.177 59.8349 22.3828 60.1558C26.1801 66.1208 30.1236 72.4121 32.4746 79.1113C32.6317 79.5599 33.1517 79.8453 33.5959 79.568C45.3642 72.2164 58.4813 66.6727 71.2924 61.5016C83.6376 56.518 96.0667 51.5779 108.723 47.429C109.211 47.2686 109.409 46.7575 109.178 46.3035C106.405 40.8441 103.147 34.4141 102.927 28.1908C102.906 27.5954 102.299 27.2582 101.779 27.5301C99.2194 28.8596 95.3544 30.3087 92.4997 29.2892C89.3199 28.1554 88.2636 23.0686 89.8887 20.2845C91.0967 18.2182 93.7293 17.6799 95.9232 18.085C96.5976 18.2101 97.0797 17.582 96.7845 16.9594C94.3767 11.9024 92.4157 6.34792 91.8036 0.760776C91.7494 0.260516 91.3621 -0.101085 90.8394 0.0212614C78.0067 3.07176 65.1414 6.73399 52.8937 11.655C38.6689 17.3699 24.9803 24.6074 10.9666 30.8525C10.0701 31.2522 10.8475 32.5708 11.7358 32.1738C25.9282 25.8472 39.7983 18.4303 54.2507 12.7534C66.2221 8.04989 78.738 4.46922 91.243 1.49757C90.9206 1.25016 90.5983 1.00547 90.2787 0.758057C90.9206 6.64155 92.9303 12.4027 95.4682 17.7315C95.7553 17.3564 96.0424 16.9812 96.3295 16.606C89.5935 15.3608 85.5525 21.8668 88.7078 27.908C91.3838 33.033 98.5233 30.9449 102.551 28.8515C102.169 28.6312 101.787 28.411 101.402 28.1908C101.633 34.6942 104.959 41.3634 107.862 47.0783C108.014 46.7031 108.165 46.3279 108.317 45.9527C95.1865 50.2566 82.2806 55.3843 69.4858 60.5908C57.0187 65.6641 44.2862 71.0881 32.8267 78.2467C33.2005 78.3989 33.5742 78.5512 33.948 78.7034C31.5483 71.8657 27.5777 65.4683 23.7019 59.3836C23.6098 59.7316 23.5204 60.0824 23.4283 60.4304C27.5235 58.5462 32.7996 54.5251 30.8685 49.2941C28.6502 43.2883 21.4755 46.0724 17.9707 48.9325C18.396 49.044 18.8212 49.1582 19.2464 49.2697C17.2097 43.0654 14.7991 37.0269 12.0148 31.1244C11.595 30.2353 10.2787 31.0102 10.6985 31.8965L10.6904 31.902Z" fill="#666666"/>
<path d="M30.4351 61.6798C31.8002 64.5563 33.2167 67.4083 34.617 70.2685C34.7606 70.5621 35.137 70.6029 35.3998 70.4751C47.2764 64.6895 59.7868 60.1953 71.8991 54.9236C77.7575 52.3733 83.5022 49.4452 89.5908 47.4904C93.0631 46.3757 96.5705 45.3534 100.083 44.3801C100.392 44.2958 100.549 43.9777 100.484 43.6732C99.8126 40.6526 99.0027 37.6483 97.941 34.7419C97.8029 34.364 97.4562 34.2416 97.1014 34.3993C90.6769 37.2242 81.6929 33.3553 81.3056 25.865C81.0077 20.0794 85.5173 16.9555 89.7344 14.0192C89.9971 13.8343 90.0919 13.5271 89.9402 13.2334C88.9245 11.2623 87.9116 9.28846 86.8959 7.31733C86.7794 7.08895 86.4869 6.99379 86.2513 7.05361C63.4162 12.8746 41.1742 21.4986 21.1586 34.0785C20.942 34.2145 20.8309 34.4755 20.8959 34.7283C21.5324 37.1725 22.1662 39.6194 22.8027 42.0636C22.8948 42.4144 23.3308 42.602 23.6423 42.4062C24.723 41.7265 25.9987 41.2534 27.2554 41.0468C31.784 40.2964 34.1728 43.7738 35.5379 47.6481C37.4799 53.1618 35.5839 57.8572 30.641 60.8968C30.0153 61.2829 30.5895 62.2752 31.2179 61.8892C33.6338 60.402 35.4377 58.4607 36.7134 55.9323C38.3493 52.6914 37.4013 49.07 36.0769 45.8863C33.7368 40.2638 28.3713 38.086 23.0654 41.4166C23.3444 41.5308 23.626 41.6449 23.905 41.7591C23.4283 39.9212 22.9489 38.086 22.4722 36.2481C22.3829 35.9056 22.3477 35.3264 22.1554 35.0274C21.7382 34.3803 22.3233 34.4972 21.7518 35.06C22.0308 34.7854 22.4885 34.6032 22.8189 34.4021C28.1113 31.1776 33.558 28.1977 39.0914 25.4137C53.2134 18.3122 68.1452 13.1736 83.3641 9.00843C84.1441 8.79364 85.1652 8.69576 85.8856 8.33144C86.7632 7.88556 86.0481 8.12482 86.0725 8.21454C86.5438 10.0824 88.0632 12.0861 88.9516 13.8098C89.0193 13.5488 89.0898 13.2851 89.1575 13.0241C83.8407 16.7244 78.5267 21.1316 80.5689 28.418C82.5055 35.3346 91.4895 38.1078 97.6783 35.3863C97.3993 35.2721 97.1177 35.1579 96.8387 35.0437C97.8977 37.9501 98.7102 40.9544 99.3819 43.975C99.5146 43.7384 99.6474 43.5046 99.7801 43.2681C96.2645 44.2441 92.7597 45.2637 89.2875 46.3784C83.4426 48.2571 77.939 51.0384 72.3189 53.4935C59.8816 58.9257 47.0272 63.5368 34.8229 69.4801C35.0829 69.548 35.3456 69.616 35.6056 69.6867C34.2026 66.8292 32.7888 63.9745 31.4237 61.098C31.1068 60.4319 30.121 61.0137 30.4351 61.6771V61.6798Z" fill="#666666"/>
<path d="M39.2023 38.6694C37.7235 36.6466 36.6889 34.4852 36.0551 32.0546C35.7761 32.2721 35.4944 32.4869 35.2155 32.7017C37.6125 33.9958 40.0095 35.29 42.4065 36.5841C42.7098 36.7472 43.173 36.6195 43.2461 36.2416C43.8149 33.3623 44.7682 30.6734 46.1523 28.0851C45.8029 28.0389 45.4562 27.9927 45.1068 27.9492C45.6485 30.4967 46.721 32.6582 48.3813 34.6538C48.8526 35.222 49.6597 34.4064 49.1912 33.8408C47.6555 31.9975 46.7075 29.9856 46.2119 27.642C46.1089 27.1607 45.3939 27.0819 45.1664 27.506C43.7363 30.1813 42.7342 32.9572 42.1437 35.937C42.4227 35.8229 42.7044 35.7087 42.9834 35.5945C40.5864 34.3003 38.1894 33.0062 35.7924 31.712C35.3563 31.4755 34.8227 31.867 34.9527 32.3591C35.6136 34.8903 36.6699 37.1388 38.2165 39.2485C38.6471 39.8385 39.6411 39.2649 39.205 38.6694H39.2023Z" fill="#666666"/>
<path d="M52.268 27.2425C53.5085 27.3404 54.4781 28.4931 54.5567 29.7139C54.6461 31.057 53.5275 31.9542 52.268 32.0113C49.2562 32.1499 49.0747 27.8868 51.8049 27.2642C52.5226 27.1011 52.2193 25.9918 51.5015 26.1577C49.6543 26.5791 48.4437 28.5122 48.7172 30.3745C48.9881 32.2288 50.7106 33.3054 52.5009 33.1423C54.294 32.9792 55.7836 31.5871 55.7024 29.7112C55.6184 27.827 54.1314 26.2392 52.268 26.0897C51.534 26.0326 51.5367 27.1799 52.268 27.237V27.2425Z" fill="#666666"/>
<path d="M54.6841 26.4128C56.0844 27.6933 57.4874 28.9711 58.8877 30.2517C59.1721 30.51 59.7761 30.4556 59.8438 29.9989C60.1823 27.7504 60.5182 25.5047 60.8567 23.2562C60.9651 22.533 59.8627 22.2204 59.7544 22.9517C59.4158 25.2002 59.08 27.4459 58.7414 29.6944L59.6975 29.4415C58.2972 28.1609 56.8942 26.8831 55.494 25.6026C54.9496 25.105 54.1397 25.9152 54.6841 26.4155V26.4128Z" fill="#666666"/>
<path d="M62.2407 22.4477C62.414 24.3591 63.0992 26.061 64.2937 27.5591C64.7541 28.1355 65.5585 27.3198 65.1035 26.7462C64.1149 25.5064 63.5299 24.0274 63.3863 22.4477C63.3213 21.7191 62.1757 21.7109 62.2434 22.4477H62.2407Z" fill="#666666"/>
<path d="M65.7699 20.4688C65.4747 22.3964 66.3983 24.411 68.2888 25.1261C70.1603 25.833 72.2215 24.9385 73.2372 23.2827C73.6245 22.652 72.6359 22.0756 72.2486 22.7036C70.5774 25.4279 66.3766 24.0032 66.8723 20.776C66.9833 20.0528 65.881 19.7401 65.7699 20.4715V20.4688Z" fill="#666666"/>
<path d="M66.5419 21.3522C67.6902 20.5229 68.9741 19.9928 70.3852 19.8351C71.1083 19.7535 71.1165 18.6062 70.3852 18.6877C68.7736 18.8672 67.2867 19.4082 65.965 20.3598C65.3718 20.7867 65.9433 21.7845 66.5419 21.3522Z" fill="#666666"/>
<path d="M68.1288 23.5844C68.8709 23.1603 69.6104 22.7334 70.3525 22.3093C70.9917 21.9423 70.4148 20.9499 69.7756 21.3169C69.0335 21.7411 68.294 22.1679 67.5519 22.5921C66.9127 22.9591 67.4896 23.9515 68.1288 23.5844Z" fill="#666666"/>
<path d="M47.2818 43.623C47.8316 42.9188 48.4166 42.2744 49.0666 41.6654C49.481 41.2766 49.0504 40.5399 48.5114 40.7057C47.9074 40.8906 47.2899 41.1896 46.6778 41.3256C45.8273 41.5132 45.7731 41.244 45.1502 40.5942C44.8008 40.2299 44.1806 40.5127 44.1724 40.9993C44.1562 42.0841 44.2131 42.3071 43.1893 42.8155C42.4526 43.1825 41.7321 43.5795 41.0225 43.9955C40.5187 44.2891 40.7543 45.0422 41.3123 45.0667C42.439 45.1129 43.563 45.1564 44.6898 45.2026C44.5002 45.0123 44.3079 44.8192 44.1183 44.6289C44.102 45.6376 44.0749 46.6436 44.0749 47.6522C44.0749 48.3102 45.0066 48.4162 45.1989 47.8045C45.4075 47.1438 45.6973 45.7056 46.285 45.3576C46.7374 45.0884 47.856 45.3304 48.3787 45.3521C48.8879 45.3712 49.1154 44.7187 48.7823 44.3706C48.2839 43.8514 47.7828 43.3321 47.2845 42.8128C46.7726 42.2799 45.9627 43.0928 46.4746 43.6257C46.973 44.145 47.4741 44.6643 47.9724 45.1836C48.1078 44.8573 48.2433 44.5311 48.376 44.2021C47.558 44.1695 46.7374 44.1368 45.9194 44.1042C45.7244 44.096 45.5185 44.2184 45.4265 44.3897C44.8766 45.3929 44.4379 46.407 44.0939 47.5C44.4677 47.5516 44.8441 47.6006 45.2179 47.6522C45.2179 46.6436 45.245 45.6376 45.2612 44.6289C45.2667 44.3108 44.9958 44.0661 44.6898 44.0553C43.563 44.009 42.439 43.9655 41.3123 43.9193C41.4071 44.2755 41.5046 44.6317 41.6021 44.9878C42.7099 44.338 43.842 43.7562 45.0094 43.2206C45.1881 43.139 45.291 42.9106 45.2937 42.7258C45.3019 42.1494 45.3127 41.573 45.3208 40.9993L44.3431 41.4044C44.7358 41.815 45.1312 42.2228 45.524 42.6333C45.654 42.7693 45.8977 42.8536 46.0792 42.7801C46.9811 42.4267 47.8912 42.0977 48.8175 41.8122C48.6333 41.4914 48.4464 41.1733 48.2622 40.8525C47.6095 41.4642 47.0272 42.1086 46.4773 42.8101C46.0277 43.3864 46.8322 44.2021 47.2872 43.623H47.2818Z" fill="#666666"/>
<path d="M59.9736 40.6287C59.6053 40.1366 58.9851 39.5547 58.7494 38.9865C58.6059 38.8424 58.5138 38.6711 58.4786 38.4699C58.7115 38.1219 58.9688 37.793 59.2478 37.4803C59.6026 37.0643 59.2749 36.3547 58.6925 36.5206C58.0858 36.6918 57.4873 36.8849 56.8887 37.0942C57.1054 37.1812 57.3193 37.2709 57.5333 37.3579C57.127 36.8142 56.7208 36.2677 56.3118 35.7239C56.0328 35.3515 55.4017 35.3433 55.2663 35.8599C55.0713 36.6048 55.0578 37.5238 54.5025 38.0975C54.0611 38.5515 53.021 38.8669 52.4603 39.1986C51.9647 39.4922 52.1868 40.2562 52.7502 40.2698C53.5437 40.2861 54.3238 40.3459 55.1146 40.4356C54.9251 40.2453 54.7328 40.0523 54.5432 39.862C54.4429 41.1887 54.4457 42.4938 54.5567 43.8205C54.5865 44.1685 54.9007 44.503 55.2799 44.3752C55.5968 44.2691 55.9136 44.1631 56.2278 44.0544C56.4933 43.9646 56.6178 43.7662 56.6476 43.4997C56.7749 42.3904 57.0512 41.36 57.4548 40.3242C57.2191 40.4574 56.9862 40.5906 56.7506 40.7238C57.6254 40.9277 58.4786 41.167 59.3236 41.4688C60.0197 41.7162 60.3176 40.6069 59.627 40.3622C58.7792 40.0632 57.926 39.8212 57.0539 39.6173C56.7289 39.5411 56.4662 39.7179 56.3497 40.0169C55.9055 41.1588 55.6401 42.2817 55.502 43.497C55.6428 43.3121 55.7809 43.1272 55.9218 42.9424C55.6049 43.0484 55.288 43.1544 54.9738 43.2632C55.2149 43.4481 55.4559 43.6329 55.697 43.8178C55.5859 42.491 55.5805 41.186 55.6834 39.8592C55.7078 39.5248 55.399 39.3182 55.1119 39.2856C54.3238 39.1959 53.541 39.136 52.7474 39.1197C52.8449 39.4759 52.9397 39.8321 53.0373 40.1882C53.7983 39.7396 55.1526 39.3862 55.7213 38.7527C56.1547 38.2687 56.2062 36.7816 56.3687 36.1644C56.0193 36.2106 55.6726 36.2568 55.3232 36.3003C55.7295 36.8441 56.1357 37.3906 56.5447 37.9343C56.691 38.1301 56.9347 38.2878 57.1893 38.1981C57.7852 37.9887 58.3838 37.7957 58.9932 37.6244C58.8063 37.3036 58.6221 36.9855 58.4379 36.6646C57.9992 37.1812 57.6037 37.7114 57.2354 38.2769C57.1352 38.4319 57.1216 38.7037 57.2354 38.856C57.8177 39.6363 58.4027 40.4193 58.985 41.1996C59.4211 41.7842 60.4151 41.2132 59.9736 40.6205V40.6287Z" fill="#666666"/>
<path d="M72.7956 36.7876C72.327 36.1459 71.8558 35.5016 71.3872 34.86C70.8455 34.1177 70.7832 33.9301 71.1272 33.0791C71.3059 32.6333 70.7995 32.3043 70.423 32.3722C70.0411 32.4293 69.6619 32.5082 69.2908 32.6115C69.5048 32.6985 69.7215 32.7882 69.9355 32.8752C69.4046 32.1493 68.8737 31.4234 68.3456 30.6975C68.0476 30.2896 67.4762 30.3495 67.3001 30.8334C67.0211 31.6083 67.0103 33.0084 66.5878 33.6582C66.1951 34.2618 64.9735 34.8844 64.4345 35.3983C64.0852 35.7327 64.3425 36.4042 64.8381 36.3798C65.6615 36.339 66.474 36.3499 67.2947 36.4097C67.1105 36.2683 66.9263 36.1296 66.7422 35.9883C66.9047 36.9534 67.1755 37.8425 67.5547 38.7424C67.6522 38.9735 67.9799 39.0659 68.1993 39.0061C69.2827 38.7125 69.456 37.2199 69.8325 36.2819C69.5969 36.4151 69.364 36.5483 69.1283 36.6843C70.1657 36.9208 71.1624 37.2307 72.1483 37.6331C72.8308 37.9105 73.126 36.8012 72.4516 36.5266C71.4657 36.1242 70.4717 35.8143 69.4317 35.5777C69.104 35.5043 68.8494 35.6783 68.7275 35.9801C68.5595 36.3961 68.1912 37.8235 67.8933 37.9023C68.1072 37.9893 68.3239 38.079 68.5379 38.166C68.1966 37.3504 67.9881 36.551 67.8418 35.6838C67.7985 35.4255 67.5249 35.2786 67.2893 35.2623C66.4659 35.2025 65.6561 35.1916 64.8327 35.2324C64.9681 35.5587 65.1035 35.8849 65.2363 36.2139C65.805 35.6729 66.4036 35.2134 67.0672 34.7893C67.2839 34.6506 67.5601 34.569 67.701 34.3379C67.8283 34.134 67.7958 33.699 67.8147 33.525C67.9041 32.6931 68.1127 31.9236 68.3943 31.1406C68.0449 31.1868 67.6983 31.2331 67.3489 31.2766C67.8797 32.0025 68.4106 32.7284 68.9387 33.4543C69.0958 33.6691 69.3179 33.7833 69.5834 33.7181C69.9571 33.6175 70.3336 33.5359 70.7155 33.4788C70.4799 33.2423 70.2469 33.0084 70.0113 32.7719C69.7106 33.5141 69.4073 33.8785 69.7621 34.5826C70.2469 35.5505 71.1597 36.494 71.7989 37.3694C72.2295 37.9594 73.2235 37.3857 72.7875 36.7903L72.7956 36.7876Z" fill="#666666"/>
<path d="M41.0876 55.9384C41.0036 57.8524 40.9196 59.7692 40.833 61.6832C40.8005 62.4227 41.9434 62.42 41.9759 61.6832C42.0599 59.7692 42.1439 57.8524 42.2305 55.9384C42.263 55.1989 41.1201 55.2016 41.0876 55.9384Z" fill="#666666"/>
<path d="M41.6589 56.2031C42.5121 57.5815 43.3625 58.9627 44.2157 60.3411C44.603 60.9691 45.5943 60.3927 45.2043 59.762C44.3511 58.3836 43.5007 57.0024 42.6475 55.624C42.2602 54.9986 41.2716 55.5723 41.6589 56.2031Z" fill="#666666"/>
<path d="M42.0817 61.67C42.9592 60.7429 43.8367 59.8131 44.7143 58.886C45.2208 58.3504 44.4136 57.5374 43.9045 58.073C43.0269 59.0002 42.1494 59.93 41.2718 60.8571C40.7653 61.3927 41.5725 62.2056 42.0817 61.67Z" fill="#666666"/>
<path d="M46.7915 53.7177C46.9242 55.5773 47.688 57.2603 49.0341 58.5517C49.565 59.0628 50.3775 58.2526 49.844 57.7388C48.7199 56.6594 48.0482 55.2783 47.9372 53.715C47.8857 52.9809 46.74 52.9754 46.7942 53.715L46.7915 53.7177Z" fill="#666666"/>
<path d="M48.5929 54.9154C48.387 54.0807 49.2781 53.45 50.0229 53.6675C50.6215 53.8415 50.9953 54.4532 51.1036 55.0486C51.3257 56.2884 50.3886 57.3841 49.4758 58.0774C48.8962 58.5178 49.465 59.5129 50.0527 59.0697C51.8186 57.7348 53.2731 55.1519 51.4151 53.208C49.8577 51.5794 46.9299 52.9388 47.4905 55.2226C47.6666 55.9404 48.7689 55.6359 48.5929 54.9181V54.9154Z" fill="#666666"/>
<path d="M52.7853 52.698C53.4164 53.9758 54.0474 55.2537 54.6758 56.5342C55.0035 57.1976 55.9894 56.6158 55.6644 55.9551C55.0333 54.6773 54.4023 53.3994 53.7739 52.1189C53.4462 51.4555 52.4603 52.0373 52.7853 52.698Z" fill="#666666"/>
<path d="M53.5384 52.6781C54.5839 53.1974 55.6294 53.7167 56.6775 54.236C57.0811 54.4371 57.5063 54.1897 57.5388 53.7411C57.6336 52.4497 57.9695 51.316 58.5816 50.1768C58.281 50.2148 57.983 50.2556 57.6824 50.2937C58.6954 51.4193 59.3291 52.7025 59.6433 54.187C59.7977 54.9102 60.9 54.603 60.7457 53.8825C60.3909 52.2077 59.6325 50.7532 58.4895 49.4835C58.2457 49.2143 57.7609 49.285 57.5903 49.6004C56.8888 50.9109 56.5015 52.2621 56.3932 53.7438C56.6803 53.578 56.9674 53.4122 57.2544 53.249C56.209 52.7297 55.1635 52.2104 54.1153 51.6912C53.4572 51.3649 52.8776 52.3545 53.5384 52.6835V52.6781Z" fill="#666666"/>
<path d="M60.399 49.511C61.1357 50.7889 61.8724 52.0667 62.6118 53.3472C62.9801 53.9862 63.9687 53.4098 63.6004 52.7681C62.8637 51.4903 62.127 50.2125 61.3876 48.9319C61.0192 48.293 60.0306 48.8694 60.399 49.511Z" fill="#666666"/>
<path d="M63.6816 48.7863C64.4237 48.3622 65.1658 47.9353 65.9052 47.5112C66.5444 47.1442 65.9675 46.1518 65.3283 46.5188C64.5862 46.943 63.8468 47.3698 63.1047 47.794C62.4655 48.161 63.0424 49.1534 63.6816 48.7863Z" fill="#666666"/>
<path d="M63.8522 48.2587C64.4887 49.5339 65.1225 50.8117 65.7589 52.0868C66.0894 52.7475 67.0753 52.1657 66.7475 51.5077C66.1111 50.2326 65.4773 48.9548 64.8408 47.6796C64.5103 47.019 63.5245 47.6008 63.8522 48.2587Z" fill="#666666"/>
<path d="M72.3811 44.2161C70.8887 44.6267 69.9435 46.1818 70.1629 47.7098C70.385 49.2568 71.8178 50.1758 73.3155 50.0453C74.7971 49.9175 76.0511 48.7729 76.0105 47.2204C75.9671 45.6435 74.7889 44.3385 73.2478 44.1427C72.5193 44.0503 72.5247 45.2003 73.2478 45.2901C74.1606 45.4043 74.8377 46.3287 74.8675 47.2204C74.9027 48.2209 74.0685 48.8626 73.1341 48.9088C70.9023 49.0203 70.6775 45.8719 72.6872 45.32C73.3968 45.1242 73.0962 44.0177 72.3838 44.2134L72.3811 44.2161Z" fill="#666666"/>
<path d="M75.8697 44.6113C76.108 45.9136 76.712 47.0827 77.6058 48.0533C78.1069 48.5971 78.914 47.7842 78.4156 47.2404C77.6491 46.4085 77.1752 45.4161 76.9747 44.3041C76.842 43.5782 75.7397 43.8854 75.8724 44.6086L75.8697 44.6113Z" fill="#666666"/>
<path d="M75.951 44.696C77.1888 45.0032 78.4293 45.3132 79.667 45.6204C80.0462 45.7156 80.5473 45.3404 80.3712 44.9135C79.9785 43.9674 79.5885 43.0212 79.1957 42.0751C78.9168 41.4035 77.809 41.6972 78.0934 42.3796C78.4861 43.3257 78.8762 44.2719 79.2689 45.218C79.5045 44.9815 79.7374 44.7477 79.9731 44.5111C78.7353 44.2039 77.4948 43.894 76.2571 43.5867C75.542 43.41 75.2387 44.5166 75.9537 44.6933L75.951 44.696Z" fill="#666666"/>
<path d="M81.2704 41.7434C81.5738 43.2823 82.2807 44.658 83.3235 45.8244C83.8164 46.3763 84.6235 45.5607 84.1333 45.0115C83.2151 43.9865 82.6382 42.7875 82.3728 41.4362C82.2292 40.713 81.1269 41.0175 81.2704 41.7407V41.7434Z" fill="#666666"/>
<path d="M81.6577 42.1439C82.6111 41.9318 83.5644 41.7198 84.5178 41.505C85.2356 41.3446 84.9322 40.238 84.2145 40.3984C83.2611 40.6105 82.3077 40.8225 81.3543 41.0373C80.6366 41.1977 80.9399 42.3043 81.6577 42.1439Z" fill="#666666"/>
<path d="M82.2913 44.696C83.3503 44.3779 84.4093 44.0571 85.4683 43.739C86.1725 43.5269 85.8719 42.4177 85.165 42.6324C84.106 42.9505 83.047 43.2714 81.988 43.5895C81.2838 43.8015 81.5844 44.9108 82.2913 44.696Z" fill="#666666"/>
<path d="M84.2226 46.6648C84.9675 46.3548 85.7123 46.0476 86.4598 45.7377C87.1315 45.4603 86.8363 44.3483 86.1565 44.6311C85.4117 44.941 84.6668 45.2483 83.9193 45.5582C83.2476 45.8355 83.5428 46.9475 84.2226 46.6648Z" fill="#666666"/>
<path d="M14.149 30.9017C13.8159 33.2398 13.4827 35.5753 13.1496 37.9135C13.0467 38.6367 14.149 38.9493 14.2519 38.218C14.5851 35.8798 14.9182 33.5443 15.2514 31.2062C15.3543 30.483 14.2519 30.1703 14.149 30.9017Z" fill="#666666"/>
<path d="M16.9252 29.2894C16.2751 33.0087 15.6224 36.7253 14.9724 40.4447C14.8451 41.1679 15.9474 41.4778 16.0747 40.7492C16.7248 37.0298 17.3775 33.3132 18.0275 29.5939C18.1548 28.8707 17.0525 28.5608 16.9252 29.2894Z" fill="#666666"/>
<path d="M20.1727 27.1302C19.0595 32.7554 17.949 38.3806 16.8359 44.0031C16.6923 44.7263 17.7947 45.0335 17.9382 44.3076C19.0514 38.6824 20.1619 33.0572 21.275 27.4347C21.4186 26.7142 20.3162 26.4043 20.1727 27.1302Z" fill="#666666"/>
<path d="M97.8515 40.3434C97.429 41.3004 97.0038 42.2574 96.5813 43.2144C96.286 43.8832 97.2692 44.4678 97.5698 43.7935C97.9924 42.8365 98.4176 41.8795 98.8401 40.9225C99.1353 40.2536 98.1522 39.6691 97.8515 40.3434Z" fill="#666666"/>
<path d="M97.1259 37.1079C95.8773 39.669 94.626 42.2328 93.3773 44.7939C93.055 45.4546 94.0409 46.0392 94.3659 45.373C95.6145 42.8119 96.8659 40.2481 98.1145 37.687C98.4368 37.0263 97.4509 36.4418 97.1259 37.1079Z" fill="#666666"/>
<path d="M94.1275 36.2654C92.7923 39.683 91.457 43.1032 90.119 46.5208C89.8509 47.2086 90.9559 47.5077 91.2214 46.8253C92.5566 43.4077 93.8919 39.9875 95.2299 36.5699C95.498 35.8821 94.393 35.583 94.1275 36.2654Z" fill="#666666"/>
<path d="M29.6872 88.7149C34.1643 86.1375 38.8689 84.1799 43.8498 82.8205C44.795 82.5622 44.3942 81.0832 43.4435 81.3442C38.338 82.739 33.5061 84.7536 28.918 87.3936C28.0675 87.8829 28.834 89.207 29.6872 88.7149Z" fill="#666666"/>
<path d="M35.7759 85.0612C37.0001 88.1851 38.2108 91.3172 39.4459 94.4356C40.0797 96.0397 40.6809 98.0816 42.4279 98.802C47.1379 100.746 48.1997 94.1583 47.9694 91.1459C47.8963 90.1698 46.3687 90.1617 46.4446 91.1459C46.5637 92.7065 46.8427 94.645 45.8298 95.9609C45.5129 97.0729 44.7626 97.2387 43.5817 96.4584C42.4387 96.7575 41.7616 96.4584 41.5504 95.5558C41.1035 94.8734 40.8435 93.8402 40.5509 93.0925C39.4486 90.2786 38.349 87.4673 37.2466 84.6561C36.8918 83.7507 35.4157 84.145 35.7759 85.0639V85.0612Z" fill="#666666"/>
<path d="M46.0437 88.4155C46.106 90.5117 46.255 93.0211 48.0453 94.424C49.432 95.5116 51.569 95.7019 52.804 94.2935C53.4487 93.5567 52.3761 92.4692 51.7261 93.2114C50.8323 94.231 49.2641 93.7199 48.5355 92.752C47.6227 91.5421 47.6146 89.8619 47.5713 88.4128C47.5415 87.4286 46.0166 87.4258 46.0464 88.4128L46.0437 88.4155Z" fill="#666666"/>
<path d="M47.3276 82.6969V83.3359C47.3276 84.3201 48.8525 84.3228 48.8525 83.3359V82.6969C48.8525 81.7127 47.3276 81.71 47.3276 82.6969Z" fill="#666666"/>
<path d="M54.1204 84.9462C53.0831 84.0191 51.5636 84.5384 51.152 85.8516C50.6861 87.3333 51.2224 89.7639 51.8399 91.1397C52.471 92.5398 53.6329 93.573 55.2119 93.6464C56.5499 93.7089 57.6496 93.0754 58.1642 91.8302C58.5407 90.9222 57.0673 90.5252 56.6935 91.4224C56.0597 92.9449 53.9688 91.803 53.4271 90.8977C53.0425 90.2533 52.8691 89.4975 52.7472 88.7661C52.6768 88.3556 52.6254 87.9423 52.5902 87.5264C52.5766 87.3632 52.5414 85.5824 53.0398 86.0256C53.771 86.6781 54.8544 85.5987 54.1177 84.9435L54.1204 84.9462Z" fill="#666666"/>
<path d="M56.0948 79.1306C57.2947 82.3687 58.4945 85.6095 59.6944 88.8476C59.9517 89.5409 60.9322 89.6034 61.1651 88.8476C61.4657 87.8715 61.4603 86.9634 61.3222 85.952C61.1813 84.9189 60.4663 81.7651 62.587 81.8765C62.3406 81.689 62.0968 81.5014 61.8503 81.3138C62.4408 83.0348 61.4495 85.0195 59.5346 85.2587C58.5731 85.3784 58.5622 86.9118 59.5346 86.7894C62.346 86.4387 64.2744 83.6764 63.321 80.9059C63.2046 80.5688 62.9391 80.3622 62.5843 80.3431C58.1262 80.112 60.3661 86.262 59.6917 88.437H61.1624C59.9625 85.1989 58.7627 81.9581 57.5628 78.72C57.2243 77.8038 55.7481 78.2007 56.0921 79.1278L56.0948 79.1306Z" fill="#666666"/>
<path d="M60.4284 85.0936C61.046 89.0196 65.2387 90.92 68.6568 89.0549C69.5208 88.5846 68.7516 87.2632 67.8876 87.7336C65.2522 89.1691 62.3542 87.5868 61.8991 84.6858C61.7475 83.7152 60.2768 84.1285 60.4284 85.0936Z" fill="#666666"/>
<path d="M68.7623 82.6002C70.623 83.9596 73.6429 82.5513 73.2394 80.0853C72.8169 77.5133 69.5667 76.8771 68.1258 78.9652C64.6969 83.927 74.878 91.0693 77.4917 84.952C77.8736 84.0575 76.56 83.2745 76.1754 84.1798C74.8807 87.2113 71.3841 85.2809 69.9892 83.4485C69.3636 82.6247 68.2558 80.4632 69.5369 79.6231C70.0326 79.5279 70.5255 79.4328 71.0212 79.3376C71.9691 80.1424 72.0233 80.8384 71.1837 81.4284C70.6501 81.7628 70.0082 81.6214 69.5342 81.2761C68.7379 80.697 67.9768 82.0238 68.765 82.5975L68.7623 82.6002Z" fill="#666666"/>
<path d="M75.2057 72.0457C76.2295 74.3078 77.1829 76.6215 78.2879 78.8427C78.9759 80.2266 79.8805 81.692 81.3106 82.4017C84.3305 83.897 86.5298 80.9797 87.7459 78.598C88.1928 77.7226 86.8765 76.9477 86.4296 77.8259C85.8879 78.889 85.2595 80.2157 84.2087 80.8655C82.375 81.9993 80.8772 80.349 80.0295 78.8699C78.6536 76.4719 77.6623 73.7939 76.5247 71.2736C76.1185 70.3764 74.8049 71.154 75.2084 72.0457H75.2057Z" fill="#666666"/>
<path d="M78.3421 78.8921C79.8263 77.9351 81.3079 76.978 82.7894 76.021C83.6128 75.4909 82.849 74.1641 82.0202 74.6997C80.5387 75.6567 79.0544 76.6137 77.5729 77.5707C76.7495 78.1009 77.5133 79.4277 78.3421 78.8921Z" fill="#666666"/>
</g>
<defs>
<clipPath id="clip0_62_722">
<rect width="109.268" height="114.19" fill="white"/>
</clipPath>
</defs>
</svg>
