<svg width="114" height="79" viewBox="0 0 114 79" fill="none" xmlns="http://www.w3.org/2000/svg">
<g clip-path="url(#clip0_62_701)">
<path d="M103.198 29.0753C105.075 29.3301 108.839 29.9841 109.669 31.9847C110.562 34.1293 108.74 38.3631 108.143 40.3906C107.263 43.3797 106.308 46.5527 104.7 49.2448C102.358 53.1635 96.013 51.193 92.1161 50.8642C69.4609 48.9519 46.8055 47.0419 24.1503 45.1296C19.3179 44.7211 11.7605 45.398 7.93556 42.0037C3.93302 38.4515 4.86959 30.7095 5.11638 25.8398C5.2105 24.0014 5.74613 24.2366 7.4192 24.0882C9.10168 23.9383 10.7982 23.903 12.4879 23.8648C23.8023 23.612 35.1387 23.9516 46.4488 24.2729C57.9696 24.5995 69.5121 24.9162 81.0177 25.6631C81.8531 25.7186 81.9595 24.4208 81.1216 24.3675C69.009 23.5811 56.8525 23.2545 44.7218 22.9253C32.5703 22.5944 20.2312 21.9404 8.08608 22.745C7.16001 22.8074 5.5919 22.6886 4.76178 23.2033C2.73776 24.4585 3.77731 29.1997 3.82574 31.1701C3.92931 35.2873 3.60112 39.986 7.01577 43C10.5887 46.1517 16.4279 45.7817 20.8501 46.155C34.0939 47.2729 47.3354 48.3907 60.5793 49.5064C67.2069 50.0658 73.8369 50.6255 80.4645 51.1849C86.9723 51.7348 93.5741 52.6743 100.102 52.832C103.568 52.9155 104.899 51.7993 106.396 48.8157C108.229 45.1619 109.42 41.1068 110.351 37.1397C110.855 34.9913 111.826 32.3083 110.16 30.4607C108.569 28.6955 105.558 28.0856 103.302 27.7796C102.471 27.6666 102.369 28.9625 103.198 29.0753Z" fill="#666666"/>
<path d="M5.49716 24.2452C9.02509 20.1205 12.8401 15.6853 18.141 13.8684C23.9786 11.87 31.2773 12.9719 37.3534 13.2625C49.411 13.8383 61.433 14.9741 73.4369 16.2196C78.3355 16.7283 83.2364 17.2373 88.1339 17.7599C92.1573 18.1891 96.4231 18.4016 100.34 19.464C105.104 20.7564 107.947 28.0257 109.939 32.1485C110.303 32.9027 111.478 32.3414 111.112 31.5848C109.226 27.6789 107.089 23.3986 104.076 20.2339C102.698 18.7846 101.325 18.3246 99.3877 17.9446C95.8609 17.254 92.2632 16.8982 88.6932 16.5146C68.2392 14.3202 47.7096 11.9392 27.119 11.6216C22.4822 11.5507 18.0623 11.9003 14.0322 14.3889C10.2438 16.7278 7.29154 20.1551 4.42676 23.5039C3.88147 24.1411 4.95455 24.878 5.49467 24.2473L5.49716 24.2452Z" fill="#666666"/>
<path d="M98.9076 23.0347C92.0851 18.5985 82.5627 20.489 79.3305 28.5055C77.0685 34.1145 79.8887 41.2129 85.1412 44.05C91.1651 47.3058 99.3237 45.468 102.58 39.2925C105.535 33.6904 103.939 26.8083 98.9076 23.0347C98.2357 22.5315 97.4934 23.5999 98.1632 24.1006C102.501 27.3531 103.972 33.1666 101.714 38.1182C99.1093 43.8318 91.9682 45.7975 86.3949 43.2288C81.7792 41.1028 79.04 35.5396 80.0696 30.5706C80.7137 27.4584 83.0317 24.7653 85.7758 23.239C89.8968 20.9476 94.2998 21.5904 98.1632 24.1006C98.8666 24.5578 99.611 23.4918 98.9076 23.0347Z" fill="#666666"/>
<path d="M96.563 26.1437C90.3809 21.7937 84.2395 26.1928 82.8643 30.3791C81.4891 34.5653 84.1441 42.1901 92.3507 41.6625C100.557 41.1349 102.747 30.494 96.5653 26.1439L96.563 26.1437Z" fill="#666666"/>
<path d="M93.0572 30.6873C91.4832 29.6878 89.3107 30.1042 88.5532 31.9404C88.0204 33.2317 88.6281 34.8532 89.8258 35.5399C91.2033 36.329 93.0923 35.9177 93.8821 34.5173C94.621 33.203 94.2355 31.5878 93.0574 30.685C92.3906 30.1752 91.6484 31.2436 92.313 31.7509C93.8607 32.9336 92.3746 35.3205 90.5864 34.4752C88.5435 33.5076 90.2817 30.4646 92.313 31.7509C93.0194 32.199 93.7662 31.1333 93.0574 30.685L93.0572 30.6873Z" fill="white"/>
<path d="M81.523 9.50361C82.2401 10.7169 82.9569 11.9325 83.6739 13.1458C84.0968 13.8607 85.2736 13.3042 84.8467 12.5821C84.1297 11.3688 83.4128 10.1532 82.6958 8.93989C82.2729 8.225 81.0961 8.78145 81.523 9.50361Z" fill="#666666"/>
<path d="M89.4061 7.91914C89.5014 9.21922 89.5968 10.517 89.692 11.8171C89.7529 12.6488 91.0327 12.3994 90.9715 11.5723C90.8762 10.2722 90.7808 8.97442 90.6856 7.67434C90.6247 6.84258 89.3449 7.09198 89.4061 7.91914Z" fill="#666666"/>
<path d="M96.4829 7.91104C96.5072 9.31429 96.277 10.6508 95.7729 11.9607C95.4712 12.7425 96.6977 13.186 96.9969 12.4063C97.5393 10.9953 97.8054 9.5296 97.7807 8.01515C97.7659 7.18708 96.4688 7.07377 96.4829 7.91104Z" fill="#666666"/>
<path d="M104.611 9.67012C103.778 10.7615 102.946 11.8505 102.112 12.9393C101.601 13.6071 102.674 14.3464 103.18 13.6828C104.012 12.5915 104.844 11.5024 105.678 10.4136C106.189 9.74579 105.116 9.00656 104.611 9.67012Z" fill="#666666"/>
<path d="M109.285 13.5736C108.775 14.0075 108.262 14.4435 107.752 14.8774C107.112 15.4213 107.956 16.4109 108.596 15.8669C109.106 15.4331 109.619 14.9971 110.129 14.5632C110.769 14.0193 109.925 13.0297 109.285 13.5736Z" fill="#666666"/>
<path d="M11.0821 28.6084C10.9488 29.6052 10.8153 30.6044 10.6819 31.6012C10.6354 31.9496 10.9434 32.2754 11.28 32.3024L16.9601 32.758C17.3197 32.7869 17.6224 32.5124 17.6622 32.1612C17.7899 31.0318 17.9153 29.9023 18.0428 28.7753C18.0821 28.431 17.7889 28.0948 17.4448 28.0742C15.5007 27.9576 13.5563 27.8433 11.6122 27.7267C11.1596 27.6997 10.7052 28.2168 10.9737 28.6576C11.0311 28.7525 11.0907 28.8476 11.1481 28.9426C11.5808 29.6513 12.7576 29.0948 12.3209 28.3789C12.2635 28.2839 12.2039 28.1888 12.1465 28.0939C11.9338 28.4034 11.721 28.7129 11.5081 29.0247C13.4522 29.1413 15.3966 29.2556 17.3407 29.3722C17.1414 29.1385 16.942 28.9047 16.7427 28.671C16.615 29.8003 16.4897 30.9276 16.362 32.0569C16.5961 31.8579 16.8301 31.659 17.0642 31.46L11.3841 31.0044C11.5834 31.2381 11.7828 31.4718 11.9821 31.7055C12.1154 30.7087 12.2489 29.7095 12.3823 28.7127C12.4929 27.8831 11.1949 27.7813 11.0844 28.6086L11.0821 28.6084Z" fill="#666666"/>
<path d="M23.9457 29.5199C40.7167 29.9063 57.4683 30.8517 74.2393 31.2381C75.073 31.2563 75.1839 29.9612 74.3432 29.9424C57.5722 29.556 40.8206 28.6106 24.0497 28.2242C23.2159 28.2059 23.1051 29.5011 23.9457 29.5199Z" fill="#666666"/>
<path d="M23.1662 34.1439C39.9371 34.5303 56.6888 35.4757 73.4597 35.8621C74.2935 35.8804 74.4043 34.5852 73.5636 34.5664C56.7927 34.18 40.0411 33.2346 23.2701 32.8482C22.4364 32.83 22.3255 34.1251 23.1662 34.1439Z" fill="#666666"/>
<path d="M23.1718 39.164C39.9359 39.5776 56.6141 41.5548 73.3782 41.9684C74.2118 41.989 74.3226 40.6939 73.4821 40.6728C56.718 40.2591 40.0399 38.2819 23.2757 37.8683C22.4422 37.8477 22.3313 39.1429 23.1718 39.164Z" fill="#666666"/>
<path d="M103.878 43.3871C103.095 46.7222 99.9662 48.7689 96.5829 47.9092C95.7781 47.7033 95.3251 48.9247 96.1368 49.1311C100.154 50.1528 104.143 47.9227 105.102 43.8328C105.292 43.0258 104.068 42.5755 103.878 43.3871Z" fill="#666666"/>
<path d="M92.193 49.1856L93.2073 49.2669C94.0418 49.3339 94.148 48.0384 93.3112 47.9712L92.2969 47.8899C91.4624 47.8229 91.3562 49.1184 92.193 49.1856Z" fill="#666666"/>
<path d="M13.8247 65.2485C13.8546 65.1073 13.8822 64.9659 13.9119 64.827C14.0526 64.1434 13.0846 63.9477 12.7279 64.4031C12.6192 64.5427 12.5108 64.6799 12.4022 64.8194C12.1049 65.1986 12.4025 65.827 12.8841 65.8401C12.9628 65.8418 13.0439 65.8437 13.1226 65.8454C13.9562 65.8659 14.067 64.5708 13.2265 64.5497C13.1478 64.548 13.0667 64.5461 12.988 64.5444C13.1487 64.8839 13.3094 65.2234 13.4699 65.5652C13.5785 65.4256 13.687 65.2884 13.7956 65.1489C13.4009 65.0084 13.0063 64.8655 12.6116 64.725C12.5817 64.8662 12.5541 65.0076 12.5244 65.1465C12.4527 65.4905 12.802 65.822 13.1224 65.8477C13.5097 65.8787 13.7527 65.5971 13.8246 65.2508L13.8247 65.2485Z" fill="#666666"/>
<path d="M20.1937 62.3789C19.7549 61.0814 18.7906 59.4221 19.325 58.0822C19.8509 56.7601 21.4241 55.3993 22.3054 54.2749C22.7474 53.7104 22.0455 53.1191 21.489 53.3177C19.9654 53.8579 18.4419 54.3981 16.9207 54.9385C17.2095 55.0404 17.5007 55.1402 17.7895 55.2421C17.3695 53.9994 16.9497 52.7543 16.532 51.5118C16.2997 50.8214 15.4083 51.2039 15.2955 51.7415C15.0108 53.1223 15.0122 55.1583 13.8089 56.0438C12.6551 56.8917 10.5468 57.202 9.19287 57.6817C8.62216 57.8837 8.79047 58.6778 9.25224 58.8793C10.1917 59.2859 11.1571 59.6598 12.0796 60.1044C13.4668 60.7716 13.2562 60.4466 13.2307 61.7486C13.2126 62.6968 12.8124 63.7811 12.6165 64.7196C12.4758 65.4032 13.4438 65.599 13.8005 65.1435C14.3615 64.4265 14.9225 63.7094 15.4835 62.9924C15.9876 62.3473 16.0154 62.1457 16.759 62.1312C17.4862 62.1177 18.7455 62.9924 19.3844 63.2706C20.1556 63.6058 20.5949 62.381 19.8304 62.0487C18.6622 61.5427 17.4964 61.0369 16.3282 60.5309C16.0547 60.4117 15.7419 60.551 15.5713 60.769C14.6252 61.9786 13.6767 63.188 12.7303 64.3998C13.1251 64.5404 13.5196 64.6832 13.9143 64.8237C14.2216 63.3359 14.5289 61.8481 14.8362 60.3603C14.8963 60.0732 14.6513 59.8011 14.4092 59.696C12.8398 59.0142 11.268 58.3346 9.69864 57.6528C9.7176 58.0527 9.73905 58.4505 9.75802 58.8504C10.9879 58.414 12.22 57.9778 13.45 57.5391C13.9921 57.3463 15.0896 57.1726 15.4914 56.7324C16.3207 55.8238 16.344 53.0462 16.5936 51.8433C16.1815 51.9191 15.7692 51.9972 15.3571 52.073C15.7771 53.3157 16.1969 54.5608 16.6146 55.8034C16.7345 56.1604 17.1873 56.2129 17.4835 56.107C19.007 55.5668 20.5306 55.0266 22.0518 54.4862C21.7804 54.1679 21.5068 53.8472 21.2354 53.5289C20.4416 54.5446 19.6456 55.5601 18.8519 56.5758C18.4977 57.0291 17.6789 57.7486 17.5648 58.3324C17.3321 59.5274 18.6333 61.7882 19.0211 62.9404C19.2871 63.7307 20.458 63.1622 20.1939 62.3766L20.1937 62.3789Z" fill="#666666"/>
<path d="M43.2211 73.3038C43.9333 72.4368 45.5065 69.6584 46.5616 69.2312C48.0001 68.6517 50.6761 70.6939 51.9377 71.307C52.4982 71.5789 52.9296 70.8862 52.7472 70.413C52.1705 68.9261 51.1957 67.2242 50.9072 65.6724C50.5509 63.7515 51.9951 62.6096 53.1652 61.1817C53.5381 60.7276 53.0359 60.0758 52.5086 60.1702C51.5834 60.3368 49.9871 61.0032 49.1785 60.5562C48.3342 60.0901 47.9733 58.1109 47.633 57.2336C47.4256 56.6958 46.617 56.7977 46.4335 57.2925C45.9077 58.7281 45.5757 60.8416 44.4924 61.8804C43.3083 63.0199 41.1044 63.4801 39.5938 64.1487C39.0357 64.3958 39.1821 65.1163 39.6532 65.3463C41.0868 66.0427 42.5206 66.7368 43.9542 67.4331C43.8233 67.1563 43.6949 66.8773 43.564 66.6004C43.0994 68.5157 42.88 70.9046 42.0696 72.7065C41.7252 73.471 42.9521 73.9099 43.2936 73.1521C44.1437 71.2608 44.2994 69.059 44.788 67.046C44.878 66.6757 44.7463 66.3803 44.3978 66.2133C42.9641 65.517 41.5303 64.8229 40.0965 64.1288C40.1155 64.5287 40.1369 64.9265 40.1559 65.3264C41.455 64.7497 44.8906 64.0316 45.8116 63.0493C46.7707 62.0261 47.1802 59.0317 47.6525 57.7424C47.252 57.7612 46.8535 57.7825 46.453 57.8013C46.9873 59.1806 47.524 60.5601 48.0583 61.9394C48.1563 62.1928 48.5048 62.3597 48.7675 62.2951C50.0878 61.9749 51.4098 61.6918 52.747 61.4493C52.5282 61.1121 52.3093 60.7749 52.0904 60.4377C51.1157 61.6265 50.1412 62.813 49.1666 64.0017C49.0124 64.1886 49.0334 64.4473 49.1141 64.6553C49.9312 66.7614 50.7504 68.87 51.5675 70.9762C51.8373 70.6782 52.1072 70.3802 52.377 70.0822C50.5546 69.1995 48.7325 68.3144 46.9124 67.4319C46.6421 67.3013 46.3252 67.4635 46.1555 67.6699C44.8183 69.2998 43.4813 70.9274 42.1465 72.5575C41.6141 73.2073 42.6872 73.9442 43.2144 73.3009L43.2211 73.3038Z" fill="#666666"/>
</g>
<defs>
<clipPath id="clip0_62_701">
<rect width="107.799" height="70.3531" fill="white" transform="translate(5.6255) rotate(4.58632)"/>
</clipPath>
</defs>
</svg>
