<svg width="87" height="75" viewBox="0 0 87 75" fill="none" xmlns="http://www.w3.org/2000/svg">
<g filter="url(#filter0_d_62_1008)">
<g clip-path="url(#clip0_62_1008)">
<path d="M77.1536 3.81146C66.2392 -5.48547 45.2734 3.29794 47.5495 18.6138C48.5624 25.4282 53.6523 31.2344 60.4679 32.4788C67.9119 33.8367 76.8285 30.3066 80.6849 23.5946C84.4851 16.9818 82.6436 8.8175 77.1536 3.81146C76.7347 3.42868 76.1094 4.05404 76.5314 4.43839C81.0304 8.54026 83.0969 14.8553 81.0304 20.7419C78.5793 27.7248 70.9742 31.7227 63.9147 31.8645C57.071 32.0015 51.1214 27.6461 49.0283 21.0963C46.9914 14.723 49.133 8.43472 54.5777 4.62269C60.9478 0.164833 70.3333 -0.841731 76.5314 4.43839C76.9613 4.80542 77.5866 4.18006 77.1536 3.81146Z" fill="#666666"/>
<path d="M69.8129 11.4248C66.7865 9.00058 62.125 9.61492 59.541 12.4771C57.2712 14.9911 57.8293 19.0268 60.2585 21.2369C63.0942 23.8155 67.912 23.061 70.3928 20.3248C72.7986 17.6706 72.3078 13.8018 69.8129 11.4248C69.4018 11.0326 68.778 11.6595 69.1907 12.0518C71.3245 14.0854 71.8685 17.3886 69.7707 19.6963C67.6072 22.0765 63.3975 22.8467 60.8822 20.6084C58.7829 18.7401 58.2561 15.2794 60.1647 13.1024C62.3532 10.6073 66.563 9.94414 69.1907 12.0502C69.63 12.4015 70.2568 11.7777 69.8129 11.4233V11.4248Z" fill="#666666"/>
<path d="M66.802 14.5495C65.6921 13.6595 64.0132 13.8375 63.0487 14.8913C62.1968 15.8223 62.3797 17.325 63.2816 18.1568C64.3165 19.1113 66.0689 18.8625 66.9896 17.8606C67.8837 16.8887 67.7274 15.4316 66.802 14.5495C66.3909 14.1573 65.7672 14.7842 66.1798 15.1764C67.7212 16.6445 65.3592 18.7868 63.9054 17.5298C62.2765 16.12 64.7089 13.9982 66.1798 15.1764C66.6191 15.5277 67.246 14.9039 66.802 14.5495Z" fill="#666666"/>
<path d="M59.5768 32.0035C58.5795 33.1377 57.9198 34.3348 57.5024 35.7888C57.4039 36.1337 57.726 36.3968 58.0433 36.3338C62.8642 35.3808 67.718 35.2674 72.5765 36.0046C72.947 36.0613 73.2706 35.7194 73.0736 35.3524C72.3295 33.9647 71.5839 32.5769 70.8398 31.1891C70.5709 30.6866 69.8096 31.134 70.08 31.6365C70.8241 33.0243 71.5698 34.412 72.3139 35.7998C72.4796 35.5824 72.6453 35.365 72.811 35.1476C67.7931 34.3868 62.7892 34.4939 57.8104 35.4769C57.9901 35.658 58.1715 35.8407 58.3512 36.0219C58.7311 34.6971 59.2939 33.6591 60.2005 32.6273C60.5757 32.202 59.9551 31.5719 59.5784 32.0004L59.5768 32.0035Z" fill="#666666"/>
<path d="M57.3978 36.1907C57.3931 40.9085 57.3868 45.6262 57.3821 50.3424C57.379 52.7005 57.3774 55.0602 57.3743 57.4183C57.3712 59.5716 57.0476 62.0101 57.4572 64.1303C57.9996 66.9373 60.7696 66.7137 63.0316 66.7373C65.0606 66.7593 67.1288 66.9027 69.1547 66.7908C70.288 66.7278 71.5151 66.5687 72.2936 65.6346C73.5411 64.1398 73.1159 61.3406 73.1268 59.507C73.144 56.7299 73.1284 53.9513 73.1159 51.1741C73.0909 45.9791 72.9767 40.7714 73.1346 35.5764C73.1518 35.0061 72.2717 35.0061 72.2545 35.5764C71.9966 44.0857 72.3562 52.6076 72.2327 61.1201C72.2217 61.8557 72.3124 62.7 72.1623 63.4183C71.4761 66.7074 67.7197 65.8993 65.3858 65.8741C63.9023 65.8583 62.3922 65.9292 60.9134 65.8189C57.5822 65.57 58.2513 61.4902 58.2544 59.1873C58.2638 51.5207 58.2716 43.8557 58.281 36.1891C58.281 35.6189 57.4009 35.6173 57.4009 36.1891L57.3978 36.1907Z" fill="#666666"/>
<path d="M8.48948 34.6967C7.04507 35.6339 5.60223 36.5728 4.15782 37.51C3.79359 37.7479 3.93428 38.326 4.3798 38.337C14.1655 38.5623 23.9497 38.7891 33.7354 39.0143C38.5548 39.1262 43.3741 39.2364 48.1935 39.3483C50.1225 39.3924 54.276 40.0193 54.6715 37.195C54.7496 36.6358 53.9008 36.3948 53.8227 36.9587C53.51 39.1892 49.6692 38.4945 48.1951 38.4614C46.1504 38.4142 44.1057 38.3669 42.0611 38.3197C37.8263 38.222 33.59 38.1243 29.3553 38.0267C21.0311 37.8345 12.7055 37.6423 4.38136 37.4502L4.60334 38.2771C6.04774 37.3399 7.49059 36.4011 8.935 35.4638C9.41022 35.1551 8.96939 34.3879 8.49105 34.6982L8.48948 34.6967Z" fill="#666666"/>
<path d="M3.93755 38.0417C4.09075 42.9028 4.24394 47.7639 4.3987 52.6251C4.47061 54.9123 4.54251 57.2011 4.61599 59.4883C4.66601 61.0572 4.55658 62.8057 5.12872 64.3037C6.31207 67.4022 9.8168 66.9359 12.5055 66.8934C17.0685 66.8225 21.6331 66.8335 26.1977 66.8146C30.9421 66.7941 35.688 66.7453 40.4292 66.5421C42.6286 66.4476 44.8265 66.32 47.0197 66.1436C48.5954 66.0175 50.7433 66.1688 52.1924 65.3953C53.976 64.4423 53.6962 62.2039 53.7478 60.4744C53.8181 58.1052 53.9275 55.7361 54.0307 53.367C54.2652 47.9435 54.6247 42.509 54.6873 37.0792C54.6935 36.5074 53.8134 36.5074 53.8072 37.0792C53.7149 45.1065 53.049 53.1244 52.8505 61.1485C52.8442 61.388 52.8646 61.6416 52.8364 61.8794C52.6082 63.9178 51.6468 64.7841 49.8616 65C47.8326 65.2457 45.7785 65.3622 43.7401 65.4851C39.7148 65.7277 35.6833 65.8317 31.6533 65.8836C27.6077 65.9356 23.5606 65.9325 19.5134 65.9467C17.586 65.953 15.6601 65.964 13.7326 65.9892C11.9459 66.0112 9.90434 66.3389 8.15197 65.8962C5.1678 65.1433 5.5586 61.4683 5.48201 59.0598C5.4101 56.7726 5.33819 54.4838 5.26472 52.1966C5.11621 47.4788 4.96615 42.7595 4.81764 38.0417C4.80044 37.4715 3.91879 37.4699 3.93755 38.0417Z" fill="#666666"/>
<path d="M54.0104 50.309C55.2937 50.1862 56.5771 50.0633 57.8621 49.9389C58.4217 49.8853 58.4264 48.9969 57.8621 49.052C56.5787 49.1749 55.2953 49.2978 54.0104 49.4222C53.4507 49.4758 53.446 50.3642 54.0104 50.309Z" fill="#666666"/>
<path d="M53.643 56.777H57.1274C57.6933 56.777 57.6949 55.8901 57.1274 55.8901H53.643C53.0771 55.8901 53.0756 56.777 53.643 56.777Z" fill="#666666"/>
<path d="M54.1948 47.7408C55.2344 47.6825 56.2739 47.6227 57.3134 47.5628C57.8762 47.5313 57.8809 46.6429 57.3134 46.6759C56.2739 46.7342 55.2344 46.7941 54.1948 46.854C53.6321 46.8855 53.6274 47.7739 54.1948 47.7408Z" fill="#666666"/>
<path d="M19.5901 37.5739C19.5088 35.619 19.5729 32.7742 20.9673 31.262C23.6919 28.3069 30.5748 29.6017 34.1061 29.7057C38.6566 29.8396 43.2071 29.9734 47.756 30.1058C50.6339 30.1908 54.0386 30.1877 54.0058 33.9729C53.9948 35.1402 53.8494 36.3184 53.7525 37.4809C53.7041 38.0496 54.5857 38.0464 54.6326 37.4809C54.8765 34.5731 55.6284 30.5547 52.033 29.5103C49.56 28.792 46.4711 29.1795 43.9168 29.1055C40.6465 29.0094 37.3763 28.9133 34.1061 28.8172C30.2621 28.7038 23.6263 27.4437 20.4889 30.4917C18.7741 32.1583 18.6146 35.3182 18.71 37.5723C18.7334 38.1409 19.6135 38.1441 19.5901 37.5723V37.5739Z" fill="#666666"/>
<path d="M20.0871 31.8216C25.6068 31.8625 31.1265 31.9019 36.6447 31.9429C41.9596 31.9822 47.3183 32.2154 52.6223 31.8074C53.1835 31.7649 53.1881 30.8764 52.6223 30.9205C47.3167 31.3301 41.9596 31.0954 36.6447 31.056C31.125 31.015 25.6053 30.9757 20.0871 30.9347C19.5212 30.93 19.5197 31.8184 20.0871 31.8216Z" fill="#666666"/>
<path d="M34.6952 33.4831C34.5811 34.3211 34.4685 35.1607 34.3544 35.9987C34.3169 36.2712 34.4623 36.5689 34.7796 36.5595C36.4804 36.5106 38.1874 36.5689 39.8882 36.6304C40.1258 36.6382 40.329 36.4209 40.329 36.1861V33.7839C40.329 33.5209 40.1258 33.3712 39.8882 33.3397C38.3594 33.1381 36.5179 32.7695 35.0031 33.1712C34.456 33.3161 34.6874 34.1714 35.2376 34.0265C36.657 33.65 38.4516 34.0376 39.8882 34.2266C39.7412 34.0785 39.5943 33.9304 39.4474 33.7824V36.1846C39.5943 36.0365 39.7412 35.8884 39.8882 35.7404C38.1874 35.6789 36.4804 35.6206 34.7796 35.6695C34.9203 35.8569 35.0626 36.0444 35.2048 36.2303C35.3189 35.3922 35.4315 34.5526 35.5456 33.7146C35.6206 33.157 34.7734 32.9144 34.6968 33.4784L34.6952 33.4831Z" fill="#666666"/>
<path d="M43.3946 33.7824C43.3664 34.6898 43.3399 35.5987 43.3117 36.506C43.3039 36.7502 43.5196 36.9439 43.7526 36.9502C45.9348 37.0006 48.117 37.051 50.2993 37.1014C50.5447 37.1077 50.7292 36.8935 50.7401 36.6572C50.7808 35.6995 50.7432 34.7417 50.7839 33.784C50.7948 33.5367 50.5729 33.3508 50.3431 33.3398C48.1733 33.2406 46.0051 33.4359 43.8354 33.3367C43.2695 33.3099 43.2711 34.1983 43.8354 34.2235C46.0051 34.3227 48.1733 34.1274 50.3431 34.2267C50.1961 34.0786 50.0492 33.9305 49.9022 33.7824C49.8616 34.7402 49.8991 35.6979 49.8585 36.6556C50.0054 36.5076 50.1523 36.3595 50.2993 36.2114C48.117 36.161 45.9348 36.1106 43.7526 36.0602C43.8995 36.2083 44.0464 36.3563 44.1934 36.5044C44.2215 35.5971 44.2481 34.6882 44.2762 33.7809C44.2934 33.2091 43.4133 33.2106 43.3961 33.7809L43.3946 33.7824Z" fill="#666666"/>
<path d="M8.82105 33.4952C8.0457 34.8735 9.08524 36.1384 10.4421 36.4897C12.5571 37.0378 15.0723 36.7968 17.0608 35.9289C17.5797 35.7021 17.1311 34.9381 16.6168 35.1633C15.4491 35.6737 14.236 35.8407 12.9698 35.8312C12.5259 35.8281 12.0788 35.8123 11.6364 35.7729C10.9595 35.7147 8.7085 35.4941 9.58234 33.9425C9.86215 33.4448 9.10243 32.9974 8.82262 33.4952H8.82105Z" fill="#666666"/>
<path d="M16.4322 33.3249C16.4635 33.9723 16.4932 34.6181 16.5245 35.2656C16.551 35.8342 17.4311 35.8374 17.4045 35.2656C17.3733 34.6181 17.3436 33.9723 17.3123 33.3249C17.2857 32.7562 16.4057 32.7531 16.4322 33.3249Z" fill="#666666"/>
<path d="M9.28207 34.0846C11.3236 34.669 13.4293 34.7935 15.5115 34.3477C16.2274 34.1949 17.986 33.79 17.2154 32.6732C16.4041 31.4997 13.2307 31.6588 12.0552 31.758C10.8312 31.862 9.45246 32.0321 8.94598 33.3033C8.73494 33.8326 9.58533 34.0626 9.7948 33.5396C10.184 32.5645 12.0552 32.6212 12.8665 32.6086C13.3902 32.6008 16.043 32.5614 16.218 33.0654C16.3681 33.4955 13.3167 33.7349 13.2073 33.7381C11.9473 33.7696 10.7265 33.5758 9.51655 33.2293C8.97099 33.0733 8.73807 33.9287 9.28207 34.0846Z" fill="#666666"/>
<path d="M10.3591 34.0626C10.331 34.6486 10.3013 35.233 10.2731 35.8189C10.245 36.3892 11.1251 36.3876 11.1532 35.8189C11.1813 35.233 11.211 34.6486 11.2392 34.0626C11.2673 33.4924 10.3872 33.4939 10.3591 34.0626Z" fill="#666666"/>
<path d="M11.8551 34.4337C11.8239 34.9267 11.7926 35.4198 11.7613 35.9128C11.7254 36.483 12.6055 36.4799 12.6414 35.9128C12.6727 35.4198 12.7039 34.9267 12.7352 34.4337C12.7712 33.8634 11.8911 33.865 11.8551 34.4337Z" fill="#666666"/>
<path d="M13.4138 34.3412C13.4747 34.8342 13.5341 35.3273 13.5951 35.8203C13.6248 36.0582 13.7764 36.2645 14.0359 36.2645C14.2517 36.2645 14.5049 36.0597 14.4768 35.8203C14.4158 35.3273 14.3564 34.8342 14.2954 34.3412C14.2657 34.1033 14.1141 33.897 13.8546 33.897C13.6389 33.897 13.3856 34.1018 13.4138 34.3412Z" fill="#666666"/>
<path d="M15.2255 34.1576C15.2536 34.5278 15.2817 34.8979 15.3083 35.2665C15.3505 35.832 16.2322 35.8368 16.1884 35.2665C16.1603 34.8964 16.1321 34.5262 16.1055 34.1576C16.0633 33.5921 15.1817 33.5874 15.2255 34.1576Z" fill="#666666"/>
<path d="M47.7059 42.1701C46.016 41.5779 44.0589 42.3166 43.3476 44.021C42.5941 45.8231 43.468 47.926 45.2594 48.6506C47.0477 49.3752 49.058 48.5387 49.8662 46.784C50.7916 44.7724 49.627 43.0806 47.8122 42.2158C47.3025 41.9732 46.8555 42.7372 47.3682 42.9814C48.5969 43.5674 49.6599 44.5377 49.2112 46.0373C48.772 47.5054 47.2588 48.3497 45.8003 47.9071C44.395 47.4802 43.6524 45.957 44.0855 44.5613C44.5341 43.1153 46.1395 42.5577 47.4729 43.0255C48.0091 43.2129 48.2389 42.3576 47.7074 42.1701H47.7059Z" fill="#666666"/>
<path d="M8.06584 43.9497C8.00175 44.5168 7.93922 45.0839 7.87513 45.6494C7.83292 46.0322 7.73131 46.4638 7.9017 46.8308C8.24561 47.568 9.34298 47.3616 9.98546 47.3664C10.6311 47.3695 11.4674 47.442 11.7394 46.6938C11.8848 46.2921 11.816 45.7912 11.8129 45.3769C11.8097 44.8177 11.8066 44.26 11.8019 43.7008C11.8019 43.4583 11.6018 43.2598 11.3611 43.2566C10.4169 43.2456 9.47117 43.233 8.52699 43.222C7.95954 43.2141 7.95954 44.1025 8.52699 44.1088C9.47117 44.1198 10.4169 44.1325 11.3611 44.1435C11.2141 43.9954 11.0672 43.8473 10.9203 43.6993C10.925 44.3372 10.9281 44.9768 10.9328 45.6147C10.9343 45.9471 11.0578 46.3267 10.6608 46.4795C10.4513 46.5599 10.0808 46.4795 9.85572 46.4795C9.59779 46.4795 9.19604 46.5551 8.95374 46.4748C8.78023 46.5299 8.69112 46.4701 8.68643 46.2968C8.69738 46.1613 8.70988 46.0274 8.72708 45.8935C8.79586 45.2461 8.87246 44.5987 8.94593 43.9497C9.01002 43.3842 8.12837 43.3874 8.06584 43.9497Z" fill="#666666"/>
<path d="M13.237 43.8832C13.409 44.8031 12.8274 45.8427 13.5825 46.6272C14.1609 47.2289 15.0503 47.0966 15.7757 46.9139C15.9633 46.8666 16.0977 46.6776 16.0993 46.4854C16.1039 45.5183 16.1071 44.5526 16.1118 43.5855C16.1118 43.3508 15.9085 43.1349 15.6709 43.1412C15.0019 43.1633 14.3313 43.1854 13.6622 43.2074C13.0979 43.2263 13.0948 44.1132 13.6622 44.0943C14.3313 44.0722 15.0019 44.0501 15.6709 44.0281C15.524 43.88 15.377 43.732 15.2301 43.5839C15.2254 44.5511 15.2223 45.5167 15.2176 46.4839C15.3255 46.3421 15.4333 46.1987 15.5412 46.0554C14.9675 46.2003 14.1562 46.3704 14.0483 45.5687C13.9608 44.9244 14.2093 44.3006 14.0874 43.6437C13.9827 43.083 13.1338 43.3208 13.2386 43.88L13.237 43.8832Z" fill="#666666"/>
<path d="M38.8238 45.3919C32.7913 38.3286 19.7807 41.8839 19.0695 51.4281C18.7709 55.4292 20.592 59.2932 24.3328 60.9503C28.6942 62.8831 34.5625 62.1522 38.0469 58.786C41.7689 55.1866 41.9987 49.5347 38.8926 45.4801C38.5518 45.0343 37.7858 45.4754 38.1328 45.9275C41.4953 50.3144 40.573 56.4578 35.8052 59.4145C31.3719 62.1632 23.7528 61.8072 20.9953 56.8043C19.0413 53.2617 19.6713 48.0068 22.7696 45.3273C27.17 41.5232 34.3389 41.4948 38.2001 46.0157C38.5705 46.4489 39.1911 45.8188 38.8222 45.3887L38.8238 45.3919Z" fill="#666666"/>
<path d="M36.9244 46.7651C33.6792 43.0334 27.8546 42.9893 24.0935 46.0374C21.1484 48.4238 20.5576 53.2912 22.5897 56.4621C25.1878 60.5152 31.647 60.6806 35.3112 58.1193C39.0597 55.4997 39.7132 50.459 36.9932 46.8549C36.654 46.406 35.8895 46.8486 36.2335 47.3023C38.7127 50.5882 38.1953 55.1642 34.6624 57.4892C31.2812 59.7134 25.3066 59.5433 23.14 55.6635C21.6534 53.0014 22.0911 49.0334 24.3702 46.9589C27.7218 43.9077 33.304 43.9455 36.3022 47.3936C36.6758 47.8237 37.2964 47.1936 36.9244 46.7667V46.7651Z" fill="#666666"/>
<path d="M35.1534 48.1337C32.0629 44.2965 25.8804 46.1316 24.3891 49.0788C22.8993 52.026 23.4511 57.4779 29.5227 57.6448C35.5942 57.8118 38.2438 51.9709 35.1534 48.1337Z" fill="#666666"/>
<path d="M26.3289 49.6926C24.8501 51.4301 25.1706 53.8795 27.0527 55.1665C27.4044 55.4075 27.7358 54.831 27.3856 54.5915C25.874 53.5582 25.6067 51.5608 26.7963 50.162C27.0714 49.8391 26.6072 49.3665 26.3289 49.691V49.6926Z" fill="white"/>
<path d="M28.247 56.2831L28.6143 56.376C29.027 56.48 29.2021 55.8389 28.7894 55.7349C28.6675 55.7034 28.5456 55.6735 28.4221 55.642C28.0094 55.538 27.8343 56.1791 28.247 56.2831Z" fill="white"/>
<path d="M17.3921 34.7987C17.9127 34.8822 18.4348 34.9641 18.9554 35.0476C19.1914 35.0854 19.4259 34.9861 19.4962 34.7372C19.5556 34.5262 19.4228 34.2285 19.1883 34.1922C18.6677 34.1087 18.1456 34.0268 17.6251 33.9433C17.389 33.9055 17.1545 34.0048 17.0842 34.2537C17.0248 34.4647 17.1577 34.7624 17.3921 34.7987Z" fill="#666666"/>
<path d="M5.58042 63.7367C12.1021 64.3006 18.7614 63.9619 25.2941 63.8249C32.8069 63.669 40.3181 63.4295 47.8278 63.1539C49.4614 63.094 51.0934 63.0326 52.7269 62.9664C53.2912 62.9428 53.2944 62.0559 52.7269 62.0796C40.1743 62.5931 27.603 63.0389 15.0394 63.0767C11.8927 63.0861 8.71935 63.1224 5.58198 62.8514C5.01766 62.8026 5.02079 63.6894 5.58198 63.7383L5.58042 63.7367Z" fill="#666666"/>
<path d="M52.6894 14.0467C51.4998 18.5675 53.3537 23.0144 57.4275 25.2638C57.9246 25.5379 58.3685 24.7723 57.8714 24.4982C54.1385 22.4363 52.4439 18.4399 53.5382 14.2829C53.6836 13.73 52.8347 13.4953 52.6894 14.0467Z" fill="#666666"/>
<path d="M60.1083 26.8837H60.9337C61.4996 26.8837 61.5012 25.9968 60.9337 25.9968H60.1083C59.5425 25.9968 59.5409 26.8837 60.1083 26.8837Z" fill="#666666"/>
<path d="M69.9223 40.4412C70.0207 44.9684 70.1192 49.4955 70.2193 54.0243C70.2318 54.5945 71.1119 54.5961 71.0994 54.0243C71.0009 49.4971 70.9024 44.9699 70.8023 40.4412C70.7898 39.871 69.9097 39.8694 69.9223 40.4412Z" fill="#666666"/>
<path d="M70.396 56.6568V57.0726C70.396 57.6429 71.2761 57.6444 71.2761 57.0726V56.6568C71.2761 56.0865 70.396 56.085 70.396 56.6568Z" fill="#666666"/>
<path d="M58.2997 63.536C63.0409 64.3645 67.7744 64.259 72.4718 63.2099C73.0252 63.087 72.7907 62.2317 72.2373 62.3546C67.6852 63.3706 63.1254 63.484 58.5326 62.6806C57.9793 62.5845 57.7401 63.4383 58.2982 63.536H58.2997Z" fill="#666666"/>
<path d="M5.1709 61.195C5.84308 61.8723 6.51526 62.5512 7.18744 63.2286C7.48758 63.5326 7.95498 63.0616 7.65484 62.7576C6.98266 62.0802 6.31048 61.4013 5.6383 60.724C5.33816 60.42 4.87076 60.891 5.1709 61.195Z" fill="#666666"/>
<path d="M5.33186 58.8861C6.34013 60.4062 7.47503 61.827 8.73498 63.1423C9.03042 63.4511 9.49782 62.9801 9.20238 62.6713C7.97994 61.397 6.87944 60.0234 5.90243 58.5506C5.66795 58.1962 5.09582 58.5285 5.33186 58.8861Z" fill="#666666"/>
<path d="M6.14642 56.8951C7.79248 58.9933 9.44011 61.0899 11.0862 63.1881C11.3504 63.5236 11.8146 63.0495 11.5536 62.7171C9.90751 60.6189 8.25989 58.5223 6.61382 56.4241C6.34964 56.0886 5.88536 56.5628 6.14642 56.8951Z" fill="#666666"/>
<path d="M10.8625 59.1543C11.1689 59.463 11.4738 59.7702 11.7802 60.0789C12.0803 60.3814 12.5477 59.912 12.2476 59.608C11.9474 59.3039 11.6363 58.992 11.3299 58.6833C11.0298 58.3809 10.5624 58.8503 10.8625 59.1543Z" fill="#666666"/>
<path d="M52.1485 39.6329C52.6831 40.4442 53.2193 41.2538 53.7539 42.0651C53.9884 42.4195 54.5605 42.0871 54.3245 41.7295C53.7899 40.9183 53.2537 40.1086 52.7191 39.2974C52.4846 38.943 51.9125 39.2754 52.1485 39.6329Z" fill="#666666"/>
<path d="M51.531 41.1557C52.2642 42.3261 52.9973 43.4965 53.7304 44.6669C53.9571 45.0276 54.5277 44.6952 54.301 44.3314C53.5679 43.161 52.8347 41.9906 52.1016 40.8202C51.8749 40.4595 51.3043 40.7918 51.531 41.1557Z" fill="#666666"/>
<path d="M52.086 44.2962C52.5909 45.2114 53.0943 46.1266 53.5992 47.0434C53.8055 47.4183 54.3761 47.0828 54.1698 46.7079C53.6649 45.7927 53.1615 44.8775 52.6566 43.9607C52.4502 43.5858 51.8797 43.9213 52.086 44.2962Z" fill="#666666"/>
<path d="M76.0171 20.9975H76.9347C77.3599 20.9975 77.3599 20.3328 76.9347 20.3328H76.0171C75.5919 20.3328 75.5919 20.9975 76.0171 20.9975Z" fill="#666666"/>
<path d="M76.3846 18.7807H76.9348C77.36 18.7807 77.36 18.116 76.9348 18.116H76.3846C75.9594 18.116 75.9594 18.7807 76.3846 18.7807Z" fill="#666666"/>
<path d="M76.0171 16.1928H76.5674C76.9926 16.1928 76.9926 15.5281 76.5674 15.5281H76.0171C75.5919 15.5281 75.5919 16.1928 76.0171 16.1928Z" fill="#666666"/>
</g>
</g>
<defs>
<filter id="filter0_d_62_1008" x="-7.77245e-05" y="0" width="86.6266" height="74.8139" filterUnits="userSpaceOnUse" color-interpolation-filters="sRGB">
<feFlood flood-opacity="0" result="BackgroundImageFix"/>
<feColorMatrix in="SourceAlpha" type="matrix" values="0 0 0 0 0 0 0 0 0 0 0 0 0 0 0 0 0 0 127 0" result="hardAlpha"/>
<feOffset dy="3.93758"/>
<feGaussianBlur stdDeviation="1.96879"/>
<feComposite in2="hardAlpha" operator="out"/>
<feColorMatrix type="matrix" values="0 0 0 0 0 0 0 0 0 0 0 0 0 0 0 0 0 0 0.25 0"/>
<feBlend mode="normal" in2="BackgroundImageFix" result="effect1_dropShadow_62_1008"/>
<feBlend mode="normal" in="SourceGraphic" in2="effect1_dropShadow_62_1008" result="shape"/>
</filter>
<clipPath id="clip0_62_1008">
<rect width="78.7516" height="66.9388" fill="white" transform="translate(3.9375)"/>
</clipPath>
</defs>
</svg>
