<svg width="53" height="126" viewBox="0 0 53 126" fill="none" xmlns="http://www.w3.org/2000/svg">
<g clip-path="url(#clip0_62_623)">
<path d="M2.91644 63.5015C3.90039 78.1254 5.95078 92.6457 7.37956 107.228C7.70067 110.511 7.98054 113.797 8.22211 117.086C8.39003 119.342 8.34584 121.707 10.2195 123.282C11.9429 124.732 14.659 124.919 16.7742 125.251C20.3064 125.804 23.8917 126.056 27.468 125.991C32.2788 125.905 39.52 125.931 43.3526 122.435C46.4282 119.629 45.6652 115.135 45.6741 111.373C45.6947 101.894 46.0335 92.4148 46.2927 82.9418C46.5667 73.0011 47.0115 63.0278 46.8259 53.0812C46.8053 52.0096 45.1467 52.0066 45.1674 53.0812C45.4561 68.7353 44.5369 84.4308 44.1864 100.079C44.1068 103.611 44.0332 107.145 44.0155 110.677C44.0096 112.015 44.042 113.353 44.0332 114.691C44.0037 119.395 41.9592 122.287 37.34 123.314C30.6025 124.815 23.2494 124.626 16.4737 123.519C13.7693 123.078 13.3098 123.101 11.5451 120.638C9.89541 118.332 9.92487 117.589 9.72749 115.02C9.48887 111.935 9.20311 108.853 8.89379 105.778C7.47384 91.6836 5.52361 77.6399 4.57501 63.5015C4.50431 62.4358 2.84279 62.4298 2.91644 63.5015Z" fill="#666666"/>
<path d="M0.798426 54.4358C-0.98977 58.1155 0.35064 62.325 3.61771 64.7377C8.56397 68.3936 15.8228 66.9253 21.3494 65.7915C30.3994 63.9384 51.3511 58.968 47.3917 45.4957C47.0912 44.4684 45.4886 44.9066 45.792 45.9397C49.012 56.8869 32.7532 61.1764 25.1556 63.1865C20.9989 64.2877 16.574 65.2912 12.2641 65.3238C7.11751 65.3652 -0.966202 61.8543 2.23016 55.2736C2.69562 54.3144 1.26683 53.4678 0.798426 54.4328V54.4358Z" fill="#666666"/>
<path d="M24.522 37.2845C16.344 38.812 3.06071 43.587 0.562534 52.7521C-1.58507 60.6236 6.28948 62.4737 12.146 62.1896C22.5541 61.6833 33.4865 58.2464 42.1388 52.3613C45.4412 50.1145 49.0471 46.4526 46.4576 42.243C43.7738 37.8825 35.5016 37.693 30.9648 37.4029C29.8984 37.3348 29.9013 39.0015 30.9648 39.0696C34.7563 39.3123 42.7133 39.5166 45.0229 43.0837C49.1797 49.5046 33.9903 55.0641 30.464 56.4495C25.6356 58.353 20.5332 59.6615 15.3778 60.2535C12.4907 60.5851 8.87308 61.0765 6.0155 60.2446C1.54648 58.9451 1.23716 54.1168 3.317 50.6888C4.75169 48.3205 7.31467 46.5088 9.55065 45.002C14.2112 41.8671 19.4697 39.9192 24.9639 38.8919C26.0127 38.6966 25.5678 37.0891 24.522 37.2845Z" fill="#666666"/>
<path d="M24.7341 49.1415C26.1364 39.0025 27.742 28.8901 29.1855 18.7569C29.8719 13.9376 30.685 8.98497 34.7857 5.83817C38.8129 2.74761 44.1981 2.16443 49.0825 1.67302C50.1342 1.56644 50.146 -0.100208 49.0825 0.00636306C40.5893 0.858931 31.6071 2.73873 28.7996 11.9719C27.1439 17.4218 26.87 23.4609 26.0274 29.0736C25.0464 35.6129 24.0359 42.1463 23.1315 48.6975C22.9872 49.7454 24.5839 50.2013 24.7312 49.1415H24.7341Z" fill="#666666"/>
<path d="M48.6496 0.920651C47.3415 1.36766 46.6227 2.73532 46.8761 4.08818C47.1324 5.46768 48.4257 6.26992 49.7749 6.05974C51.133 5.8466 52.2849 4.67728 52.1641 3.23857C52.0315 1.68145 50.5202 0.375954 48.9589 0.580215C48.5111 0.639422 48.134 0.920651 48.1281 1.41502C48.1252 1.82058 48.514 2.30607 48.9589 2.24983C50.3965 2.06037 51.1919 4.1237 49.554 4.41973C48.3785 4.63287 48.0663 2.88037 49.0914 2.53106C50.096 2.18766 49.6659 0.577255 48.6496 0.923611V0.920651Z" fill="#666666"/>
<path d="M48.8144 4.9197C44.1156 5.28086 38.6391 5.84036 35.5223 9.87822C32.6824 13.5579 32.3583 19.1677 31.5334 23.5874C30.0487 31.5713 28.7407 39.5967 27.5358 47.628C27.3767 48.679 28.9763 49.1289 29.1354 48.0721C30.0575 41.9354 31.0532 35.8075 32.1167 29.6945C32.8709 25.3606 33.6221 21.0119 34.5913 16.7224C35.3426 13.3951 36.3795 10.4318 39.5376 8.64673C42.3127 7.07777 45.7153 6.8291 48.8144 6.58932C49.872 6.50939 49.8808 4.83978 48.8144 4.92266V4.9197Z" fill="#666666"/>
<path d="M23.217 46.7311C22.177 47.0005 21.7116 48.0247 21.9148 49.046C22.1888 50.4285 23.5086 50.9762 24.8019 50.9051C26.1747 50.8282 27.9511 50.4048 29.0117 49.4723C30.028 48.5754 30.4169 47.0478 29.6038 45.8904C28.994 45.02 27.5563 45.8519 28.1721 46.7311C29.1207 48.0869 26.9377 48.7796 26.0127 49.0076C25.4264 49.1526 24.7371 49.3658 24.1361 49.2207C23.921 49.1704 23.1021 48.4836 23.6559 48.3385C24.6899 48.0691 24.251 46.4617 23.214 46.7311H23.217Z" fill="#666666"/>
<path d="M19.3254 49.0096C18.1912 50.2558 18.4975 51.9107 19.9676 52.7899C22.2566 54.1635 25.998 53.6069 28.4254 52.9231C30.5553 52.3221 34.0316 51.0285 34.5118 48.4974C34.8388 46.7716 33.5661 45.3269 31.884 45.3832C30.8205 45.4187 30.8146 47.0854 31.884 47.0498C32.7913 48.234 32.7471 49.0628 31.7455 49.5306C31.3213 49.8888 30.8588 50.1818 30.3491 50.4068C29.3505 50.9249 28.1986 51.2979 27.0968 51.5406C25.9832 51.7834 24.8137 51.8929 23.6765 51.8485C23.1639 51.8278 19.3872 51.4104 20.5008 50.1878C21.2196 49.3974 20.0501 48.2162 19.3283 49.0096H19.3254Z" fill="#666666"/>
<path d="M30.1371 15.3092C30.8765 15.0368 31.5629 15.0546 32.2935 15.3477C32.7089 15.5164 33.2038 15.1641 33.3128 14.7645C33.4425 14.2879 33.1508 13.906 32.7325 13.7402C31.7662 13.3495 30.6733 13.3406 29.6952 13.7017C28.6995 14.0658 29.1296 15.6792 30.1371 15.3092Z" fill="#666666"/>
<path d="M30.0252 11.0827C31.1476 11.6038 32.2729 12.1248 33.3953 12.6458C34.3587 13.0928 35.2012 11.657 34.232 11.2071C33.1096 10.6861 31.9842 10.165 30.8618 9.64403C29.8985 9.19703 29.0559 10.6328 30.0252 11.0827Z" fill="#666666"/>
<path d="M32.4908 7.78804C33.4424 8.74126 34.3969 9.69448 35.3484 10.6477C36.1055 11.4055 37.278 10.2273 36.5209 9.4695C35.5694 8.51628 34.6149 7.56306 33.6633 6.60984C32.9062 5.852 31.7337 7.03021 32.4908 7.78804Z" fill="#666666"/>
<path d="M35.1718 5.31346C35.7757 6.35549 36.3826 7.39752 36.9865 8.43954C37.5256 9.36612 38.9574 8.52835 38.4182 7.59882C37.8143 6.55679 37.2075 5.51476 36.6035 4.47273C36.0644 3.54616 34.6327 4.38392 35.1718 5.31346Z" fill="#666666"/>
<path d="M37.2398 59.8576C36.8038 81.1599 36.3678 102.462 35.9348 123.762C35.9171 124.567 37.1632 124.567 37.1779 123.762C37.614 102.459 38.05 81.157 38.483 59.8576C38.5007 59.0524 37.2545 59.0524 37.2398 59.8576Z" fill="#666666"/>
<path d="M29.0088 62.6337C28.832 83.2404 28.6582 103.847 28.4815 124.454C28.4756 125.259 29.7188 125.259 29.7247 124.454C29.9014 103.847 30.0752 83.2404 30.252 62.6337C30.2579 61.8285 29.0147 61.8285 29.0088 62.6337Z" fill="#666666"/>
<path d="M18.9778 66.8114C19.9647 86.0119 20.9487 105.215 21.9356 124.419C21.9768 125.218 23.22 125.224 23.1787 124.419C22.1919 105.215 21.2079 86.0149 20.221 66.8114C20.1798 66.0121 18.9366 66.0062 18.9778 66.8114Z" fill="#666666"/>
<path d="M10.9443 66.1096C9.9515 85.4878 11.3832 104.881 15.1835 123.904C15.3426 124.691 16.5416 124.36 16.3825 123.572C12.6029 104.656 11.2006 85.3782 12.1875 66.1126C12.2287 65.3074 10.9855 65.3103 10.9443 66.1126V66.1096Z" fill="#666666"/>
<path d="M7.76271 49.8536C6.01576 51.4463 5.73 54.3858 7.35028 56.1887C8.98823 58.0122 11.8812 57.9796 13.6635 56.4284C14.2703 55.9015 13.3865 55.0193 12.7826 55.5433C11.51 56.6505 9.35942 56.6238 8.22817 55.3035C7.0763 53.9625 7.39447 51.8755 8.64355 50.7358C9.23864 50.194 8.35485 49.3119 7.76271 49.8506V49.8536Z" fill="#666666"/>
<path d="M18.1825 58.2143L18.8748 57.5187C19.4404 56.9503 18.5626 56.0651 17.994 56.6335L17.3017 57.3292C16.7361 57.8976 17.614 58.7827 18.1825 58.2143Z" fill="#666666"/>
</g>
<defs>
<clipPath id="clip0_62_623">
<rect width="52.1729" height="126.002" fill="white"/>
</clipPath>
</defs>
</svg>
