<svg width="38" height="36" viewBox="0 0 38 36" fill="none" xmlns="http://www.w3.org/2000/svg">
<path d="M15.8587 1.73681C16.9339 -0.578382 20.2253 -0.578377 21.3005 1.73682L24.5344 8.70041C24.9715 9.64167 25.8641 10.2901 26.8944 10.415L34.5165 11.3388C37.0506 11.6459 38.0677 14.7763 36.1981 16.5143L30.5747 21.7418C29.8146 22.4484 29.4736 23.4976 29.6732 24.5161L31.15 32.0506C31.641 34.5556 28.9782 36.4902 26.7475 35.2492L20.0381 31.5164C19.1312 31.0118 18.028 31.0118 17.1211 31.5164L10.4117 35.2492C8.18097 36.4902 5.51816 34.5556 6.00915 32.0506L7.48594 24.5161C7.68555 23.4976 7.34463 22.4484 6.58452 21.7418L0.961088 16.5143C-0.908543 14.7763 0.108567 11.6459 2.6427 11.3388L10.2648 10.415C11.2951 10.2901 12.1876 9.64167 12.6248 8.70041L15.8587 1.73681Z" fill="#999999"/>
</svg>
